%TF.GenerationSoftware,KiCad,Pcbnew,8.0.3*%
%TF.CreationDate,2024-07-20T13:21:27-05:00*%
%TF.ProjectId,tla_probe_sma_breakout,746c615f-7072-46f6-9265-5f736d615f62,rev?*%
%TF.SameCoordinates,Original*%
%TF.FileFunction,Legend,Bot*%
%TF.FilePolarity,Positive*%
%FSLAX46Y46*%
G04 Gerber Fmt 4.6, Leading zero omitted, Abs format (unit mm)*
G04 Created by KiCad (PCBNEW 8.0.3) date 2024-07-20 13:21:27*
%MOMM*%
%LPD*%
G01*
G04 APERTURE LIST*
%ADD10C,0.100000*%
%ADD11C,0.150000*%
%ADD12C,0.010000*%
%ADD13C,0.120000*%
G04 APERTURE END LIST*
D10*
X134737524Y-74595238D02*
X134737524Y-74023810D01*
X133737524Y-74309524D02*
X134737524Y-74309524D01*
X133737524Y-73214286D02*
X133737524Y-73690476D01*
X133737524Y-73690476D02*
X134737524Y-73690476D01*
X134023239Y-72928571D02*
X134023239Y-72452381D01*
X133737524Y-73023809D02*
X134737524Y-72690476D01*
X134737524Y-72690476D02*
X133737524Y-72357143D01*
X133785144Y-71309523D02*
X133737524Y-71166666D01*
X133737524Y-71166666D02*
X133737524Y-70928571D01*
X133737524Y-70928571D02*
X133785144Y-70833333D01*
X133785144Y-70833333D02*
X133832763Y-70785714D01*
X133832763Y-70785714D02*
X133928001Y-70738095D01*
X133928001Y-70738095D02*
X134023239Y-70738095D01*
X134023239Y-70738095D02*
X134118477Y-70785714D01*
X134118477Y-70785714D02*
X134166096Y-70833333D01*
X134166096Y-70833333D02*
X134213715Y-70928571D01*
X134213715Y-70928571D02*
X134261334Y-71119047D01*
X134261334Y-71119047D02*
X134308953Y-71214285D01*
X134308953Y-71214285D02*
X134356572Y-71261904D01*
X134356572Y-71261904D02*
X134451810Y-71309523D01*
X134451810Y-71309523D02*
X134547048Y-71309523D01*
X134547048Y-71309523D02*
X134642286Y-71261904D01*
X134642286Y-71261904D02*
X134689905Y-71214285D01*
X134689905Y-71214285D02*
X134737524Y-71119047D01*
X134737524Y-71119047D02*
X134737524Y-70880952D01*
X134737524Y-70880952D02*
X134689905Y-70738095D01*
X133737524Y-70309523D02*
X134737524Y-70309523D01*
X134737524Y-70309523D02*
X134023239Y-69976190D01*
X134023239Y-69976190D02*
X134737524Y-69642857D01*
X134737524Y-69642857D02*
X133737524Y-69642857D01*
X134023239Y-69214285D02*
X134023239Y-68738095D01*
X133737524Y-69309523D02*
X134737524Y-68976190D01*
X134737524Y-68976190D02*
X133737524Y-68642857D01*
X134261334Y-67214285D02*
X134213715Y-67071428D01*
X134213715Y-67071428D02*
X134166096Y-67023809D01*
X134166096Y-67023809D02*
X134070858Y-66976190D01*
X134070858Y-66976190D02*
X133928001Y-66976190D01*
X133928001Y-66976190D02*
X133832763Y-67023809D01*
X133832763Y-67023809D02*
X133785144Y-67071428D01*
X133785144Y-67071428D02*
X133737524Y-67166666D01*
X133737524Y-67166666D02*
X133737524Y-67547618D01*
X133737524Y-67547618D02*
X134737524Y-67547618D01*
X134737524Y-67547618D02*
X134737524Y-67214285D01*
X134737524Y-67214285D02*
X134689905Y-67119047D01*
X134689905Y-67119047D02*
X134642286Y-67071428D01*
X134642286Y-67071428D02*
X134547048Y-67023809D01*
X134547048Y-67023809D02*
X134451810Y-67023809D01*
X134451810Y-67023809D02*
X134356572Y-67071428D01*
X134356572Y-67071428D02*
X134308953Y-67119047D01*
X134308953Y-67119047D02*
X134261334Y-67214285D01*
X134261334Y-67214285D02*
X134261334Y-67547618D01*
X133737524Y-66547618D02*
X134404191Y-66547618D01*
X134213715Y-66547618D02*
X134308953Y-66499999D01*
X134308953Y-66499999D02*
X134356572Y-66452380D01*
X134356572Y-66452380D02*
X134404191Y-66357142D01*
X134404191Y-66357142D02*
X134404191Y-66261904D01*
X133785144Y-65547618D02*
X133737524Y-65642856D01*
X133737524Y-65642856D02*
X133737524Y-65833332D01*
X133737524Y-65833332D02*
X133785144Y-65928570D01*
X133785144Y-65928570D02*
X133880382Y-65976189D01*
X133880382Y-65976189D02*
X134261334Y-65976189D01*
X134261334Y-65976189D02*
X134356572Y-65928570D01*
X134356572Y-65928570D02*
X134404191Y-65833332D01*
X134404191Y-65833332D02*
X134404191Y-65642856D01*
X134404191Y-65642856D02*
X134356572Y-65547618D01*
X134356572Y-65547618D02*
X134261334Y-65499999D01*
X134261334Y-65499999D02*
X134166096Y-65499999D01*
X134166096Y-65499999D02*
X134070858Y-65976189D01*
X133737524Y-64642856D02*
X134261334Y-64642856D01*
X134261334Y-64642856D02*
X134356572Y-64690475D01*
X134356572Y-64690475D02*
X134404191Y-64785713D01*
X134404191Y-64785713D02*
X134404191Y-64976189D01*
X134404191Y-64976189D02*
X134356572Y-65071427D01*
X133785144Y-64642856D02*
X133737524Y-64738094D01*
X133737524Y-64738094D02*
X133737524Y-64976189D01*
X133737524Y-64976189D02*
X133785144Y-65071427D01*
X133785144Y-65071427D02*
X133880382Y-65119046D01*
X133880382Y-65119046D02*
X133975620Y-65119046D01*
X133975620Y-65119046D02*
X134070858Y-65071427D01*
X134070858Y-65071427D02*
X134118477Y-64976189D01*
X134118477Y-64976189D02*
X134118477Y-64738094D01*
X134118477Y-64738094D02*
X134166096Y-64642856D01*
X133737524Y-64166665D02*
X134737524Y-64166665D01*
X134118477Y-64071427D02*
X133737524Y-63785713D01*
X134404191Y-63785713D02*
X134023239Y-64166665D01*
X133737524Y-63214284D02*
X133785144Y-63309522D01*
X133785144Y-63309522D02*
X133832763Y-63357141D01*
X133832763Y-63357141D02*
X133928001Y-63404760D01*
X133928001Y-63404760D02*
X134213715Y-63404760D01*
X134213715Y-63404760D02*
X134308953Y-63357141D01*
X134308953Y-63357141D02*
X134356572Y-63309522D01*
X134356572Y-63309522D02*
X134404191Y-63214284D01*
X134404191Y-63214284D02*
X134404191Y-63071427D01*
X134404191Y-63071427D02*
X134356572Y-62976189D01*
X134356572Y-62976189D02*
X134308953Y-62928570D01*
X134308953Y-62928570D02*
X134213715Y-62880951D01*
X134213715Y-62880951D02*
X133928001Y-62880951D01*
X133928001Y-62880951D02*
X133832763Y-62928570D01*
X133832763Y-62928570D02*
X133785144Y-62976189D01*
X133785144Y-62976189D02*
X133737524Y-63071427D01*
X133737524Y-63071427D02*
X133737524Y-63214284D01*
X134404191Y-62023808D02*
X133737524Y-62023808D01*
X134404191Y-62452379D02*
X133880382Y-62452379D01*
X133880382Y-62452379D02*
X133785144Y-62404760D01*
X133785144Y-62404760D02*
X133737524Y-62309522D01*
X133737524Y-62309522D02*
X133737524Y-62166665D01*
X133737524Y-62166665D02*
X133785144Y-62071427D01*
X133785144Y-62071427D02*
X133832763Y-62023808D01*
X134404191Y-61690474D02*
X134404191Y-61309522D01*
X134737524Y-61547617D02*
X133880382Y-61547617D01*
X133880382Y-61547617D02*
X133785144Y-61499998D01*
X133785144Y-61499998D02*
X133737524Y-61404760D01*
X133737524Y-61404760D02*
X133737524Y-61309522D01*
X134404191Y-60309521D02*
X133737524Y-60071426D01*
X133737524Y-60071426D02*
X134404191Y-59833331D01*
X133737524Y-58928569D02*
X133737524Y-59499997D01*
X133737524Y-59214283D02*
X134737524Y-59214283D01*
X134737524Y-59214283D02*
X134594667Y-59309521D01*
X134594667Y-59309521D02*
X134499429Y-59404759D01*
X134499429Y-59404759D02*
X134451810Y-59499997D01*
X133832763Y-58499997D02*
X133785144Y-58452378D01*
X133785144Y-58452378D02*
X133737524Y-58499997D01*
X133737524Y-58499997D02*
X133785144Y-58547616D01*
X133785144Y-58547616D02*
X133832763Y-58499997D01*
X133832763Y-58499997D02*
X133737524Y-58499997D01*
X134737524Y-57833331D02*
X134737524Y-57738093D01*
X134737524Y-57738093D02*
X134689905Y-57642855D01*
X134689905Y-57642855D02*
X134642286Y-57595236D01*
X134642286Y-57595236D02*
X134547048Y-57547617D01*
X134547048Y-57547617D02*
X134356572Y-57499998D01*
X134356572Y-57499998D02*
X134118477Y-57499998D01*
X134118477Y-57499998D02*
X133928001Y-57547617D01*
X133928001Y-57547617D02*
X133832763Y-57595236D01*
X133832763Y-57595236D02*
X133785144Y-57642855D01*
X133785144Y-57642855D02*
X133737524Y-57738093D01*
X133737524Y-57738093D02*
X133737524Y-57833331D01*
X133737524Y-57833331D02*
X133785144Y-57928569D01*
X133785144Y-57928569D02*
X133832763Y-57976188D01*
X133832763Y-57976188D02*
X133928001Y-58023807D01*
X133928001Y-58023807D02*
X134118477Y-58071426D01*
X134118477Y-58071426D02*
X134356572Y-58071426D01*
X134356572Y-58071426D02*
X134547048Y-58023807D01*
X134547048Y-58023807D02*
X134642286Y-57976188D01*
X134642286Y-57976188D02*
X134689905Y-57928569D01*
X134689905Y-57928569D02*
X134737524Y-57833331D01*
X132127580Y-72880953D02*
X133127580Y-72880953D01*
X133127580Y-72880953D02*
X133127580Y-72500001D01*
X133127580Y-72500001D02*
X133079961Y-72404763D01*
X133079961Y-72404763D02*
X133032342Y-72357144D01*
X133032342Y-72357144D02*
X132937104Y-72309525D01*
X132937104Y-72309525D02*
X132794247Y-72309525D01*
X132794247Y-72309525D02*
X132699009Y-72357144D01*
X132699009Y-72357144D02*
X132651390Y-72404763D01*
X132651390Y-72404763D02*
X132603771Y-72500001D01*
X132603771Y-72500001D02*
X132603771Y-72880953D01*
X132175200Y-71500001D02*
X132127580Y-71595239D01*
X132127580Y-71595239D02*
X132127580Y-71785715D01*
X132127580Y-71785715D02*
X132175200Y-71880953D01*
X132175200Y-71880953D02*
X132270438Y-71928572D01*
X132270438Y-71928572D02*
X132651390Y-71928572D01*
X132651390Y-71928572D02*
X132746628Y-71880953D01*
X132746628Y-71880953D02*
X132794247Y-71785715D01*
X132794247Y-71785715D02*
X132794247Y-71595239D01*
X132794247Y-71595239D02*
X132746628Y-71500001D01*
X132746628Y-71500001D02*
X132651390Y-71452382D01*
X132651390Y-71452382D02*
X132556152Y-71452382D01*
X132556152Y-71452382D02*
X132460914Y-71928572D01*
X132794247Y-71166667D02*
X132794247Y-70785715D01*
X133127580Y-71023810D02*
X132270438Y-71023810D01*
X132270438Y-71023810D02*
X132175200Y-70976191D01*
X132175200Y-70976191D02*
X132127580Y-70880953D01*
X132127580Y-70880953D02*
X132127580Y-70785715D01*
X132175200Y-70071429D02*
X132127580Y-70166667D01*
X132127580Y-70166667D02*
X132127580Y-70357143D01*
X132127580Y-70357143D02*
X132175200Y-70452381D01*
X132175200Y-70452381D02*
X132270438Y-70500000D01*
X132270438Y-70500000D02*
X132651390Y-70500000D01*
X132651390Y-70500000D02*
X132746628Y-70452381D01*
X132746628Y-70452381D02*
X132794247Y-70357143D01*
X132794247Y-70357143D02*
X132794247Y-70166667D01*
X132794247Y-70166667D02*
X132746628Y-70071429D01*
X132746628Y-70071429D02*
X132651390Y-70023810D01*
X132651390Y-70023810D02*
X132556152Y-70023810D01*
X132556152Y-70023810D02*
X132460914Y-70500000D01*
X132127580Y-69595238D02*
X132794247Y-69595238D01*
X132603771Y-69595238D02*
X132699009Y-69547619D01*
X132699009Y-69547619D02*
X132746628Y-69500000D01*
X132746628Y-69500000D02*
X132794247Y-69404762D01*
X132794247Y-69404762D02*
X132794247Y-69309524D01*
X132651390Y-67880952D02*
X132651390Y-68214285D01*
X132127580Y-68214285D02*
X133127580Y-68214285D01*
X133127580Y-68214285D02*
X133127580Y-67738095D01*
X132127580Y-66928571D02*
X132651390Y-66928571D01*
X132651390Y-66928571D02*
X132746628Y-66976190D01*
X132746628Y-66976190D02*
X132794247Y-67071428D01*
X132794247Y-67071428D02*
X132794247Y-67261904D01*
X132794247Y-67261904D02*
X132746628Y-67357142D01*
X132175200Y-66928571D02*
X132127580Y-67023809D01*
X132127580Y-67023809D02*
X132127580Y-67261904D01*
X132127580Y-67261904D02*
X132175200Y-67357142D01*
X132175200Y-67357142D02*
X132270438Y-67404761D01*
X132270438Y-67404761D02*
X132365676Y-67404761D01*
X132365676Y-67404761D02*
X132460914Y-67357142D01*
X132460914Y-67357142D02*
X132508533Y-67261904D01*
X132508533Y-67261904D02*
X132508533Y-67023809D01*
X132508533Y-67023809D02*
X132556152Y-66928571D01*
X132127580Y-66452380D02*
X132794247Y-66452380D01*
X132603771Y-66452380D02*
X132699009Y-66404761D01*
X132699009Y-66404761D02*
X132746628Y-66357142D01*
X132746628Y-66357142D02*
X132794247Y-66261904D01*
X132794247Y-66261904D02*
X132794247Y-66166666D01*
X132127580Y-65690475D02*
X132175200Y-65785713D01*
X132175200Y-65785713D02*
X132270438Y-65833332D01*
X132270438Y-65833332D02*
X133127580Y-65833332D01*
X132175200Y-64928570D02*
X132127580Y-65023808D01*
X132127580Y-65023808D02*
X132127580Y-65214284D01*
X132127580Y-65214284D02*
X132175200Y-65309522D01*
X132175200Y-65309522D02*
X132270438Y-65357141D01*
X132270438Y-65357141D02*
X132651390Y-65357141D01*
X132651390Y-65357141D02*
X132746628Y-65309522D01*
X132746628Y-65309522D02*
X132794247Y-65214284D01*
X132794247Y-65214284D02*
X132794247Y-65023808D01*
X132794247Y-65023808D02*
X132746628Y-64928570D01*
X132746628Y-64928570D02*
X132651390Y-64880951D01*
X132651390Y-64880951D02*
X132556152Y-64880951D01*
X132556152Y-64880951D02*
X132460914Y-65357141D01*
X132794247Y-64547617D02*
X132127580Y-64309522D01*
X132794247Y-64071427D02*
X132127580Y-64309522D01*
X132127580Y-64309522D02*
X131889485Y-64404760D01*
X131889485Y-64404760D02*
X131841866Y-64452379D01*
X131841866Y-64452379D02*
X131794247Y-64547617D01*
X132175200Y-63642855D02*
X132127580Y-63642855D01*
X132127580Y-63642855D02*
X132032342Y-63690474D01*
X132032342Y-63690474D02*
X131984723Y-63738093D01*
X133032342Y-62499998D02*
X133079961Y-62452379D01*
X133079961Y-62452379D02*
X133127580Y-62357141D01*
X133127580Y-62357141D02*
X133127580Y-62119046D01*
X133127580Y-62119046D02*
X133079961Y-62023808D01*
X133079961Y-62023808D02*
X133032342Y-61976189D01*
X133032342Y-61976189D02*
X132937104Y-61928570D01*
X132937104Y-61928570D02*
X132841866Y-61928570D01*
X132841866Y-61928570D02*
X132699009Y-61976189D01*
X132699009Y-61976189D02*
X132127580Y-62547617D01*
X132127580Y-62547617D02*
X132127580Y-61928570D01*
X133127580Y-61309522D02*
X133127580Y-61214284D01*
X133127580Y-61214284D02*
X133079961Y-61119046D01*
X133079961Y-61119046D02*
X133032342Y-61071427D01*
X133032342Y-61071427D02*
X132937104Y-61023808D01*
X132937104Y-61023808D02*
X132746628Y-60976189D01*
X132746628Y-60976189D02*
X132508533Y-60976189D01*
X132508533Y-60976189D02*
X132318057Y-61023808D01*
X132318057Y-61023808D02*
X132222819Y-61071427D01*
X132222819Y-61071427D02*
X132175200Y-61119046D01*
X132175200Y-61119046D02*
X132127580Y-61214284D01*
X132127580Y-61214284D02*
X132127580Y-61309522D01*
X132127580Y-61309522D02*
X132175200Y-61404760D01*
X132175200Y-61404760D02*
X132222819Y-61452379D01*
X132222819Y-61452379D02*
X132318057Y-61499998D01*
X132318057Y-61499998D02*
X132508533Y-61547617D01*
X132508533Y-61547617D02*
X132746628Y-61547617D01*
X132746628Y-61547617D02*
X132937104Y-61499998D01*
X132937104Y-61499998D02*
X133032342Y-61452379D01*
X133032342Y-61452379D02*
X133079961Y-61404760D01*
X133079961Y-61404760D02*
X133127580Y-61309522D01*
X133032342Y-60595236D02*
X133079961Y-60547617D01*
X133079961Y-60547617D02*
X133127580Y-60452379D01*
X133127580Y-60452379D02*
X133127580Y-60214284D01*
X133127580Y-60214284D02*
X133079961Y-60119046D01*
X133079961Y-60119046D02*
X133032342Y-60071427D01*
X133032342Y-60071427D02*
X132937104Y-60023808D01*
X132937104Y-60023808D02*
X132841866Y-60023808D01*
X132841866Y-60023808D02*
X132699009Y-60071427D01*
X132699009Y-60071427D02*
X132127580Y-60642855D01*
X132127580Y-60642855D02*
X132127580Y-60023808D01*
X132794247Y-59166665D02*
X132127580Y-59166665D01*
X133175200Y-59404760D02*
X132460914Y-59642855D01*
X132460914Y-59642855D02*
X132460914Y-59023808D01*
D11*
X121700922Y-76654819D02*
X122034255Y-76178628D01*
X122272350Y-76654819D02*
X122272350Y-75654819D01*
X122272350Y-75654819D02*
X121891398Y-75654819D01*
X121891398Y-75654819D02*
X121796160Y-75702438D01*
X121796160Y-75702438D02*
X121748541Y-75750057D01*
X121748541Y-75750057D02*
X121700922Y-75845295D01*
X121700922Y-75845295D02*
X121700922Y-75988152D01*
X121700922Y-75988152D02*
X121748541Y-76083390D01*
X121748541Y-76083390D02*
X121796160Y-76131009D01*
X121796160Y-76131009D02*
X121891398Y-76178628D01*
X121891398Y-76178628D02*
X122272350Y-76178628D01*
X120843779Y-75988152D02*
X120843779Y-76654819D01*
X121081874Y-75607200D02*
X121319969Y-76321485D01*
X121319969Y-76321485D02*
X120700922Y-76321485D01*
X120129493Y-75654819D02*
X120034255Y-75654819D01*
X120034255Y-75654819D02*
X119939017Y-75702438D01*
X119939017Y-75702438D02*
X119891398Y-75750057D01*
X119891398Y-75750057D02*
X119843779Y-75845295D01*
X119843779Y-75845295D02*
X119796160Y-76035771D01*
X119796160Y-76035771D02*
X119796160Y-76273866D01*
X119796160Y-76273866D02*
X119843779Y-76464342D01*
X119843779Y-76464342D02*
X119891398Y-76559580D01*
X119891398Y-76559580D02*
X119939017Y-76607200D01*
X119939017Y-76607200D02*
X120034255Y-76654819D01*
X120034255Y-76654819D02*
X120129493Y-76654819D01*
X120129493Y-76654819D02*
X120224731Y-76607200D01*
X120224731Y-76607200D02*
X120272350Y-76559580D01*
X120272350Y-76559580D02*
X120319969Y-76464342D01*
X120319969Y-76464342D02*
X120367588Y-76273866D01*
X120367588Y-76273866D02*
X120367588Y-76035771D01*
X120367588Y-76035771D02*
X120319969Y-75845295D01*
X120319969Y-75845295D02*
X120272350Y-75750057D01*
X120272350Y-75750057D02*
X120224731Y-75702438D01*
X120224731Y-75702438D02*
X120129493Y-75654819D01*
X121700922Y-74114819D02*
X122034255Y-73638628D01*
X122272350Y-74114819D02*
X122272350Y-73114819D01*
X122272350Y-73114819D02*
X121891398Y-73114819D01*
X121891398Y-73114819D02*
X121796160Y-73162438D01*
X121796160Y-73162438D02*
X121748541Y-73210057D01*
X121748541Y-73210057D02*
X121700922Y-73305295D01*
X121700922Y-73305295D02*
X121700922Y-73448152D01*
X121700922Y-73448152D02*
X121748541Y-73543390D01*
X121748541Y-73543390D02*
X121796160Y-73591009D01*
X121796160Y-73591009D02*
X121891398Y-73638628D01*
X121891398Y-73638628D02*
X122272350Y-73638628D01*
X121367588Y-73114819D02*
X120748541Y-73114819D01*
X120748541Y-73114819D02*
X121081874Y-73495771D01*
X121081874Y-73495771D02*
X120939017Y-73495771D01*
X120939017Y-73495771D02*
X120843779Y-73543390D01*
X120843779Y-73543390D02*
X120796160Y-73591009D01*
X120796160Y-73591009D02*
X120748541Y-73686247D01*
X120748541Y-73686247D02*
X120748541Y-73924342D01*
X120748541Y-73924342D02*
X120796160Y-74019580D01*
X120796160Y-74019580D02*
X120843779Y-74067200D01*
X120843779Y-74067200D02*
X120939017Y-74114819D01*
X120939017Y-74114819D02*
X121224731Y-74114819D01*
X121224731Y-74114819D02*
X121319969Y-74067200D01*
X121319969Y-74067200D02*
X121367588Y-74019580D01*
X120272350Y-74114819D02*
X120081874Y-74114819D01*
X120081874Y-74114819D02*
X119986636Y-74067200D01*
X119986636Y-74067200D02*
X119939017Y-74019580D01*
X119939017Y-74019580D02*
X119843779Y-73876723D01*
X119843779Y-73876723D02*
X119796160Y-73686247D01*
X119796160Y-73686247D02*
X119796160Y-73305295D01*
X119796160Y-73305295D02*
X119843779Y-73210057D01*
X119843779Y-73210057D02*
X119891398Y-73162438D01*
X119891398Y-73162438D02*
X119986636Y-73114819D01*
X119986636Y-73114819D02*
X120177112Y-73114819D01*
X120177112Y-73114819D02*
X120272350Y-73162438D01*
X120272350Y-73162438D02*
X120319969Y-73210057D01*
X120319969Y-73210057D02*
X120367588Y-73305295D01*
X120367588Y-73305295D02*
X120367588Y-73543390D01*
X120367588Y-73543390D02*
X120319969Y-73638628D01*
X120319969Y-73638628D02*
X120272350Y-73686247D01*
X120272350Y-73686247D02*
X120177112Y-73733866D01*
X120177112Y-73733866D02*
X119986636Y-73733866D01*
X119986636Y-73733866D02*
X119891398Y-73686247D01*
X119891398Y-73686247D02*
X119843779Y-73638628D01*
X119843779Y-73638628D02*
X119796160Y-73543390D01*
X121700922Y-71574819D02*
X122034255Y-71098628D01*
X122272350Y-71574819D02*
X122272350Y-70574819D01*
X122272350Y-70574819D02*
X121891398Y-70574819D01*
X121891398Y-70574819D02*
X121796160Y-70622438D01*
X121796160Y-70622438D02*
X121748541Y-70670057D01*
X121748541Y-70670057D02*
X121700922Y-70765295D01*
X121700922Y-70765295D02*
X121700922Y-70908152D01*
X121700922Y-70908152D02*
X121748541Y-71003390D01*
X121748541Y-71003390D02*
X121796160Y-71051009D01*
X121796160Y-71051009D02*
X121891398Y-71098628D01*
X121891398Y-71098628D02*
X122272350Y-71098628D01*
X121367588Y-70574819D02*
X120748541Y-70574819D01*
X120748541Y-70574819D02*
X121081874Y-70955771D01*
X121081874Y-70955771D02*
X120939017Y-70955771D01*
X120939017Y-70955771D02*
X120843779Y-71003390D01*
X120843779Y-71003390D02*
X120796160Y-71051009D01*
X120796160Y-71051009D02*
X120748541Y-71146247D01*
X120748541Y-71146247D02*
X120748541Y-71384342D01*
X120748541Y-71384342D02*
X120796160Y-71479580D01*
X120796160Y-71479580D02*
X120843779Y-71527200D01*
X120843779Y-71527200D02*
X120939017Y-71574819D01*
X120939017Y-71574819D02*
X121224731Y-71574819D01*
X121224731Y-71574819D02*
X121319969Y-71527200D01*
X121319969Y-71527200D02*
X121367588Y-71479580D01*
X120177112Y-71003390D02*
X120272350Y-70955771D01*
X120272350Y-70955771D02*
X120319969Y-70908152D01*
X120319969Y-70908152D02*
X120367588Y-70812914D01*
X120367588Y-70812914D02*
X120367588Y-70765295D01*
X120367588Y-70765295D02*
X120319969Y-70670057D01*
X120319969Y-70670057D02*
X120272350Y-70622438D01*
X120272350Y-70622438D02*
X120177112Y-70574819D01*
X120177112Y-70574819D02*
X119986636Y-70574819D01*
X119986636Y-70574819D02*
X119891398Y-70622438D01*
X119891398Y-70622438D02*
X119843779Y-70670057D01*
X119843779Y-70670057D02*
X119796160Y-70765295D01*
X119796160Y-70765295D02*
X119796160Y-70812914D01*
X119796160Y-70812914D02*
X119843779Y-70908152D01*
X119843779Y-70908152D02*
X119891398Y-70955771D01*
X119891398Y-70955771D02*
X119986636Y-71003390D01*
X119986636Y-71003390D02*
X120177112Y-71003390D01*
X120177112Y-71003390D02*
X120272350Y-71051009D01*
X120272350Y-71051009D02*
X120319969Y-71098628D01*
X120319969Y-71098628D02*
X120367588Y-71193866D01*
X120367588Y-71193866D02*
X120367588Y-71384342D01*
X120367588Y-71384342D02*
X120319969Y-71479580D01*
X120319969Y-71479580D02*
X120272350Y-71527200D01*
X120272350Y-71527200D02*
X120177112Y-71574819D01*
X120177112Y-71574819D02*
X119986636Y-71574819D01*
X119986636Y-71574819D02*
X119891398Y-71527200D01*
X119891398Y-71527200D02*
X119843779Y-71479580D01*
X119843779Y-71479580D02*
X119796160Y-71384342D01*
X119796160Y-71384342D02*
X119796160Y-71193866D01*
X119796160Y-71193866D02*
X119843779Y-71098628D01*
X119843779Y-71098628D02*
X119891398Y-71051009D01*
X119891398Y-71051009D02*
X119986636Y-71003390D01*
X121700922Y-69034819D02*
X122034255Y-68558628D01*
X122272350Y-69034819D02*
X122272350Y-68034819D01*
X122272350Y-68034819D02*
X121891398Y-68034819D01*
X121891398Y-68034819D02*
X121796160Y-68082438D01*
X121796160Y-68082438D02*
X121748541Y-68130057D01*
X121748541Y-68130057D02*
X121700922Y-68225295D01*
X121700922Y-68225295D02*
X121700922Y-68368152D01*
X121700922Y-68368152D02*
X121748541Y-68463390D01*
X121748541Y-68463390D02*
X121796160Y-68511009D01*
X121796160Y-68511009D02*
X121891398Y-68558628D01*
X121891398Y-68558628D02*
X122272350Y-68558628D01*
X121367588Y-68034819D02*
X120748541Y-68034819D01*
X120748541Y-68034819D02*
X121081874Y-68415771D01*
X121081874Y-68415771D02*
X120939017Y-68415771D01*
X120939017Y-68415771D02*
X120843779Y-68463390D01*
X120843779Y-68463390D02*
X120796160Y-68511009D01*
X120796160Y-68511009D02*
X120748541Y-68606247D01*
X120748541Y-68606247D02*
X120748541Y-68844342D01*
X120748541Y-68844342D02*
X120796160Y-68939580D01*
X120796160Y-68939580D02*
X120843779Y-68987200D01*
X120843779Y-68987200D02*
X120939017Y-69034819D01*
X120939017Y-69034819D02*
X121224731Y-69034819D01*
X121224731Y-69034819D02*
X121319969Y-68987200D01*
X121319969Y-68987200D02*
X121367588Y-68939580D01*
X120415207Y-68034819D02*
X119748541Y-68034819D01*
X119748541Y-68034819D02*
X120177112Y-69034819D01*
X121700922Y-66494819D02*
X122034255Y-66018628D01*
X122272350Y-66494819D02*
X122272350Y-65494819D01*
X122272350Y-65494819D02*
X121891398Y-65494819D01*
X121891398Y-65494819D02*
X121796160Y-65542438D01*
X121796160Y-65542438D02*
X121748541Y-65590057D01*
X121748541Y-65590057D02*
X121700922Y-65685295D01*
X121700922Y-65685295D02*
X121700922Y-65828152D01*
X121700922Y-65828152D02*
X121748541Y-65923390D01*
X121748541Y-65923390D02*
X121796160Y-65971009D01*
X121796160Y-65971009D02*
X121891398Y-66018628D01*
X121891398Y-66018628D02*
X122272350Y-66018628D01*
X121367588Y-65494819D02*
X120748541Y-65494819D01*
X120748541Y-65494819D02*
X121081874Y-65875771D01*
X121081874Y-65875771D02*
X120939017Y-65875771D01*
X120939017Y-65875771D02*
X120843779Y-65923390D01*
X120843779Y-65923390D02*
X120796160Y-65971009D01*
X120796160Y-65971009D02*
X120748541Y-66066247D01*
X120748541Y-66066247D02*
X120748541Y-66304342D01*
X120748541Y-66304342D02*
X120796160Y-66399580D01*
X120796160Y-66399580D02*
X120843779Y-66447200D01*
X120843779Y-66447200D02*
X120939017Y-66494819D01*
X120939017Y-66494819D02*
X121224731Y-66494819D01*
X121224731Y-66494819D02*
X121319969Y-66447200D01*
X121319969Y-66447200D02*
X121367588Y-66399580D01*
X119891398Y-65494819D02*
X120081874Y-65494819D01*
X120081874Y-65494819D02*
X120177112Y-65542438D01*
X120177112Y-65542438D02*
X120224731Y-65590057D01*
X120224731Y-65590057D02*
X120319969Y-65732914D01*
X120319969Y-65732914D02*
X120367588Y-65923390D01*
X120367588Y-65923390D02*
X120367588Y-66304342D01*
X120367588Y-66304342D02*
X120319969Y-66399580D01*
X120319969Y-66399580D02*
X120272350Y-66447200D01*
X120272350Y-66447200D02*
X120177112Y-66494819D01*
X120177112Y-66494819D02*
X119986636Y-66494819D01*
X119986636Y-66494819D02*
X119891398Y-66447200D01*
X119891398Y-66447200D02*
X119843779Y-66399580D01*
X119843779Y-66399580D02*
X119796160Y-66304342D01*
X119796160Y-66304342D02*
X119796160Y-66066247D01*
X119796160Y-66066247D02*
X119843779Y-65971009D01*
X119843779Y-65971009D02*
X119891398Y-65923390D01*
X119891398Y-65923390D02*
X119986636Y-65875771D01*
X119986636Y-65875771D02*
X120177112Y-65875771D01*
X120177112Y-65875771D02*
X120272350Y-65923390D01*
X120272350Y-65923390D02*
X120319969Y-65971009D01*
X120319969Y-65971009D02*
X120367588Y-66066247D01*
X121700922Y-63954819D02*
X122034255Y-63478628D01*
X122272350Y-63954819D02*
X122272350Y-62954819D01*
X122272350Y-62954819D02*
X121891398Y-62954819D01*
X121891398Y-62954819D02*
X121796160Y-63002438D01*
X121796160Y-63002438D02*
X121748541Y-63050057D01*
X121748541Y-63050057D02*
X121700922Y-63145295D01*
X121700922Y-63145295D02*
X121700922Y-63288152D01*
X121700922Y-63288152D02*
X121748541Y-63383390D01*
X121748541Y-63383390D02*
X121796160Y-63431009D01*
X121796160Y-63431009D02*
X121891398Y-63478628D01*
X121891398Y-63478628D02*
X122272350Y-63478628D01*
X121367588Y-62954819D02*
X120748541Y-62954819D01*
X120748541Y-62954819D02*
X121081874Y-63335771D01*
X121081874Y-63335771D02*
X120939017Y-63335771D01*
X120939017Y-63335771D02*
X120843779Y-63383390D01*
X120843779Y-63383390D02*
X120796160Y-63431009D01*
X120796160Y-63431009D02*
X120748541Y-63526247D01*
X120748541Y-63526247D02*
X120748541Y-63764342D01*
X120748541Y-63764342D02*
X120796160Y-63859580D01*
X120796160Y-63859580D02*
X120843779Y-63907200D01*
X120843779Y-63907200D02*
X120939017Y-63954819D01*
X120939017Y-63954819D02*
X121224731Y-63954819D01*
X121224731Y-63954819D02*
X121319969Y-63907200D01*
X121319969Y-63907200D02*
X121367588Y-63859580D01*
X119843779Y-62954819D02*
X120319969Y-62954819D01*
X120319969Y-62954819D02*
X120367588Y-63431009D01*
X120367588Y-63431009D02*
X120319969Y-63383390D01*
X120319969Y-63383390D02*
X120224731Y-63335771D01*
X120224731Y-63335771D02*
X119986636Y-63335771D01*
X119986636Y-63335771D02*
X119891398Y-63383390D01*
X119891398Y-63383390D02*
X119843779Y-63431009D01*
X119843779Y-63431009D02*
X119796160Y-63526247D01*
X119796160Y-63526247D02*
X119796160Y-63764342D01*
X119796160Y-63764342D02*
X119843779Y-63859580D01*
X119843779Y-63859580D02*
X119891398Y-63907200D01*
X119891398Y-63907200D02*
X119986636Y-63954819D01*
X119986636Y-63954819D02*
X120224731Y-63954819D01*
X120224731Y-63954819D02*
X120319969Y-63907200D01*
X120319969Y-63907200D02*
X120367588Y-63859580D01*
X121700922Y-61414819D02*
X122034255Y-60938628D01*
X122272350Y-61414819D02*
X122272350Y-60414819D01*
X122272350Y-60414819D02*
X121891398Y-60414819D01*
X121891398Y-60414819D02*
X121796160Y-60462438D01*
X121796160Y-60462438D02*
X121748541Y-60510057D01*
X121748541Y-60510057D02*
X121700922Y-60605295D01*
X121700922Y-60605295D02*
X121700922Y-60748152D01*
X121700922Y-60748152D02*
X121748541Y-60843390D01*
X121748541Y-60843390D02*
X121796160Y-60891009D01*
X121796160Y-60891009D02*
X121891398Y-60938628D01*
X121891398Y-60938628D02*
X122272350Y-60938628D01*
X121367588Y-60414819D02*
X120748541Y-60414819D01*
X120748541Y-60414819D02*
X121081874Y-60795771D01*
X121081874Y-60795771D02*
X120939017Y-60795771D01*
X120939017Y-60795771D02*
X120843779Y-60843390D01*
X120843779Y-60843390D02*
X120796160Y-60891009D01*
X120796160Y-60891009D02*
X120748541Y-60986247D01*
X120748541Y-60986247D02*
X120748541Y-61224342D01*
X120748541Y-61224342D02*
X120796160Y-61319580D01*
X120796160Y-61319580D02*
X120843779Y-61367200D01*
X120843779Y-61367200D02*
X120939017Y-61414819D01*
X120939017Y-61414819D02*
X121224731Y-61414819D01*
X121224731Y-61414819D02*
X121319969Y-61367200D01*
X121319969Y-61367200D02*
X121367588Y-61319580D01*
X119891398Y-60748152D02*
X119891398Y-61414819D01*
X120129493Y-60367200D02*
X120367588Y-61081485D01*
X120367588Y-61081485D02*
X119748541Y-61081485D01*
X121693922Y-58874819D02*
X122027255Y-58398628D01*
X122265350Y-58874819D02*
X122265350Y-57874819D01*
X122265350Y-57874819D02*
X121884398Y-57874819D01*
X121884398Y-57874819D02*
X121789160Y-57922438D01*
X121789160Y-57922438D02*
X121741541Y-57970057D01*
X121741541Y-57970057D02*
X121693922Y-58065295D01*
X121693922Y-58065295D02*
X121693922Y-58208152D01*
X121693922Y-58208152D02*
X121741541Y-58303390D01*
X121741541Y-58303390D02*
X121789160Y-58351009D01*
X121789160Y-58351009D02*
X121884398Y-58398628D01*
X121884398Y-58398628D02*
X122265350Y-58398628D01*
X121360588Y-57874819D02*
X120741541Y-57874819D01*
X120741541Y-57874819D02*
X121074874Y-58255771D01*
X121074874Y-58255771D02*
X120932017Y-58255771D01*
X120932017Y-58255771D02*
X120836779Y-58303390D01*
X120836779Y-58303390D02*
X120789160Y-58351009D01*
X120789160Y-58351009D02*
X120741541Y-58446247D01*
X120741541Y-58446247D02*
X120741541Y-58684342D01*
X120741541Y-58684342D02*
X120789160Y-58779580D01*
X120789160Y-58779580D02*
X120836779Y-58827200D01*
X120836779Y-58827200D02*
X120932017Y-58874819D01*
X120932017Y-58874819D02*
X121217731Y-58874819D01*
X121217731Y-58874819D02*
X121312969Y-58827200D01*
X121312969Y-58827200D02*
X121360588Y-58779580D01*
X120408207Y-57874819D02*
X119789160Y-57874819D01*
X119789160Y-57874819D02*
X120122493Y-58255771D01*
X120122493Y-58255771D02*
X119979636Y-58255771D01*
X119979636Y-58255771D02*
X119884398Y-58303390D01*
X119884398Y-58303390D02*
X119836779Y-58351009D01*
X119836779Y-58351009D02*
X119789160Y-58446247D01*
X119789160Y-58446247D02*
X119789160Y-58684342D01*
X119789160Y-58684342D02*
X119836779Y-58779580D01*
X119836779Y-58779580D02*
X119884398Y-58827200D01*
X119884398Y-58827200D02*
X119979636Y-58874819D01*
X119979636Y-58874819D02*
X120265350Y-58874819D01*
X120265350Y-58874819D02*
X120360588Y-58827200D01*
X120360588Y-58827200D02*
X120408207Y-58779580D01*
D12*
%TO.C,REF\u002A\u002A*%
X140709353Y-73787673D02*
X140724123Y-73811386D01*
X140730933Y-73834400D01*
X140725051Y-73855406D01*
X140709353Y-73881127D01*
X140687773Y-73907778D01*
X140040316Y-73907778D01*
X140018736Y-73881127D01*
X140001261Y-73849767D01*
X140000425Y-73813966D01*
X140020918Y-73782528D01*
X140025584Y-73778652D01*
X140035051Y-73773186D01*
X140048733Y-73768979D01*
X140069252Y-73765867D01*
X140099232Y-73763687D01*
X140141296Y-73762276D01*
X140198068Y-73761471D01*
X140272170Y-73761107D01*
X140366227Y-73761022D01*
X140687773Y-73761022D01*
X140709353Y-73787673D01*
G36*
X140709353Y-73787673D02*
G01*
X140724123Y-73811386D01*
X140730933Y-73834400D01*
X140725051Y-73855406D01*
X140709353Y-73881127D01*
X140687773Y-73907778D01*
X140040316Y-73907778D01*
X140018736Y-73881127D01*
X140001261Y-73849767D01*
X140000425Y-73813966D01*
X140020918Y-73782528D01*
X140025584Y-73778652D01*
X140035051Y-73773186D01*
X140048733Y-73768979D01*
X140069252Y-73765867D01*
X140099232Y-73763687D01*
X140141296Y-73762276D01*
X140198068Y-73761471D01*
X140272170Y-73761107D01*
X140366227Y-73761022D01*
X140687773Y-73761022D01*
X140709353Y-73787673D01*
G37*
X140439706Y-80901284D02*
X140517615Y-80901539D01*
X140577625Y-80902183D01*
X140622352Y-80903387D01*
X140654415Y-80905324D01*
X140676429Y-80908164D01*
X140691013Y-80912079D01*
X140700782Y-80917242D01*
X140708355Y-80923822D01*
X140727377Y-80953006D01*
X140726537Y-80986137D01*
X140703224Y-81020291D01*
X140675515Y-81048000D01*
X140362463Y-81048000D01*
X140278433Y-81047959D01*
X140204211Y-81047701D01*
X140147459Y-81047030D01*
X140105488Y-81045752D01*
X140075611Y-81043673D01*
X140055139Y-81040599D01*
X140041386Y-81036334D01*
X140031663Y-81030684D01*
X140023283Y-81023455D01*
X140001819Y-80991991D01*
X140000053Y-80956826D01*
X140019733Y-80923822D01*
X140025602Y-80918516D01*
X140034686Y-80913066D01*
X140048027Y-80908900D01*
X140068243Y-80905846D01*
X140097951Y-80903732D01*
X140139768Y-80902386D01*
X140196311Y-80901638D01*
X140270198Y-80901314D01*
X140364044Y-80901245D01*
X140439706Y-80901284D01*
G36*
X140439706Y-80901284D02*
G01*
X140517615Y-80901539D01*
X140577625Y-80902183D01*
X140622352Y-80903387D01*
X140654415Y-80905324D01*
X140676429Y-80908164D01*
X140691013Y-80912079D01*
X140700782Y-80917242D01*
X140708355Y-80923822D01*
X140727377Y-80953006D01*
X140726537Y-80986137D01*
X140703224Y-81020291D01*
X140675515Y-81048000D01*
X140362463Y-81048000D01*
X140278433Y-81047959D01*
X140204211Y-81047701D01*
X140147459Y-81047030D01*
X140105488Y-81045752D01*
X140075611Y-81043673D01*
X140055139Y-81040599D01*
X140041386Y-81036334D01*
X140031663Y-81030684D01*
X140023283Y-81023455D01*
X140001819Y-80991991D01*
X140000053Y-80956826D01*
X140019733Y-80923822D01*
X140025602Y-80918516D01*
X140034686Y-80913066D01*
X140048027Y-80908900D01*
X140068243Y-80905846D01*
X140097951Y-80903732D01*
X140139768Y-80902386D01*
X140196311Y-80901638D01*
X140270198Y-80901314D01*
X140364044Y-80901245D01*
X140439706Y-80901284D01*
G37*
X145586470Y-79883136D02*
X145682780Y-79909399D01*
X145771506Y-79954418D01*
X145846581Y-80015373D01*
X145906359Y-80090184D01*
X145949191Y-80176768D01*
X145973429Y-80273043D01*
X145977424Y-80376928D01*
X145967150Y-80454562D01*
X145939947Y-80537313D01*
X145894516Y-80612406D01*
X145828698Y-80684298D01*
X145784433Y-80722846D01*
X145726039Y-80762256D01*
X145665414Y-80787446D01*
X145596135Y-80800861D01*
X145511778Y-80804948D01*
X145465693Y-80804669D01*
X145424550Y-80802460D01*
X145392418Y-80796894D01*
X145361878Y-80786586D01*
X145325511Y-80770148D01*
X145298272Y-80756200D01*
X145212571Y-80697665D01*
X145143383Y-80625619D01*
X145092259Y-80541947D01*
X145060750Y-80448531D01*
X145053775Y-80415434D01*
X145046906Y-80374960D01*
X145045081Y-80341999D01*
X145048053Y-80307698D01*
X145055574Y-80263200D01*
X145067998Y-80211934D01*
X145105888Y-80121434D01*
X145160164Y-80042345D01*
X145228230Y-79976528D01*
X145307489Y-79925840D01*
X145395346Y-79892140D01*
X145489205Y-79877286D01*
X145586470Y-79883136D01*
G36*
X145586470Y-79883136D02*
G01*
X145682780Y-79909399D01*
X145771506Y-79954418D01*
X145846581Y-80015373D01*
X145906359Y-80090184D01*
X145949191Y-80176768D01*
X145973429Y-80273043D01*
X145977424Y-80376928D01*
X145967150Y-80454562D01*
X145939947Y-80537313D01*
X145894516Y-80612406D01*
X145828698Y-80684298D01*
X145784433Y-80722846D01*
X145726039Y-80762256D01*
X145665414Y-80787446D01*
X145596135Y-80800861D01*
X145511778Y-80804948D01*
X145465693Y-80804669D01*
X145424550Y-80802460D01*
X145392418Y-80796894D01*
X145361878Y-80786586D01*
X145325511Y-80770148D01*
X145298272Y-80756200D01*
X145212571Y-80697665D01*
X145143383Y-80625619D01*
X145092259Y-80541947D01*
X145060750Y-80448531D01*
X145053775Y-80415434D01*
X145046906Y-80374960D01*
X145045081Y-80341999D01*
X145048053Y-80307698D01*
X145055574Y-80263200D01*
X145067998Y-80211934D01*
X145105888Y-80121434D01*
X145160164Y-80042345D01*
X145228230Y-79976528D01*
X145307489Y-79925840D01*
X145395346Y-79892140D01*
X145489205Y-79877286D01*
X145586470Y-79883136D01*
G37*
X140678642Y-72738543D02*
X140711178Y-72764187D01*
X140714895Y-72769129D01*
X140719731Y-72779338D01*
X140723494Y-72794764D01*
X140726317Y-72817886D01*
X140728330Y-72851183D01*
X140729667Y-72897137D01*
X140730458Y-72958228D01*
X140730837Y-73036935D01*
X140730933Y-73135740D01*
X140730932Y-73155767D01*
X140730842Y-73249890D01*
X140730502Y-73324405D01*
X140729761Y-73381811D01*
X140728465Y-73424611D01*
X140726463Y-73455304D01*
X140723604Y-73476391D01*
X140719734Y-73490373D01*
X140714702Y-73499750D01*
X140708355Y-73507022D01*
X140675638Y-73525828D01*
X140638061Y-73527275D01*
X140604822Y-73510917D01*
X140603369Y-73509557D01*
X140595008Y-73498354D01*
X140589453Y-73481252D01*
X140586160Y-73454082D01*
X140584582Y-73412678D01*
X140584178Y-73352873D01*
X140584178Y-73213511D01*
X140320411Y-73213511D01*
X140244583Y-73213436D01*
X140177917Y-73213028D01*
X140128133Y-73212046D01*
X140092216Y-73210250D01*
X140067150Y-73207399D01*
X140049919Y-73203253D01*
X140037508Y-73197571D01*
X140026900Y-73190114D01*
X140024094Y-73187824D01*
X140001452Y-73156646D01*
X139999888Y-73122266D01*
X140019733Y-73089334D01*
X140027809Y-73082355D01*
X140038407Y-73076883D01*
X140054251Y-73072863D01*
X140078227Y-73070072D01*
X140113226Y-73068288D01*
X140162136Y-73067289D01*
X140227846Y-73066852D01*
X140313244Y-73066756D01*
X140584178Y-73066756D01*
X140584178Y-72920820D01*
X140584179Y-72909720D01*
X140584404Y-72853202D01*
X140585543Y-72814358D01*
X140588343Y-72788965D01*
X140593550Y-72772804D01*
X140601911Y-72761652D01*
X140614174Y-72751289D01*
X140644862Y-72735441D01*
X140678642Y-72738543D01*
G36*
X140678642Y-72738543D02*
G01*
X140711178Y-72764187D01*
X140714895Y-72769129D01*
X140719731Y-72779338D01*
X140723494Y-72794764D01*
X140726317Y-72817886D01*
X140728330Y-72851183D01*
X140729667Y-72897137D01*
X140730458Y-72958228D01*
X140730837Y-73036935D01*
X140730933Y-73135740D01*
X140730932Y-73155767D01*
X140730842Y-73249890D01*
X140730502Y-73324405D01*
X140729761Y-73381811D01*
X140728465Y-73424611D01*
X140726463Y-73455304D01*
X140723604Y-73476391D01*
X140719734Y-73490373D01*
X140714702Y-73499750D01*
X140708355Y-73507022D01*
X140675638Y-73525828D01*
X140638061Y-73527275D01*
X140604822Y-73510917D01*
X140603369Y-73509557D01*
X140595008Y-73498354D01*
X140589453Y-73481252D01*
X140586160Y-73454082D01*
X140584582Y-73412678D01*
X140584178Y-73352873D01*
X140584178Y-73213511D01*
X140320411Y-73213511D01*
X140244583Y-73213436D01*
X140177917Y-73213028D01*
X140128133Y-73212046D01*
X140092216Y-73210250D01*
X140067150Y-73207399D01*
X140049919Y-73203253D01*
X140037508Y-73197571D01*
X140026900Y-73190114D01*
X140024094Y-73187824D01*
X140001452Y-73156646D01*
X139999888Y-73122266D01*
X140019733Y-73089334D01*
X140027809Y-73082355D01*
X140038407Y-73076883D01*
X140054251Y-73072863D01*
X140078227Y-73070072D01*
X140113226Y-73068288D01*
X140162136Y-73067289D01*
X140227846Y-73066852D01*
X140313244Y-73066756D01*
X140584178Y-73066756D01*
X140584178Y-72920820D01*
X140584179Y-72909720D01*
X140584404Y-72853202D01*
X140585543Y-72814358D01*
X140588343Y-72788965D01*
X140593550Y-72772804D01*
X140601911Y-72761652D01*
X140614174Y-72751289D01*
X140644862Y-72735441D01*
X140678642Y-72738543D01*
G37*
X140703224Y-71739798D02*
X140725467Y-71771177D01*
X140728156Y-71804406D01*
X140708355Y-71836267D01*
X140698585Y-71844553D01*
X140682693Y-71851965D01*
X140658725Y-71856302D01*
X140621852Y-71858338D01*
X140567244Y-71858845D01*
X140448711Y-71858845D01*
X140448711Y-72355556D01*
X140564224Y-72355556D01*
X140615922Y-72355994D01*
X140650446Y-72357958D01*
X140673022Y-72362474D01*
X140688874Y-72370567D01*
X140703224Y-72383265D01*
X140725467Y-72414643D01*
X140728156Y-72447872D01*
X140708355Y-72479734D01*
X140702165Y-72485366D01*
X140693959Y-72490456D01*
X140682183Y-72494543D01*
X140664724Y-72497721D01*
X140639470Y-72500087D01*
X140604310Y-72501738D01*
X140557131Y-72502769D01*
X140495823Y-72503277D01*
X140418273Y-72503359D01*
X140322369Y-72503109D01*
X140206000Y-72502625D01*
X140191825Y-72502557D01*
X140130063Y-72501971D01*
X140086380Y-72500648D01*
X140056999Y-72498103D01*
X140038145Y-72493848D01*
X140026041Y-72487396D01*
X140016911Y-72478262D01*
X139999494Y-72444804D01*
X140002396Y-72409856D01*
X140026900Y-72378953D01*
X140040103Y-72369944D01*
X140058639Y-72362492D01*
X140084667Y-72358124D01*
X140123213Y-72356069D01*
X140179300Y-72355556D01*
X140301955Y-72355556D01*
X140301955Y-71858845D01*
X140167129Y-71858845D01*
X140131338Y-71858772D01*
X140085008Y-71858009D01*
X140054474Y-71855833D01*
X140035443Y-71851536D01*
X140023626Y-71844412D01*
X140014729Y-71833755D01*
X139999659Y-71801504D01*
X140002327Y-71766217D01*
X140026900Y-71735486D01*
X140033155Y-71730831D01*
X140043679Y-71724895D01*
X140057609Y-71720364D01*
X140077683Y-71717048D01*
X140106640Y-71714759D01*
X140147220Y-71713308D01*
X140202160Y-71712505D01*
X140274201Y-71712162D01*
X140366080Y-71712089D01*
X140675515Y-71712089D01*
X140703224Y-71739798D01*
G36*
X140703224Y-71739798D02*
G01*
X140725467Y-71771177D01*
X140728156Y-71804406D01*
X140708355Y-71836267D01*
X140698585Y-71844553D01*
X140682693Y-71851965D01*
X140658725Y-71856302D01*
X140621852Y-71858338D01*
X140567244Y-71858845D01*
X140448711Y-71858845D01*
X140448711Y-72355556D01*
X140564224Y-72355556D01*
X140615922Y-72355994D01*
X140650446Y-72357958D01*
X140673022Y-72362474D01*
X140688874Y-72370567D01*
X140703224Y-72383265D01*
X140725467Y-72414643D01*
X140728156Y-72447872D01*
X140708355Y-72479734D01*
X140702165Y-72485366D01*
X140693959Y-72490456D01*
X140682183Y-72494543D01*
X140664724Y-72497721D01*
X140639470Y-72500087D01*
X140604310Y-72501738D01*
X140557131Y-72502769D01*
X140495823Y-72503277D01*
X140418273Y-72503359D01*
X140322369Y-72503109D01*
X140206000Y-72502625D01*
X140191825Y-72502557D01*
X140130063Y-72501971D01*
X140086380Y-72500648D01*
X140056999Y-72498103D01*
X140038145Y-72493848D01*
X140026041Y-72487396D01*
X140016911Y-72478262D01*
X139999494Y-72444804D01*
X140002396Y-72409856D01*
X140026900Y-72378953D01*
X140040103Y-72369944D01*
X140058639Y-72362492D01*
X140084667Y-72358124D01*
X140123213Y-72356069D01*
X140179300Y-72355556D01*
X140301955Y-72355556D01*
X140301955Y-71858845D01*
X140167129Y-71858845D01*
X140131338Y-71858772D01*
X140085008Y-71858009D01*
X140054474Y-71855833D01*
X140035443Y-71851536D01*
X140023626Y-71844412D01*
X140014729Y-71833755D01*
X139999659Y-71801504D01*
X140002327Y-71766217D01*
X140026900Y-71735486D01*
X140033155Y-71730831D01*
X140043679Y-71724895D01*
X140057609Y-71720364D01*
X140077683Y-71717048D01*
X140106640Y-71714759D01*
X140147220Y-71713308D01*
X140202160Y-71712505D01*
X140274201Y-71712162D01*
X140366080Y-71712089D01*
X140675515Y-71712089D01*
X140703224Y-71739798D01*
G37*
X140422517Y-76395399D02*
X140484649Y-76419541D01*
X140486342Y-76420337D01*
X140555764Y-76460788D01*
X140612362Y-76511473D01*
X140656930Y-76574198D01*
X140690259Y-76650774D01*
X140713139Y-76743009D01*
X140726364Y-76852712D01*
X140730725Y-76981691D01*
X140730730Y-76985263D01*
X140730590Y-77045283D01*
X140729554Y-77087214D01*
X140726960Y-77115328D01*
X140722147Y-77133897D01*
X140714456Y-77147194D01*
X140703224Y-77159491D01*
X140675515Y-77187200D01*
X140366080Y-77187200D01*
X140304474Y-77187175D01*
X140225689Y-77186950D01*
X140164979Y-77186332D01*
X140143911Y-77185775D01*
X140119604Y-77185133D01*
X140086825Y-77183163D01*
X140063905Y-77180235D01*
X140048103Y-77176158D01*
X140036681Y-77170743D01*
X140026900Y-77163803D01*
X139997155Y-77140406D01*
X139997749Y-76974714D01*
X139998047Y-76939918D01*
X139998209Y-76935274D01*
X140143911Y-76935274D01*
X140143911Y-77029156D01*
X140584178Y-77029156D01*
X140583730Y-76941667D01*
X140581254Y-76874747D01*
X140570002Y-76782349D01*
X140550463Y-76703034D01*
X140523489Y-76641060D01*
X140502760Y-76610120D01*
X140472994Y-76582000D01*
X140430566Y-76558660D01*
X140414600Y-76551533D01*
X140382098Y-76539709D01*
X140357667Y-76537279D01*
X140332939Y-76542892D01*
X140317061Y-76548618D01*
X140257153Y-76581548D01*
X140211400Y-76628886D01*
X140178264Y-76692652D01*
X140156210Y-76774861D01*
X140155708Y-76777655D01*
X140149745Y-76823940D01*
X140145517Y-76880336D01*
X140143911Y-76935274D01*
X139998209Y-76935274D01*
X140001478Y-76841435D01*
X140009161Y-76760473D01*
X140021718Y-76693379D01*
X140039773Y-76636496D01*
X140063948Y-76586169D01*
X140065865Y-76582810D01*
X140102583Y-76524998D01*
X140139549Y-76482644D01*
X140183034Y-76449828D01*
X140239311Y-76420628D01*
X140248927Y-76416346D01*
X140312113Y-76393769D01*
X140367491Y-76386797D01*
X140422517Y-76395399D01*
G36*
X140422517Y-76395399D02*
G01*
X140484649Y-76419541D01*
X140486342Y-76420337D01*
X140555764Y-76460788D01*
X140612362Y-76511473D01*
X140656930Y-76574198D01*
X140690259Y-76650774D01*
X140713139Y-76743009D01*
X140726364Y-76852712D01*
X140730725Y-76981691D01*
X140730730Y-76985263D01*
X140730590Y-77045283D01*
X140729554Y-77087214D01*
X140726960Y-77115328D01*
X140722147Y-77133897D01*
X140714456Y-77147194D01*
X140703224Y-77159491D01*
X140675515Y-77187200D01*
X140366080Y-77187200D01*
X140304474Y-77187175D01*
X140225689Y-77186950D01*
X140164979Y-77186332D01*
X140143911Y-77185775D01*
X140119604Y-77185133D01*
X140086825Y-77183163D01*
X140063905Y-77180235D01*
X140048103Y-77176158D01*
X140036681Y-77170743D01*
X140026900Y-77163803D01*
X139997155Y-77140406D01*
X139997749Y-76974714D01*
X139998047Y-76939918D01*
X139998209Y-76935274D01*
X140143911Y-76935274D01*
X140143911Y-77029156D01*
X140584178Y-77029156D01*
X140583730Y-76941667D01*
X140581254Y-76874747D01*
X140570002Y-76782349D01*
X140550463Y-76703034D01*
X140523489Y-76641060D01*
X140502760Y-76610120D01*
X140472994Y-76582000D01*
X140430566Y-76558660D01*
X140414600Y-76551533D01*
X140382098Y-76539709D01*
X140357667Y-76537279D01*
X140332939Y-76542892D01*
X140317061Y-76548618D01*
X140257153Y-76581548D01*
X140211400Y-76628886D01*
X140178264Y-76692652D01*
X140156210Y-76774861D01*
X140155708Y-76777655D01*
X140149745Y-76823940D01*
X140145517Y-76880336D01*
X140143911Y-76935274D01*
X139998209Y-76935274D01*
X140001478Y-76841435D01*
X140009161Y-76760473D01*
X140021718Y-76693379D01*
X140039773Y-76636496D01*
X140063948Y-76586169D01*
X140065865Y-76582810D01*
X140102583Y-76524998D01*
X140139549Y-76482644D01*
X140183034Y-76449828D01*
X140239311Y-76420628D01*
X140248927Y-76416346D01*
X140312113Y-76393769D01*
X140367491Y-76386797D01*
X140422517Y-76395399D01*
G37*
X140385261Y-83487679D02*
X140442677Y-83499991D01*
X140502587Y-83522520D01*
X140556637Y-83551750D01*
X140596468Y-83584167D01*
X140613490Y-83603708D01*
X140652678Y-83658420D01*
X140682807Y-83718723D01*
X140704768Y-83787919D01*
X140719450Y-83869311D01*
X140727741Y-83966200D01*
X140730533Y-84081889D01*
X140730934Y-84121371D01*
X140731347Y-84167082D01*
X140729543Y-84202883D01*
X140723261Y-84229974D01*
X140710241Y-84249556D01*
X140688222Y-84262830D01*
X140654945Y-84270998D01*
X140608149Y-84275260D01*
X140584178Y-84275857D01*
X140545573Y-84276817D01*
X140464959Y-84276870D01*
X140364044Y-84276622D01*
X140288383Y-84276583D01*
X140210474Y-84276328D01*
X140150464Y-84275684D01*
X140105736Y-84274480D01*
X140073674Y-84272543D01*
X140051660Y-84269703D01*
X140037076Y-84265788D01*
X140027306Y-84260626D01*
X140019733Y-84254045D01*
X140013499Y-84247077D01*
X140006199Y-84234079D01*
X140001446Y-84214931D01*
X139998708Y-84185528D01*
X139997455Y-84141762D01*
X139997398Y-84129867D01*
X140143911Y-84129867D01*
X140584178Y-84129867D01*
X140584192Y-84053667D01*
X140584183Y-84050639D01*
X140582218Y-83999519D01*
X140577493Y-83939416D01*
X140570965Y-83882708D01*
X140561669Y-83832750D01*
X140535400Y-83757998D01*
X140496101Y-83700489D01*
X140443067Y-83658988D01*
X140391800Y-83637771D01*
X140343974Y-83636353D01*
X140293039Y-83654635D01*
X140247122Y-83684305D01*
X140204713Y-83731002D01*
X140174910Y-83792392D01*
X140155774Y-83871538D01*
X140155536Y-83873028D01*
X140149744Y-83921999D01*
X140145604Y-83980693D01*
X140143996Y-84036734D01*
X140143911Y-84129867D01*
X139997398Y-84129867D01*
X139997155Y-84079528D01*
X139997531Y-84030582D01*
X140001959Y-83923722D01*
X140012047Y-83834494D01*
X140028635Y-83759696D01*
X140052565Y-83696125D01*
X140084679Y-83640579D01*
X140125818Y-83589854D01*
X140131670Y-83583866D01*
X140180179Y-83546999D01*
X140240987Y-83515899D01*
X140305231Y-83494417D01*
X140364044Y-83486400D01*
X140385261Y-83487679D01*
G36*
X140385261Y-83487679D02*
G01*
X140442677Y-83499991D01*
X140502587Y-83522520D01*
X140556637Y-83551750D01*
X140596468Y-83584167D01*
X140613490Y-83603708D01*
X140652678Y-83658420D01*
X140682807Y-83718723D01*
X140704768Y-83787919D01*
X140719450Y-83869311D01*
X140727741Y-83966200D01*
X140730533Y-84081889D01*
X140730934Y-84121371D01*
X140731347Y-84167082D01*
X140729543Y-84202883D01*
X140723261Y-84229974D01*
X140710241Y-84249556D01*
X140688222Y-84262830D01*
X140654945Y-84270998D01*
X140608149Y-84275260D01*
X140584178Y-84275857D01*
X140545573Y-84276817D01*
X140464959Y-84276870D01*
X140364044Y-84276622D01*
X140288383Y-84276583D01*
X140210474Y-84276328D01*
X140150464Y-84275684D01*
X140105736Y-84274480D01*
X140073674Y-84272543D01*
X140051660Y-84269703D01*
X140037076Y-84265788D01*
X140027306Y-84260626D01*
X140019733Y-84254045D01*
X140013499Y-84247077D01*
X140006199Y-84234079D01*
X140001446Y-84214931D01*
X139998708Y-84185528D01*
X139997455Y-84141762D01*
X139997398Y-84129867D01*
X140143911Y-84129867D01*
X140584178Y-84129867D01*
X140584192Y-84053667D01*
X140584183Y-84050639D01*
X140582218Y-83999519D01*
X140577493Y-83939416D01*
X140570965Y-83882708D01*
X140561669Y-83832750D01*
X140535400Y-83757998D01*
X140496101Y-83700489D01*
X140443067Y-83658988D01*
X140391800Y-83637771D01*
X140343974Y-83636353D01*
X140293039Y-83654635D01*
X140247122Y-83684305D01*
X140204713Y-83731002D01*
X140174910Y-83792392D01*
X140155774Y-83871538D01*
X140155536Y-83873028D01*
X140149744Y-83921999D01*
X140145604Y-83980693D01*
X140143996Y-84036734D01*
X140143911Y-84129867D01*
X139997398Y-84129867D01*
X139997155Y-84079528D01*
X139997531Y-84030582D01*
X140001959Y-83923722D01*
X140012047Y-83834494D01*
X140028635Y-83759696D01*
X140052565Y-83696125D01*
X140084679Y-83640579D01*
X140125818Y-83589854D01*
X140131670Y-83583866D01*
X140180179Y-83546999D01*
X140240987Y-83515899D01*
X140305231Y-83494417D01*
X140364044Y-83486400D01*
X140385261Y-83487679D01*
G37*
X140280221Y-78588435D02*
X140372849Y-78589352D01*
X140687801Y-78592667D01*
X140709367Y-78619318D01*
X140725559Y-78645383D01*
X140728330Y-78678241D01*
X140709377Y-78712772D01*
X140705792Y-78717084D01*
X140697263Y-78725216D01*
X140685671Y-78731245D01*
X140667765Y-78735606D01*
X140640294Y-78738734D01*
X140600006Y-78741063D01*
X140543649Y-78743029D01*
X140467971Y-78745067D01*
X140248122Y-78750711D01*
X140411916Y-78931334D01*
X140490549Y-79018072D01*
X140558942Y-79093843D01*
X140614292Y-79155980D01*
X140657662Y-79206078D01*
X140690119Y-79245735D01*
X140712727Y-79276548D01*
X140726552Y-79300114D01*
X140732657Y-79318030D01*
X140732108Y-79331893D01*
X140725971Y-79343301D01*
X140715309Y-79353850D01*
X140701189Y-79365136D01*
X140695228Y-79369589D01*
X140684732Y-79375588D01*
X140670907Y-79380167D01*
X140651002Y-79383519D01*
X140622268Y-79385833D01*
X140581955Y-79387301D01*
X140527313Y-79388113D01*
X140455593Y-79388460D01*
X140364044Y-79388534D01*
X140305514Y-79388511D01*
X140226427Y-79388292D01*
X140165484Y-79387683D01*
X140119938Y-79386492D01*
X140087037Y-79384529D01*
X140064032Y-79381603D01*
X140048174Y-79377523D01*
X140036714Y-79372097D01*
X140026900Y-79365136D01*
X140002507Y-79334708D01*
X139999628Y-79299765D01*
X140018718Y-79262784D01*
X140022193Y-79258600D01*
X140030721Y-79250424D01*
X140042272Y-79244364D01*
X140060104Y-79239981D01*
X140087476Y-79236839D01*
X140127646Y-79234502D01*
X140183872Y-79232531D01*
X140259411Y-79230489D01*
X140478542Y-79224845D01*
X140237901Y-78959556D01*
X140171125Y-78885722D01*
X140113009Y-78820542D01*
X140068051Y-78768348D01*
X140035129Y-78727273D01*
X140013121Y-78695455D01*
X140000906Y-78671026D01*
X139997361Y-78652124D01*
X140001364Y-78636883D01*
X140011793Y-78623439D01*
X140027526Y-78609927D01*
X140036009Y-78603682D01*
X140046587Y-78598050D01*
X140060745Y-78593839D01*
X140081197Y-78590887D01*
X140110658Y-78589032D01*
X140151839Y-78588113D01*
X140207456Y-78587968D01*
X140280221Y-78588435D01*
G36*
X140280221Y-78588435D02*
G01*
X140372849Y-78589352D01*
X140687801Y-78592667D01*
X140709367Y-78619318D01*
X140725559Y-78645383D01*
X140728330Y-78678241D01*
X140709377Y-78712772D01*
X140705792Y-78717084D01*
X140697263Y-78725216D01*
X140685671Y-78731245D01*
X140667765Y-78735606D01*
X140640294Y-78738734D01*
X140600006Y-78741063D01*
X140543649Y-78743029D01*
X140467971Y-78745067D01*
X140248122Y-78750711D01*
X140411916Y-78931334D01*
X140490549Y-79018072D01*
X140558942Y-79093843D01*
X140614292Y-79155980D01*
X140657662Y-79206078D01*
X140690119Y-79245735D01*
X140712727Y-79276548D01*
X140726552Y-79300114D01*
X140732657Y-79318030D01*
X140732108Y-79331893D01*
X140725971Y-79343301D01*
X140715309Y-79353850D01*
X140701189Y-79365136D01*
X140695228Y-79369589D01*
X140684732Y-79375588D01*
X140670907Y-79380167D01*
X140651002Y-79383519D01*
X140622268Y-79385833D01*
X140581955Y-79387301D01*
X140527313Y-79388113D01*
X140455593Y-79388460D01*
X140364044Y-79388534D01*
X140305514Y-79388511D01*
X140226427Y-79388292D01*
X140165484Y-79387683D01*
X140119938Y-79386492D01*
X140087037Y-79384529D01*
X140064032Y-79381603D01*
X140048174Y-79377523D01*
X140036714Y-79372097D01*
X140026900Y-79365136D01*
X140002507Y-79334708D01*
X139999628Y-79299765D01*
X140018718Y-79262784D01*
X140022193Y-79258600D01*
X140030721Y-79250424D01*
X140042272Y-79244364D01*
X140060104Y-79239981D01*
X140087476Y-79236839D01*
X140127646Y-79234502D01*
X140183872Y-79232531D01*
X140259411Y-79230489D01*
X140478542Y-79224845D01*
X140237901Y-78959556D01*
X140171125Y-78885722D01*
X140113009Y-78820542D01*
X140068051Y-78768348D01*
X140035129Y-78727273D01*
X140013121Y-78695455D01*
X140000906Y-78671026D01*
X139997361Y-78652124D01*
X140001364Y-78636883D01*
X140011793Y-78623439D01*
X140027526Y-78609927D01*
X140036009Y-78603682D01*
X140046587Y-78598050D01*
X140060745Y-78593839D01*
X140081197Y-78590887D01*
X140110658Y-78589032D01*
X140151839Y-78588113D01*
X140207456Y-78587968D01*
X140280221Y-78588435D01*
G37*
X140292162Y-79728060D02*
X140339544Y-79732780D01*
X140371647Y-79744470D01*
X140391200Y-79766239D01*
X140400930Y-79801198D01*
X140403567Y-79852456D01*
X140401839Y-79923123D01*
X140398827Y-79971743D01*
X140390634Y-80021939D01*
X140376581Y-80054433D01*
X140355346Y-80071892D01*
X140325606Y-80076983D01*
X140321064Y-80076877D01*
X140286270Y-80068175D01*
X140262853Y-80044165D01*
X140249653Y-80002900D01*
X140245511Y-79942431D01*
X140245511Y-79873956D01*
X140207159Y-79873956D01*
X140198024Y-79874006D01*
X140180773Y-79876227D01*
X140170479Y-79885494D01*
X140163541Y-79906875D01*
X140156359Y-79945436D01*
X140155425Y-79950910D01*
X140145522Y-80047860D01*
X140148441Y-80137852D01*
X140163171Y-80218760D01*
X140188701Y-80288459D01*
X140224022Y-80344824D01*
X140268121Y-80385729D01*
X140319988Y-80409051D01*
X140378612Y-80412663D01*
X140407506Y-80407145D01*
X140463396Y-80380461D01*
X140509055Y-80334273D01*
X140543892Y-80269291D01*
X140567310Y-80186229D01*
X140571759Y-80161555D01*
X140582258Y-80072226D01*
X140581029Y-79992419D01*
X140568094Y-79914326D01*
X140561304Y-79879183D01*
X140560287Y-79833745D01*
X140572818Y-79802430D01*
X140599605Y-79782277D01*
X140627852Y-79775893D01*
X140659076Y-79785379D01*
X140672501Y-79794708D01*
X140696033Y-79828943D01*
X140713905Y-79881565D01*
X140725401Y-79950081D01*
X140729808Y-80032000D01*
X140725821Y-80129150D01*
X140709506Y-80235157D01*
X140681455Y-80328969D01*
X140642548Y-80407765D01*
X140593666Y-80468719D01*
X140560805Y-80494789D01*
X140511606Y-80524297D01*
X140457748Y-80549568D01*
X140406581Y-80567218D01*
X140365456Y-80573858D01*
X140345741Y-80572298D01*
X140294408Y-80559357D01*
X140237882Y-80536194D01*
X140183965Y-80506302D01*
X140140461Y-80473173D01*
X140130113Y-80462977D01*
X140078338Y-80395892D01*
X140038446Y-80315766D01*
X140014044Y-80229556D01*
X140005932Y-80174592D01*
X139999327Y-80081139D01*
X140001414Y-79991358D01*
X140011660Y-79908869D01*
X140029530Y-79837286D01*
X140054492Y-79780228D01*
X140086012Y-79741311D01*
X140087988Y-79739936D01*
X140113214Y-79732848D01*
X140160465Y-79728609D01*
X140229929Y-79727200D01*
X140292162Y-79728060D01*
G36*
X140292162Y-79728060D02*
G01*
X140339544Y-79732780D01*
X140371647Y-79744470D01*
X140391200Y-79766239D01*
X140400930Y-79801198D01*
X140403567Y-79852456D01*
X140401839Y-79923123D01*
X140398827Y-79971743D01*
X140390634Y-80021939D01*
X140376581Y-80054433D01*
X140355346Y-80071892D01*
X140325606Y-80076983D01*
X140321064Y-80076877D01*
X140286270Y-80068175D01*
X140262853Y-80044165D01*
X140249653Y-80002900D01*
X140245511Y-79942431D01*
X140245511Y-79873956D01*
X140207159Y-79873956D01*
X140198024Y-79874006D01*
X140180773Y-79876227D01*
X140170479Y-79885494D01*
X140163541Y-79906875D01*
X140156359Y-79945436D01*
X140155425Y-79950910D01*
X140145522Y-80047860D01*
X140148441Y-80137852D01*
X140163171Y-80218760D01*
X140188701Y-80288459D01*
X140224022Y-80344824D01*
X140268121Y-80385729D01*
X140319988Y-80409051D01*
X140378612Y-80412663D01*
X140407506Y-80407145D01*
X140463396Y-80380461D01*
X140509055Y-80334273D01*
X140543892Y-80269291D01*
X140567310Y-80186229D01*
X140571759Y-80161555D01*
X140582258Y-80072226D01*
X140581029Y-79992419D01*
X140568094Y-79914326D01*
X140561304Y-79879183D01*
X140560287Y-79833745D01*
X140572818Y-79802430D01*
X140599605Y-79782277D01*
X140627852Y-79775893D01*
X140659076Y-79785379D01*
X140672501Y-79794708D01*
X140696033Y-79828943D01*
X140713905Y-79881565D01*
X140725401Y-79950081D01*
X140729808Y-80032000D01*
X140725821Y-80129150D01*
X140709506Y-80235157D01*
X140681455Y-80328969D01*
X140642548Y-80407765D01*
X140593666Y-80468719D01*
X140560805Y-80494789D01*
X140511606Y-80524297D01*
X140457748Y-80549568D01*
X140406581Y-80567218D01*
X140365456Y-80573858D01*
X140345741Y-80572298D01*
X140294408Y-80559357D01*
X140237882Y-80536194D01*
X140183965Y-80506302D01*
X140140461Y-80473173D01*
X140130113Y-80462977D01*
X140078338Y-80395892D01*
X140038446Y-80315766D01*
X140014044Y-80229556D01*
X140005932Y-80174592D01*
X139999327Y-80081139D01*
X140001414Y-79991358D01*
X140011660Y-79908869D01*
X140029530Y-79837286D01*
X140054492Y-79780228D01*
X140086012Y-79741311D01*
X140087988Y-79739936D01*
X140113214Y-79732848D01*
X140160465Y-79728609D01*
X140229929Y-79727200D01*
X140292162Y-79728060D01*
G37*
X140661030Y-77525873D02*
X140681061Y-77527027D01*
X140696854Y-77531824D01*
X140708910Y-77542632D01*
X140717733Y-77561817D01*
X140723825Y-77591745D01*
X140727689Y-77634783D01*
X140729826Y-77693299D01*
X140730740Y-77769657D01*
X140730933Y-77866226D01*
X140730933Y-78156406D01*
X140701189Y-78179803D01*
X140694505Y-78184752D01*
X140683934Y-78190596D01*
X140669847Y-78195057D01*
X140649522Y-78198321D01*
X140620235Y-78200574D01*
X140579263Y-78202002D01*
X140523883Y-78202792D01*
X140451372Y-78203129D01*
X140359006Y-78203200D01*
X140293089Y-78203171D01*
X140214772Y-78202939D01*
X140154504Y-78202319D01*
X140109607Y-78201126D01*
X140077398Y-78199179D01*
X140055200Y-78196294D01*
X140040331Y-78192288D01*
X140030111Y-78186979D01*
X140021862Y-78180183D01*
X140017205Y-78175668D01*
X140010718Y-78167438D01*
X140005806Y-78156078D01*
X140002251Y-78138810D01*
X139999833Y-78112855D01*
X139998333Y-78075436D01*
X139997533Y-78023773D01*
X139997213Y-77955089D01*
X139997155Y-77866606D01*
X139997162Y-77846931D01*
X139997428Y-77759906D01*
X139998194Y-77692254D01*
X139999608Y-77641299D01*
X140001820Y-77604367D01*
X140004978Y-77578783D01*
X140009231Y-77561871D01*
X140014729Y-77550957D01*
X140024715Y-77540464D01*
X140055832Y-77527203D01*
X140091720Y-77528386D01*
X140123267Y-77544550D01*
X140125543Y-77546739D01*
X140131811Y-77555427D01*
X140136477Y-77568769D01*
X140139773Y-77589752D01*
X140141932Y-77621363D01*
X140143186Y-77666590D01*
X140143769Y-77728420D01*
X140143911Y-77809839D01*
X140143911Y-78056445D01*
X140301955Y-78056445D01*
X140301955Y-77894006D01*
X140302036Y-77858338D01*
X140302833Y-77802568D01*
X140304838Y-77763430D01*
X140308479Y-77736976D01*
X140314188Y-77719259D01*
X140322393Y-77706329D01*
X140325577Y-77702686D01*
X140356552Y-77684278D01*
X140392888Y-77683644D01*
X140426507Y-77701183D01*
X140426576Y-77701245D01*
X140435202Y-77710916D01*
X140441258Y-77724209D01*
X140445189Y-77744917D01*
X140447444Y-77776828D01*
X140448469Y-77823734D01*
X140448711Y-77889424D01*
X140448711Y-78057571D01*
X140513622Y-78054186D01*
X140578533Y-78050800D01*
X140581586Y-77808723D01*
X140581914Y-77783707D01*
X140583394Y-77702087D01*
X140585778Y-77639768D01*
X140589773Y-77594154D01*
X140596087Y-77562652D01*
X140605426Y-77542667D01*
X140618497Y-77531604D01*
X140636008Y-77526869D01*
X140658665Y-77525867D01*
X140661030Y-77525873D01*
G36*
X140661030Y-77525873D02*
G01*
X140681061Y-77527027D01*
X140696854Y-77531824D01*
X140708910Y-77542632D01*
X140717733Y-77561817D01*
X140723825Y-77591745D01*
X140727689Y-77634783D01*
X140729826Y-77693299D01*
X140730740Y-77769657D01*
X140730933Y-77866226D01*
X140730933Y-78156406D01*
X140701189Y-78179803D01*
X140694505Y-78184752D01*
X140683934Y-78190596D01*
X140669847Y-78195057D01*
X140649522Y-78198321D01*
X140620235Y-78200574D01*
X140579263Y-78202002D01*
X140523883Y-78202792D01*
X140451372Y-78203129D01*
X140359006Y-78203200D01*
X140293089Y-78203171D01*
X140214772Y-78202939D01*
X140154504Y-78202319D01*
X140109607Y-78201126D01*
X140077398Y-78199179D01*
X140055200Y-78196294D01*
X140040331Y-78192288D01*
X140030111Y-78186979D01*
X140021862Y-78180183D01*
X140017205Y-78175668D01*
X140010718Y-78167438D01*
X140005806Y-78156078D01*
X140002251Y-78138810D01*
X139999833Y-78112855D01*
X139998333Y-78075436D01*
X139997533Y-78023773D01*
X139997213Y-77955089D01*
X139997155Y-77866606D01*
X139997162Y-77846931D01*
X139997428Y-77759906D01*
X139998194Y-77692254D01*
X139999608Y-77641299D01*
X140001820Y-77604367D01*
X140004978Y-77578783D01*
X140009231Y-77561871D01*
X140014729Y-77550957D01*
X140024715Y-77540464D01*
X140055832Y-77527203D01*
X140091720Y-77528386D01*
X140123267Y-77544550D01*
X140125543Y-77546739D01*
X140131811Y-77555427D01*
X140136477Y-77568769D01*
X140139773Y-77589752D01*
X140141932Y-77621363D01*
X140143186Y-77666590D01*
X140143769Y-77728420D01*
X140143911Y-77809839D01*
X140143911Y-78056445D01*
X140301955Y-78056445D01*
X140301955Y-77894006D01*
X140302036Y-77858338D01*
X140302833Y-77802568D01*
X140304838Y-77763430D01*
X140308479Y-77736976D01*
X140314188Y-77719259D01*
X140322393Y-77706329D01*
X140325577Y-77702686D01*
X140356552Y-77684278D01*
X140392888Y-77683644D01*
X140426507Y-77701183D01*
X140426576Y-77701245D01*
X140435202Y-77710916D01*
X140441258Y-77724209D01*
X140445189Y-77744917D01*
X140447444Y-77776828D01*
X140448469Y-77823734D01*
X140448711Y-77889424D01*
X140448711Y-78057571D01*
X140513622Y-78054186D01*
X140578533Y-78050800D01*
X140581586Y-77808723D01*
X140581914Y-77783707D01*
X140583394Y-77702087D01*
X140585778Y-77639768D01*
X140589773Y-77594154D01*
X140596087Y-77562652D01*
X140605426Y-77542667D01*
X140618497Y-77531604D01*
X140636008Y-77526869D01*
X140658665Y-77525867D01*
X140661030Y-77525873D01*
G37*
X140094440Y-82464610D02*
X140121333Y-82481689D01*
X140125941Y-82486668D01*
X140132228Y-82496443D01*
X140136854Y-82510559D01*
X140140070Y-82532054D01*
X140142130Y-82563968D01*
X140143288Y-82609342D01*
X140143798Y-82671213D01*
X140143911Y-82752622D01*
X140143911Y-83000978D01*
X140301955Y-83000978D01*
X140301955Y-82839801D01*
X140302101Y-82803983D01*
X140303824Y-82738359D01*
X140308259Y-82691118D01*
X140316363Y-82659383D01*
X140329094Y-82640277D01*
X140347408Y-82630923D01*
X140372262Y-82628445D01*
X140392518Y-82629242D01*
X140414344Y-82634494D01*
X140429696Y-82647288D01*
X140439691Y-82670628D01*
X140445447Y-82707517D01*
X140448081Y-82760959D01*
X140448711Y-82833958D01*
X140448711Y-83002105D01*
X140513622Y-82998719D01*
X140578533Y-82995334D01*
X140581582Y-82747617D01*
X140582461Y-82685026D01*
X140583905Y-82616565D01*
X140585836Y-82565661D01*
X140588486Y-82529408D01*
X140592090Y-82504901D01*
X140596879Y-82489235D01*
X140603087Y-82479506D01*
X140609490Y-82473491D01*
X140641172Y-82460482D01*
X140676858Y-82464043D01*
X140707916Y-82483818D01*
X140710839Y-82487069D01*
X140717190Y-82496049D01*
X140722043Y-82508153D01*
X140725597Y-82526159D01*
X140728054Y-82552847D01*
X140729615Y-82590997D01*
X140730482Y-82643386D01*
X140730854Y-82712794D01*
X140730933Y-82802001D01*
X140730917Y-82856734D01*
X140730725Y-82933831D01*
X140730140Y-82992777D01*
X140728949Y-83036364D01*
X140726936Y-83067383D01*
X140723888Y-83088625D01*
X140719591Y-83102882D01*
X140713828Y-83112945D01*
X140706388Y-83121606D01*
X140704707Y-83123391D01*
X140697168Y-83130635D01*
X140688150Y-83136277D01*
X140675016Y-83140517D01*
X140655128Y-83143556D01*
X140625849Y-83145594D01*
X140584542Y-83146830D01*
X140528569Y-83147465D01*
X140455293Y-83147700D01*
X140362077Y-83147734D01*
X140289287Y-83147697D01*
X140211111Y-83147448D01*
X140150897Y-83146812D01*
X140106018Y-83145615D01*
X140073848Y-83143684D01*
X140051761Y-83140846D01*
X140037130Y-83136927D01*
X140027330Y-83131755D01*
X140019733Y-83125156D01*
X140016556Y-83121822D01*
X140010446Y-83113300D01*
X140005771Y-83101298D01*
X140002341Y-83083087D01*
X139999964Y-83055940D01*
X139998448Y-83017129D01*
X139997602Y-82963924D01*
X139997235Y-82893598D01*
X139997155Y-82803422D01*
X139997167Y-82761314D01*
X139997349Y-82680167D01*
X139997902Y-82617675D01*
X139999018Y-82571109D01*
X140000887Y-82537741D01*
X140003702Y-82514844D01*
X140007654Y-82499688D01*
X140012934Y-82489546D01*
X140019733Y-82481689D01*
X140041333Y-82466963D01*
X140070533Y-82459111D01*
X140094440Y-82464610D01*
G36*
X140094440Y-82464610D02*
G01*
X140121333Y-82481689D01*
X140125941Y-82486668D01*
X140132228Y-82496443D01*
X140136854Y-82510559D01*
X140140070Y-82532054D01*
X140142130Y-82563968D01*
X140143288Y-82609342D01*
X140143798Y-82671213D01*
X140143911Y-82752622D01*
X140143911Y-83000978D01*
X140301955Y-83000978D01*
X140301955Y-82839801D01*
X140302101Y-82803983D01*
X140303824Y-82738359D01*
X140308259Y-82691118D01*
X140316363Y-82659383D01*
X140329094Y-82640277D01*
X140347408Y-82630923D01*
X140372262Y-82628445D01*
X140392518Y-82629242D01*
X140414344Y-82634494D01*
X140429696Y-82647288D01*
X140439691Y-82670628D01*
X140445447Y-82707517D01*
X140448081Y-82760959D01*
X140448711Y-82833958D01*
X140448711Y-83002105D01*
X140513622Y-82998719D01*
X140578533Y-82995334D01*
X140581582Y-82747617D01*
X140582461Y-82685026D01*
X140583905Y-82616565D01*
X140585836Y-82565661D01*
X140588486Y-82529408D01*
X140592090Y-82504901D01*
X140596879Y-82489235D01*
X140603087Y-82479506D01*
X140609490Y-82473491D01*
X140641172Y-82460482D01*
X140676858Y-82464043D01*
X140707916Y-82483818D01*
X140710839Y-82487069D01*
X140717190Y-82496049D01*
X140722043Y-82508153D01*
X140725597Y-82526159D01*
X140728054Y-82552847D01*
X140729615Y-82590997D01*
X140730482Y-82643386D01*
X140730854Y-82712794D01*
X140730933Y-82802001D01*
X140730917Y-82856734D01*
X140730725Y-82933831D01*
X140730140Y-82992777D01*
X140728949Y-83036364D01*
X140726936Y-83067383D01*
X140723888Y-83088625D01*
X140719591Y-83102882D01*
X140713828Y-83112945D01*
X140706388Y-83121606D01*
X140704707Y-83123391D01*
X140697168Y-83130635D01*
X140688150Y-83136277D01*
X140675016Y-83140517D01*
X140655128Y-83143556D01*
X140625849Y-83145594D01*
X140584542Y-83146830D01*
X140528569Y-83147465D01*
X140455293Y-83147700D01*
X140362077Y-83147734D01*
X140289287Y-83147697D01*
X140211111Y-83147448D01*
X140150897Y-83146812D01*
X140106018Y-83145615D01*
X140073848Y-83143684D01*
X140051761Y-83140846D01*
X140037130Y-83136927D01*
X140027330Y-83131755D01*
X140019733Y-83125156D01*
X140016556Y-83121822D01*
X140010446Y-83113300D01*
X140005771Y-83101298D01*
X140002341Y-83083087D01*
X139999964Y-83055940D01*
X139998448Y-83017129D01*
X139997602Y-82963924D01*
X139997235Y-82893598D01*
X139997155Y-82803422D01*
X139997167Y-82761314D01*
X139997349Y-82680167D01*
X139997902Y-82617675D01*
X139999018Y-82571109D01*
X140000887Y-82537741D01*
X140003702Y-82514844D01*
X140007654Y-82499688D01*
X140012934Y-82489546D01*
X140019733Y-82481689D01*
X140041333Y-82466963D01*
X140070533Y-82459111D01*
X140094440Y-82464610D01*
G37*
X140680439Y-74193730D02*
X140701322Y-74208387D01*
X140721623Y-74234990D01*
X140721965Y-74235745D01*
X140728966Y-74255335D01*
X140729496Y-74272790D01*
X140721522Y-74289702D01*
X140703011Y-74307663D01*
X140671929Y-74328263D01*
X140626244Y-74353095D01*
X140563922Y-74383750D01*
X140482929Y-74421820D01*
X140451546Y-74436454D01*
X140388362Y-74466203D01*
X140333756Y-74492297D01*
X140290710Y-74513292D01*
X140262207Y-74527739D01*
X140251230Y-74534191D01*
X140251811Y-74535550D01*
X140265758Y-74545542D01*
X140295296Y-74562833D01*
X140336913Y-74585430D01*
X140387097Y-74611338D01*
X140418586Y-74627311D01*
X140473939Y-74656261D01*
X140512956Y-74678749D01*
X140538434Y-74696965D01*
X140553169Y-74713096D01*
X140559958Y-74729330D01*
X140561600Y-74747857D01*
X140561125Y-74758360D01*
X140556918Y-74774476D01*
X140546054Y-74789790D01*
X140525781Y-74806388D01*
X140493346Y-74826357D01*
X140445996Y-74851783D01*
X140380978Y-74884752D01*
X140361723Y-74894485D01*
X140315054Y-74918943D01*
X140278891Y-74939178D01*
X140256503Y-74953311D01*
X140251155Y-74959460D01*
X140254427Y-74960827D01*
X140275336Y-74970202D01*
X140312275Y-74987062D01*
X140362126Y-75009979D01*
X140421774Y-75037520D01*
X140488102Y-75068255D01*
X140545323Y-75094970D01*
X140607312Y-75124593D01*
X140653051Y-75147664D01*
X140685092Y-75165643D01*
X140705986Y-75179990D01*
X140718282Y-75192166D01*
X140724534Y-75203632D01*
X140727426Y-75213042D01*
X140727575Y-75238147D01*
X140712232Y-75265290D01*
X140711247Y-75266590D01*
X140688612Y-75288674D01*
X140666387Y-75299723D01*
X140665747Y-75299769D01*
X140648085Y-75295228D01*
X140613519Y-75282364D01*
X140565174Y-75262605D01*
X140506175Y-75237381D01*
X140439645Y-75208119D01*
X140368709Y-75176250D01*
X140296493Y-75143201D01*
X140226120Y-75110401D01*
X140160715Y-75079280D01*
X140103403Y-75051265D01*
X140057308Y-75027786D01*
X140025554Y-75010272D01*
X140011267Y-75000151D01*
X139997898Y-74965743D01*
X140004259Y-74924046D01*
X140008956Y-74918681D01*
X140031107Y-74902852D01*
X140067868Y-74880650D01*
X140115585Y-74854233D01*
X140170607Y-74825760D01*
X140329850Y-74745986D01*
X140183258Y-74672799D01*
X140163968Y-74663103D01*
X140111620Y-74636125D01*
X140066830Y-74612096D01*
X140033846Y-74593332D01*
X140016911Y-74582146D01*
X140015668Y-74581000D01*
X140000381Y-74552879D01*
X139998698Y-74517817D01*
X140011267Y-74486776D01*
X140014116Y-74484350D01*
X140034741Y-74472090D01*
X140072292Y-74452352D01*
X140124120Y-74426448D01*
X140187577Y-74395685D01*
X140260015Y-74361375D01*
X140338784Y-74324825D01*
X140382907Y-74304585D01*
X140463635Y-74267812D01*
X140527313Y-74239355D01*
X140576248Y-74218331D01*
X140612743Y-74203854D01*
X140639105Y-74195039D01*
X140657639Y-74191004D01*
X140670648Y-74190862D01*
X140680439Y-74193730D01*
G36*
X140680439Y-74193730D02*
G01*
X140701322Y-74208387D01*
X140721623Y-74234990D01*
X140721965Y-74235745D01*
X140728966Y-74255335D01*
X140729496Y-74272790D01*
X140721522Y-74289702D01*
X140703011Y-74307663D01*
X140671929Y-74328263D01*
X140626244Y-74353095D01*
X140563922Y-74383750D01*
X140482929Y-74421820D01*
X140451546Y-74436454D01*
X140388362Y-74466203D01*
X140333756Y-74492297D01*
X140290710Y-74513292D01*
X140262207Y-74527739D01*
X140251230Y-74534191D01*
X140251811Y-74535550D01*
X140265758Y-74545542D01*
X140295296Y-74562833D01*
X140336913Y-74585430D01*
X140387097Y-74611338D01*
X140418586Y-74627311D01*
X140473939Y-74656261D01*
X140512956Y-74678749D01*
X140538434Y-74696965D01*
X140553169Y-74713096D01*
X140559958Y-74729330D01*
X140561600Y-74747857D01*
X140561125Y-74758360D01*
X140556918Y-74774476D01*
X140546054Y-74789790D01*
X140525781Y-74806388D01*
X140493346Y-74826357D01*
X140445996Y-74851783D01*
X140380978Y-74884752D01*
X140361723Y-74894485D01*
X140315054Y-74918943D01*
X140278891Y-74939178D01*
X140256503Y-74953311D01*
X140251155Y-74959460D01*
X140254427Y-74960827D01*
X140275336Y-74970202D01*
X140312275Y-74987062D01*
X140362126Y-75009979D01*
X140421774Y-75037520D01*
X140488102Y-75068255D01*
X140545323Y-75094970D01*
X140607312Y-75124593D01*
X140653051Y-75147664D01*
X140685092Y-75165643D01*
X140705986Y-75179990D01*
X140718282Y-75192166D01*
X140724534Y-75203632D01*
X140727426Y-75213042D01*
X140727575Y-75238147D01*
X140712232Y-75265290D01*
X140711247Y-75266590D01*
X140688612Y-75288674D01*
X140666387Y-75299723D01*
X140665747Y-75299769D01*
X140648085Y-75295228D01*
X140613519Y-75282364D01*
X140565174Y-75262605D01*
X140506175Y-75237381D01*
X140439645Y-75208119D01*
X140368709Y-75176250D01*
X140296493Y-75143201D01*
X140226120Y-75110401D01*
X140160715Y-75079280D01*
X140103403Y-75051265D01*
X140057308Y-75027786D01*
X140025554Y-75010272D01*
X140011267Y-75000151D01*
X139997898Y-74965743D01*
X140004259Y-74924046D01*
X140008956Y-74918681D01*
X140031107Y-74902852D01*
X140067868Y-74880650D01*
X140115585Y-74854233D01*
X140170607Y-74825760D01*
X140329850Y-74745986D01*
X140183258Y-74672799D01*
X140163968Y-74663103D01*
X140111620Y-74636125D01*
X140066830Y-74612096D01*
X140033846Y-74593332D01*
X140016911Y-74582146D01*
X140015668Y-74581000D01*
X140000381Y-74552879D01*
X139998698Y-74517817D01*
X140011267Y-74486776D01*
X140014116Y-74484350D01*
X140034741Y-74472090D01*
X140072292Y-74452352D01*
X140124120Y-74426448D01*
X140187577Y-74395685D01*
X140260015Y-74361375D01*
X140338784Y-74324825D01*
X140382907Y-74304585D01*
X140463635Y-74267812D01*
X140527313Y-74239355D01*
X140576248Y-74218331D01*
X140612743Y-74203854D01*
X140639105Y-74195039D01*
X140657639Y-74191004D01*
X140670648Y-74190862D01*
X140680439Y-74193730D01*
G37*
X140223974Y-81386808D02*
X140256655Y-81390681D01*
X140283181Y-81403065D01*
X140314029Y-81428230D01*
X140336169Y-81449442D01*
X140358715Y-81475838D01*
X140377083Y-81505555D01*
X140392339Y-81541785D01*
X140405551Y-81587717D01*
X140417786Y-81646544D01*
X140430111Y-81721456D01*
X140443594Y-81815645D01*
X140450604Y-81860957D01*
X140465163Y-81928911D01*
X140481663Y-81978047D01*
X140499561Y-82007614D01*
X140518315Y-82016864D01*
X140537385Y-82005048D01*
X140556229Y-81971416D01*
X140557443Y-81968370D01*
X140569521Y-81922011D01*
X140577721Y-81859361D01*
X140581881Y-81785927D01*
X140581839Y-81707217D01*
X140577431Y-81628739D01*
X140568495Y-81556000D01*
X140567846Y-81552073D01*
X140560139Y-81503257D01*
X140556527Y-81471005D01*
X140557124Y-81450008D01*
X140562046Y-81434954D01*
X140571404Y-81420534D01*
X140572275Y-81419364D01*
X140602649Y-81394847D01*
X140638150Y-81390054D01*
X140672731Y-81405860D01*
X140677187Y-81410406D01*
X140692327Y-81440020D01*
X140705450Y-81487002D01*
X140716250Y-81547306D01*
X140724419Y-81616888D01*
X140729649Y-81691703D01*
X140731633Y-81767706D01*
X140730064Y-81840853D01*
X140724634Y-81907100D01*
X140715036Y-81962400D01*
X140700175Y-82013283D01*
X140667042Y-82084595D01*
X140624360Y-82135752D01*
X140572295Y-82166575D01*
X140511017Y-82176889D01*
X140479768Y-82175952D01*
X140454971Y-82170160D01*
X140433301Y-82155353D01*
X140405951Y-82127380D01*
X140398622Y-82119402D01*
X140377719Y-82095692D01*
X140360749Y-82073298D01*
X140346795Y-82049265D01*
X140334944Y-82020637D01*
X140324280Y-81984460D01*
X140313889Y-81937780D01*
X140302854Y-81877641D01*
X140290262Y-81801090D01*
X140275196Y-81705171D01*
X140272162Y-81686808D01*
X140258542Y-81624478D01*
X140242808Y-81579260D01*
X140225737Y-81552976D01*
X140208103Y-81547447D01*
X140203832Y-81550068D01*
X140188767Y-81568000D01*
X140172133Y-81596126D01*
X140166143Y-81608926D01*
X140158950Y-81630224D01*
X140154173Y-81656610D01*
X140151354Y-81692454D01*
X140150036Y-81742128D01*
X140149763Y-81810000D01*
X140149836Y-81827785D01*
X140150947Y-81895406D01*
X140153172Y-81960345D01*
X140156238Y-82015970D01*
X140159873Y-82055651D01*
X140163941Y-82091162D01*
X140164724Y-82120415D01*
X140160124Y-82139315D01*
X140149449Y-82154429D01*
X140145856Y-82158085D01*
X140114082Y-82174427D01*
X140078428Y-82173107D01*
X140047810Y-82154150D01*
X140036204Y-82133780D01*
X140023509Y-82097796D01*
X140013459Y-82055372D01*
X140012860Y-82051922D01*
X140007644Y-82009252D01*
X140003270Y-81951866D01*
X140000182Y-81886849D01*
X139998823Y-81821289D01*
X139998782Y-81805057D01*
X140001259Y-81706744D01*
X140009265Y-81626692D01*
X140023797Y-81561513D01*
X140045851Y-81507817D01*
X140076424Y-81462216D01*
X140116514Y-81421323D01*
X140142741Y-81401202D01*
X140172288Y-81389576D01*
X140212005Y-81386667D01*
X140223974Y-81386808D01*
G36*
X140223974Y-81386808D02*
G01*
X140256655Y-81390681D01*
X140283181Y-81403065D01*
X140314029Y-81428230D01*
X140336169Y-81449442D01*
X140358715Y-81475838D01*
X140377083Y-81505555D01*
X140392339Y-81541785D01*
X140405551Y-81587717D01*
X140417786Y-81646544D01*
X140430111Y-81721456D01*
X140443594Y-81815645D01*
X140450604Y-81860957D01*
X140465163Y-81928911D01*
X140481663Y-81978047D01*
X140499561Y-82007614D01*
X140518315Y-82016864D01*
X140537385Y-82005048D01*
X140556229Y-81971416D01*
X140557443Y-81968370D01*
X140569521Y-81922011D01*
X140577721Y-81859361D01*
X140581881Y-81785927D01*
X140581839Y-81707217D01*
X140577431Y-81628739D01*
X140568495Y-81556000D01*
X140567846Y-81552073D01*
X140560139Y-81503257D01*
X140556527Y-81471005D01*
X140557124Y-81450008D01*
X140562046Y-81434954D01*
X140571404Y-81420534D01*
X140572275Y-81419364D01*
X140602649Y-81394847D01*
X140638150Y-81390054D01*
X140672731Y-81405860D01*
X140677187Y-81410406D01*
X140692327Y-81440020D01*
X140705450Y-81487002D01*
X140716250Y-81547306D01*
X140724419Y-81616888D01*
X140729649Y-81691703D01*
X140731633Y-81767706D01*
X140730064Y-81840853D01*
X140724634Y-81907100D01*
X140715036Y-81962400D01*
X140700175Y-82013283D01*
X140667042Y-82084595D01*
X140624360Y-82135752D01*
X140572295Y-82166575D01*
X140511017Y-82176889D01*
X140479768Y-82175952D01*
X140454971Y-82170160D01*
X140433301Y-82155353D01*
X140405951Y-82127380D01*
X140398622Y-82119402D01*
X140377719Y-82095692D01*
X140360749Y-82073298D01*
X140346795Y-82049265D01*
X140334944Y-82020637D01*
X140324280Y-81984460D01*
X140313889Y-81937780D01*
X140302854Y-81877641D01*
X140290262Y-81801090D01*
X140275196Y-81705171D01*
X140272162Y-81686808D01*
X140258542Y-81624478D01*
X140242808Y-81579260D01*
X140225737Y-81552976D01*
X140208103Y-81547447D01*
X140203832Y-81550068D01*
X140188767Y-81568000D01*
X140172133Y-81596126D01*
X140166143Y-81608926D01*
X140158950Y-81630224D01*
X140154173Y-81656610D01*
X140151354Y-81692454D01*
X140150036Y-81742128D01*
X140149763Y-81810000D01*
X140149836Y-81827785D01*
X140150947Y-81895406D01*
X140153172Y-81960345D01*
X140156238Y-82015970D01*
X140159873Y-82055651D01*
X140163941Y-82091162D01*
X140164724Y-82120415D01*
X140160124Y-82139315D01*
X140149449Y-82154429D01*
X140145856Y-82158085D01*
X140114082Y-82174427D01*
X140078428Y-82173107D01*
X140047810Y-82154150D01*
X140036204Y-82133780D01*
X140023509Y-82097796D01*
X140013459Y-82055372D01*
X140012860Y-82051922D01*
X140007644Y-82009252D01*
X140003270Y-81951866D01*
X140000182Y-81886849D01*
X139998823Y-81821289D01*
X139998782Y-81805057D01*
X140001259Y-81706744D01*
X140009265Y-81626692D01*
X140023797Y-81561513D01*
X140045851Y-81507817D01*
X140076424Y-81462216D01*
X140116514Y-81421323D01*
X140142741Y-81401202D01*
X140172288Y-81389576D01*
X140212005Y-81386667D01*
X140223974Y-81386808D01*
G37*
X141856016Y-76735076D02*
X141875921Y-76746250D01*
X141911580Y-76767134D01*
X141960541Y-76796265D01*
X142020354Y-76832181D01*
X142088567Y-76873420D01*
X142162729Y-76918517D01*
X142459992Y-77099785D01*
X142415461Y-77146315D01*
X142337135Y-77237723D01*
X142262561Y-77351334D01*
X142208526Y-77469122D01*
X142175710Y-77589559D01*
X142164789Y-77711117D01*
X142166132Y-77752585D01*
X142184388Y-77870080D01*
X142223383Y-77980089D01*
X142282330Y-78081430D01*
X142360443Y-78172921D01*
X142456936Y-78253380D01*
X142571022Y-78321627D01*
X142605276Y-78337908D01*
X142728760Y-78383982D01*
X142867082Y-78419106D01*
X143016439Y-78443197D01*
X143173027Y-78456173D01*
X143333044Y-78457949D01*
X143492686Y-78448443D01*
X143648150Y-78427572D01*
X143795634Y-78395252D01*
X143931333Y-78351399D01*
X144017924Y-78313982D01*
X144131312Y-78249185D01*
X144224930Y-78173772D01*
X144299041Y-78087418D01*
X144353906Y-77989795D01*
X144389788Y-77880577D01*
X144406949Y-77759439D01*
X144408120Y-77690038D01*
X144393859Y-77567168D01*
X144358759Y-77451664D01*
X144303318Y-77344953D01*
X144228036Y-77248464D01*
X144213560Y-77232720D01*
X144187038Y-77202150D01*
X144169862Y-77179809D01*
X144165213Y-77169691D01*
X144167403Y-77167706D01*
X144186279Y-77153241D01*
X144219603Y-77129400D01*
X144264620Y-77098029D01*
X144318575Y-77060974D01*
X144378715Y-77020083D01*
X144442282Y-76977202D01*
X144506524Y-76934178D01*
X144568685Y-76892857D01*
X144626009Y-76855086D01*
X144675743Y-76822712D01*
X144715132Y-76797582D01*
X144741420Y-76781542D01*
X144751853Y-76776439D01*
X144756059Y-76781050D01*
X144761067Y-76800267D01*
X144763614Y-76809838D01*
X144774751Y-76837809D01*
X144793198Y-76879448D01*
X144817275Y-76930995D01*
X144845301Y-76988690D01*
X144850846Y-76999957D01*
X144930111Y-77177687D01*
X144989615Y-77347490D01*
X145029755Y-77511430D01*
X145050929Y-77671571D01*
X145053534Y-77829977D01*
X145037967Y-77988711D01*
X145020477Y-78084268D01*
X144975436Y-78248558D01*
X144912344Y-78402589D01*
X144830085Y-78548509D01*
X144727543Y-78688466D01*
X144603601Y-78824608D01*
X144558339Y-78868473D01*
X144426135Y-78980758D01*
X144288168Y-79073972D01*
X144140250Y-79150719D01*
X143978197Y-79213603D01*
X143966609Y-79217420D01*
X143780608Y-79267507D01*
X143584479Y-79300899D01*
X143382432Y-79317584D01*
X143178675Y-79317551D01*
X142977419Y-79300791D01*
X142782872Y-79267292D01*
X142599244Y-79217044D01*
X142481947Y-79173190D01*
X142319049Y-79095348D01*
X142165134Y-79001828D01*
X142023329Y-78894822D01*
X141896761Y-78776519D01*
X141788559Y-78649111D01*
X141735880Y-78571606D01*
X141666250Y-78444725D01*
X141607532Y-78307243D01*
X141562413Y-78165716D01*
X141533578Y-78026702D01*
X141531894Y-78012597D01*
X141528566Y-77969153D01*
X141525725Y-77911723D01*
X141523627Y-77846122D01*
X141522532Y-77778167D01*
X141524860Y-77651378D01*
X141537864Y-77503673D01*
X141562867Y-77365779D01*
X141600682Y-77232014D01*
X141609111Y-77208562D01*
X141628592Y-77160612D01*
X141653527Y-77104140D01*
X141682278Y-77042379D01*
X141713210Y-76978563D01*
X141744685Y-76915926D01*
X141775066Y-76857703D01*
X141802717Y-76807127D01*
X141826001Y-76767433D01*
X141843282Y-76741854D01*
X141852921Y-76733625D01*
X141856016Y-76735076D01*
G36*
X141856016Y-76735076D02*
G01*
X141875921Y-76746250D01*
X141911580Y-76767134D01*
X141960541Y-76796265D01*
X142020354Y-76832181D01*
X142088567Y-76873420D01*
X142162729Y-76918517D01*
X142459992Y-77099785D01*
X142415461Y-77146315D01*
X142337135Y-77237723D01*
X142262561Y-77351334D01*
X142208526Y-77469122D01*
X142175710Y-77589559D01*
X142164789Y-77711117D01*
X142166132Y-77752585D01*
X142184388Y-77870080D01*
X142223383Y-77980089D01*
X142282330Y-78081430D01*
X142360443Y-78172921D01*
X142456936Y-78253380D01*
X142571022Y-78321627D01*
X142605276Y-78337908D01*
X142728760Y-78383982D01*
X142867082Y-78419106D01*
X143016439Y-78443197D01*
X143173027Y-78456173D01*
X143333044Y-78457949D01*
X143492686Y-78448443D01*
X143648150Y-78427572D01*
X143795634Y-78395252D01*
X143931333Y-78351399D01*
X144017924Y-78313982D01*
X144131312Y-78249185D01*
X144224930Y-78173772D01*
X144299041Y-78087418D01*
X144353906Y-77989795D01*
X144389788Y-77880577D01*
X144406949Y-77759439D01*
X144408120Y-77690038D01*
X144393859Y-77567168D01*
X144358759Y-77451664D01*
X144303318Y-77344953D01*
X144228036Y-77248464D01*
X144213560Y-77232720D01*
X144187038Y-77202150D01*
X144169862Y-77179809D01*
X144165213Y-77169691D01*
X144167403Y-77167706D01*
X144186279Y-77153241D01*
X144219603Y-77129400D01*
X144264620Y-77098029D01*
X144318575Y-77060974D01*
X144378715Y-77020083D01*
X144442282Y-76977202D01*
X144506524Y-76934178D01*
X144568685Y-76892857D01*
X144626009Y-76855086D01*
X144675743Y-76822712D01*
X144715132Y-76797582D01*
X144741420Y-76781542D01*
X144751853Y-76776439D01*
X144756059Y-76781050D01*
X144761067Y-76800267D01*
X144763614Y-76809838D01*
X144774751Y-76837809D01*
X144793198Y-76879448D01*
X144817275Y-76930995D01*
X144845301Y-76988690D01*
X144850846Y-76999957D01*
X144930111Y-77177687D01*
X144989615Y-77347490D01*
X145029755Y-77511430D01*
X145050929Y-77671571D01*
X145053534Y-77829977D01*
X145037967Y-77988711D01*
X145020477Y-78084268D01*
X144975436Y-78248558D01*
X144912344Y-78402589D01*
X144830085Y-78548509D01*
X144727543Y-78688466D01*
X144603601Y-78824608D01*
X144558339Y-78868473D01*
X144426135Y-78980758D01*
X144288168Y-79073972D01*
X144140250Y-79150719D01*
X143978197Y-79213603D01*
X143966609Y-79217420D01*
X143780608Y-79267507D01*
X143584479Y-79300899D01*
X143382432Y-79317584D01*
X143178675Y-79317551D01*
X142977419Y-79300791D01*
X142782872Y-79267292D01*
X142599244Y-79217044D01*
X142481947Y-79173190D01*
X142319049Y-79095348D01*
X142165134Y-79001828D01*
X142023329Y-78894822D01*
X141896761Y-78776519D01*
X141788559Y-78649111D01*
X141735880Y-78571606D01*
X141666250Y-78444725D01*
X141607532Y-78307243D01*
X141562413Y-78165716D01*
X141533578Y-78026702D01*
X141531894Y-78012597D01*
X141528566Y-77969153D01*
X141525725Y-77911723D01*
X141523627Y-77846122D01*
X141522532Y-77778167D01*
X141524860Y-77651378D01*
X141537864Y-77503673D01*
X141562867Y-77365779D01*
X141600682Y-77232014D01*
X141609111Y-77208562D01*
X141628592Y-77160612D01*
X141653527Y-77104140D01*
X141682278Y-77042379D01*
X141713210Y-76978563D01*
X141744685Y-76915926D01*
X141775066Y-76857703D01*
X141802717Y-76807127D01*
X141826001Y-76767433D01*
X141843282Y-76741854D01*
X141852921Y-76733625D01*
X141856016Y-76735076D01*
G37*
X141627026Y-71746161D02*
X141636132Y-71751355D01*
X141650751Y-71759715D01*
X141664827Y-71767288D01*
X141679460Y-71774112D01*
X141695751Y-71780227D01*
X141714802Y-71785673D01*
X141737714Y-71790487D01*
X141765587Y-71794708D01*
X141799522Y-71798377D01*
X141840621Y-71801531D01*
X141889985Y-71804211D01*
X141948714Y-71806454D01*
X142017910Y-71808299D01*
X142098674Y-71809787D01*
X142192106Y-71810955D01*
X142299308Y-71811844D01*
X142421380Y-71812491D01*
X142559424Y-71812936D01*
X142714541Y-71813218D01*
X142887832Y-71813375D01*
X143080397Y-71813448D01*
X143293338Y-71813474D01*
X143527755Y-71813493D01*
X145212622Y-71813689D01*
X145212622Y-72719017D01*
X145175933Y-72694585D01*
X145166353Y-72688318D01*
X145120019Y-72662208D01*
X145072898Y-72644469D01*
X145017749Y-72632908D01*
X144947333Y-72625331D01*
X144940350Y-72624839D01*
X144902359Y-72623062D01*
X144848424Y-72621444D01*
X144781297Y-72619999D01*
X144703729Y-72618740D01*
X144618472Y-72617680D01*
X144528276Y-72616829D01*
X144435893Y-72616203D01*
X144344075Y-72615812D01*
X144255573Y-72615670D01*
X144173138Y-72615790D01*
X144099521Y-72616183D01*
X144037474Y-72616862D01*
X143989749Y-72617841D01*
X143959096Y-72619132D01*
X143948267Y-72620747D01*
X143952667Y-72628957D01*
X143967638Y-72650647D01*
X143989552Y-72680014D01*
X144023764Y-72728879D01*
X144070286Y-72817125D01*
X144103954Y-72915916D01*
X144125769Y-73028510D01*
X144136735Y-73158164D01*
X144137781Y-73250670D01*
X144127986Y-73372011D01*
X144103826Y-73482099D01*
X144064215Y-73585389D01*
X144008068Y-73686338D01*
X143977117Y-73731503D01*
X143885885Y-73836911D01*
X143776894Y-73928538D01*
X143650274Y-74006332D01*
X143506155Y-74070241D01*
X143344668Y-74120214D01*
X143165941Y-74156198D01*
X142970105Y-74178143D01*
X142814066Y-74183900D01*
X142757289Y-74185994D01*
X142679842Y-74185268D01*
X142528406Y-74176689D01*
X142391717Y-74157833D01*
X142265724Y-74127837D01*
X142146375Y-74085836D01*
X142029619Y-74030969D01*
X141918821Y-73964167D01*
X141805261Y-73873363D01*
X141709789Y-73769708D01*
X141632927Y-73653887D01*
X141575203Y-73526586D01*
X141537142Y-73388489D01*
X141531334Y-73350793D01*
X141525604Y-73271752D01*
X141525417Y-73183629D01*
X141530461Y-73094236D01*
X141540422Y-73011384D01*
X141545112Y-72989331D01*
X142138459Y-72989331D01*
X142146635Y-73073900D01*
X142174195Y-73147219D01*
X142221358Y-73209637D01*
X142288342Y-73261502D01*
X142375367Y-73303160D01*
X142482650Y-73334962D01*
X142494991Y-73337545D01*
X142556228Y-73346000D01*
X142633308Y-73351663D01*
X142720998Y-73354576D01*
X142814066Y-73354783D01*
X142907280Y-73352330D01*
X142995406Y-73347261D01*
X143073212Y-73339619D01*
X143135467Y-73329448D01*
X143141334Y-73328167D01*
X143251879Y-73299126D01*
X143342425Y-73264610D01*
X143415047Y-73223456D01*
X143471819Y-73174499D01*
X143514816Y-73116574D01*
X143530385Y-73084620D01*
X143549278Y-73011784D01*
X143552535Y-72930443D01*
X143540611Y-72845319D01*
X143513960Y-72761133D01*
X143473038Y-72682608D01*
X143429470Y-72615200D01*
X142279279Y-72615200D01*
X142232911Y-72685756D01*
X142209209Y-72726417D01*
X142183361Y-72780546D01*
X142165171Y-72829689D01*
X142149449Y-72893165D01*
X142138459Y-72989331D01*
X141545112Y-72989331D01*
X141554988Y-72942887D01*
X141564636Y-72912035D01*
X141594877Y-72834730D01*
X141632383Y-72757679D01*
X141673386Y-72688200D01*
X141714121Y-72633615D01*
X141733495Y-72610916D01*
X141751338Y-72588201D01*
X141758222Y-72576779D01*
X141756576Y-72575537D01*
X141738795Y-72572728D01*
X141705630Y-72570776D01*
X141662267Y-72570045D01*
X141566311Y-72570045D01*
X141566311Y-71711896D01*
X141627026Y-71746161D01*
G36*
X141627026Y-71746161D02*
G01*
X141636132Y-71751355D01*
X141650751Y-71759715D01*
X141664827Y-71767288D01*
X141679460Y-71774112D01*
X141695751Y-71780227D01*
X141714802Y-71785673D01*
X141737714Y-71790487D01*
X141765587Y-71794708D01*
X141799522Y-71798377D01*
X141840621Y-71801531D01*
X141889985Y-71804211D01*
X141948714Y-71806454D01*
X142017910Y-71808299D01*
X142098674Y-71809787D01*
X142192106Y-71810955D01*
X142299308Y-71811844D01*
X142421380Y-71812491D01*
X142559424Y-71812936D01*
X142714541Y-71813218D01*
X142887832Y-71813375D01*
X143080397Y-71813448D01*
X143293338Y-71813474D01*
X143527755Y-71813493D01*
X145212622Y-71813689D01*
X145212622Y-72719017D01*
X145175933Y-72694585D01*
X145166353Y-72688318D01*
X145120019Y-72662208D01*
X145072898Y-72644469D01*
X145017749Y-72632908D01*
X144947333Y-72625331D01*
X144940350Y-72624839D01*
X144902359Y-72623062D01*
X144848424Y-72621444D01*
X144781297Y-72619999D01*
X144703729Y-72618740D01*
X144618472Y-72617680D01*
X144528276Y-72616829D01*
X144435893Y-72616203D01*
X144344075Y-72615812D01*
X144255573Y-72615670D01*
X144173138Y-72615790D01*
X144099521Y-72616183D01*
X144037474Y-72616862D01*
X143989749Y-72617841D01*
X143959096Y-72619132D01*
X143948267Y-72620747D01*
X143952667Y-72628957D01*
X143967638Y-72650647D01*
X143989552Y-72680014D01*
X144023764Y-72728879D01*
X144070286Y-72817125D01*
X144103954Y-72915916D01*
X144125769Y-73028510D01*
X144136735Y-73158164D01*
X144137781Y-73250670D01*
X144127986Y-73372011D01*
X144103826Y-73482099D01*
X144064215Y-73585389D01*
X144008068Y-73686338D01*
X143977117Y-73731503D01*
X143885885Y-73836911D01*
X143776894Y-73928538D01*
X143650274Y-74006332D01*
X143506155Y-74070241D01*
X143344668Y-74120214D01*
X143165941Y-74156198D01*
X142970105Y-74178143D01*
X142814066Y-74183900D01*
X142757289Y-74185994D01*
X142679842Y-74185268D01*
X142528406Y-74176689D01*
X142391717Y-74157833D01*
X142265724Y-74127837D01*
X142146375Y-74085836D01*
X142029619Y-74030969D01*
X141918821Y-73964167D01*
X141805261Y-73873363D01*
X141709789Y-73769708D01*
X141632927Y-73653887D01*
X141575203Y-73526586D01*
X141537142Y-73388489D01*
X141531334Y-73350793D01*
X141525604Y-73271752D01*
X141525417Y-73183629D01*
X141530461Y-73094236D01*
X141540422Y-73011384D01*
X141545112Y-72989331D01*
X142138459Y-72989331D01*
X142146635Y-73073900D01*
X142174195Y-73147219D01*
X142221358Y-73209637D01*
X142288342Y-73261502D01*
X142375367Y-73303160D01*
X142482650Y-73334962D01*
X142494991Y-73337545D01*
X142556228Y-73346000D01*
X142633308Y-73351663D01*
X142720998Y-73354576D01*
X142814066Y-73354783D01*
X142907280Y-73352330D01*
X142995406Y-73347261D01*
X143073212Y-73339619D01*
X143135467Y-73329448D01*
X143141334Y-73328167D01*
X143251879Y-73299126D01*
X143342425Y-73264610D01*
X143415047Y-73223456D01*
X143471819Y-73174499D01*
X143514816Y-73116574D01*
X143530385Y-73084620D01*
X143549278Y-73011784D01*
X143552535Y-72930443D01*
X143540611Y-72845319D01*
X143513960Y-72761133D01*
X143473038Y-72682608D01*
X143429470Y-72615200D01*
X142279279Y-72615200D01*
X142232911Y-72685756D01*
X142209209Y-72726417D01*
X142183361Y-72780546D01*
X142165171Y-72829689D01*
X142149449Y-72893165D01*
X142138459Y-72989331D01*
X141545112Y-72989331D01*
X141554988Y-72942887D01*
X141564636Y-72912035D01*
X141594877Y-72834730D01*
X141632383Y-72757679D01*
X141673386Y-72688200D01*
X141714121Y-72633615D01*
X141733495Y-72610916D01*
X141751338Y-72588201D01*
X141758222Y-72576779D01*
X141756576Y-72575537D01*
X141738795Y-72572728D01*
X141705630Y-72570776D01*
X141662267Y-72570045D01*
X141566311Y-72570045D01*
X141566311Y-71711896D01*
X141627026Y-71746161D01*
G37*
X141576537Y-74387578D02*
X141592090Y-74394614D01*
X141614929Y-74410434D01*
X141620362Y-74414734D01*
X141634394Y-74425777D01*
X141647814Y-74435311D01*
X141662278Y-74443461D01*
X141679444Y-74450352D01*
X141700966Y-74456111D01*
X141728502Y-74460862D01*
X141763708Y-74464731D01*
X141808240Y-74467844D01*
X141863754Y-74470325D01*
X141931907Y-74472300D01*
X142014355Y-74473894D01*
X142112754Y-74475234D01*
X142228761Y-74476444D01*
X142364032Y-74477649D01*
X142520222Y-74478975D01*
X142662988Y-74480228D01*
X142808058Y-74481651D01*
X142933973Y-74483176D01*
X143042564Y-74484933D01*
X143135666Y-74487051D01*
X143215109Y-74489660D01*
X143282727Y-74492890D01*
X143340351Y-74496869D01*
X143389815Y-74501728D01*
X143432950Y-74507597D01*
X143471590Y-74514604D01*
X143507566Y-74522880D01*
X143542711Y-74532554D01*
X143578858Y-74543756D01*
X143617839Y-74556616D01*
X143660909Y-74572090D01*
X143753129Y-74614994D01*
X143832901Y-74668735D01*
X143907035Y-74737576D01*
X143970595Y-74815185D01*
X144032275Y-74919761D01*
X144079798Y-75039244D01*
X144113433Y-75174508D01*
X144133448Y-75326426D01*
X144140111Y-75495872D01*
X144139713Y-75553890D01*
X144137665Y-75619398D01*
X144133296Y-75680693D01*
X144125965Y-75742097D01*
X144115031Y-75807932D01*
X144099853Y-75882520D01*
X144079791Y-75970184D01*
X144054203Y-76075245D01*
X144047180Y-76103806D01*
X144029224Y-76179054D01*
X144013180Y-76249388D01*
X143999972Y-76310567D01*
X143990526Y-76358354D01*
X143985769Y-76388511D01*
X143982090Y-76416783D01*
X143976813Y-76443060D01*
X143972058Y-76453059D01*
X143963219Y-76449952D01*
X143935928Y-76439194D01*
X143893094Y-76421864D01*
X143837575Y-76399126D01*
X143772228Y-76372147D01*
X143699911Y-76342090D01*
X143684121Y-76335493D01*
X143593516Y-76296907D01*
X143523783Y-76265768D01*
X143474595Y-76241917D01*
X143445626Y-76225198D01*
X143436548Y-76215454D01*
X143438595Y-76207766D01*
X143448240Y-76181415D01*
X143463810Y-76142982D01*
X143483185Y-76097822D01*
X143521186Y-76003293D01*
X143562220Y-75866480D01*
X143587388Y-75725289D01*
X143591389Y-75687314D01*
X143593553Y-75584059D01*
X143580378Y-75496952D01*
X143551244Y-75425129D01*
X143505534Y-75367731D01*
X143442628Y-75323896D01*
X143361908Y-75292762D01*
X143262755Y-75273470D01*
X143203776Y-75266050D01*
X143210555Y-75427936D01*
X143212187Y-75554495D01*
X143205806Y-75705951D01*
X143191223Y-75854396D01*
X143169118Y-75990578D01*
X143154179Y-76055245D01*
X143111259Y-76187490D01*
X143054660Y-76309762D01*
X142985983Y-76419685D01*
X142906830Y-76514883D01*
X142818804Y-76592980D01*
X142723507Y-76651599D01*
X142671136Y-76675595D01*
X142600410Y-76701232D01*
X142529188Y-76717478D01*
X142450288Y-76725822D01*
X142359718Y-76727690D01*
X142356533Y-76727755D01*
X142322637Y-76727261D01*
X142247798Y-76723632D01*
X142185599Y-76716022D01*
X142129016Y-76703688D01*
X142002924Y-76659313D01*
X141888321Y-76596400D01*
X141787432Y-76516238D01*
X141701076Y-76419740D01*
X141630068Y-76307822D01*
X141575224Y-76181397D01*
X141537362Y-76041378D01*
X141531649Y-76005149D01*
X141525687Y-75926155D01*
X141525354Y-75837841D01*
X141530341Y-75748075D01*
X141540334Y-75664722D01*
X141545453Y-75640648D01*
X142088617Y-75640648D01*
X142091460Y-75716011D01*
X142103380Y-75776743D01*
X142125963Y-75828452D01*
X142160789Y-75876746D01*
X142165202Y-75881803D01*
X142220840Y-75930272D01*
X142284667Y-75958459D01*
X142359718Y-75967752D01*
X142431307Y-75960520D01*
X142494355Y-75935796D01*
X142552242Y-75891249D01*
X142599192Y-75836319D01*
X142639039Y-75763894D01*
X142666737Y-75677340D01*
X142682904Y-75574670D01*
X142688158Y-75453894D01*
X142688143Y-75445007D01*
X142687345Y-75389660D01*
X142685512Y-75342736D01*
X142682889Y-75308953D01*
X142679726Y-75293028D01*
X142673259Y-75288943D01*
X142651125Y-75284572D01*
X142612012Y-75281604D01*
X142554061Y-75279914D01*
X142475414Y-75279378D01*
X142279538Y-75279378D01*
X142223027Y-75324048D01*
X142207788Y-75336785D01*
X142165156Y-75383604D01*
X142129328Y-75444255D01*
X142124150Y-75454897D01*
X142107255Y-75493676D01*
X142097091Y-75528692D01*
X142091675Y-75568722D01*
X142089022Y-75622541D01*
X142088617Y-75640648D01*
X141545453Y-75640648D01*
X141555022Y-75595651D01*
X141585251Y-75509187D01*
X141639943Y-75399286D01*
X141707457Y-75301956D01*
X141758444Y-75239867D01*
X141662378Y-75236605D01*
X141566311Y-75233343D01*
X141566311Y-74810450D01*
X141566314Y-74799543D01*
X141566620Y-74705056D01*
X141567384Y-74618331D01*
X141568549Y-74541837D01*
X141570058Y-74478043D01*
X141571853Y-74429418D01*
X141573879Y-74398433D01*
X141576078Y-74387556D01*
X141576537Y-74387578D01*
G36*
X141576537Y-74387578D02*
G01*
X141592090Y-74394614D01*
X141614929Y-74410434D01*
X141620362Y-74414734D01*
X141634394Y-74425777D01*
X141647814Y-74435311D01*
X141662278Y-74443461D01*
X141679444Y-74450352D01*
X141700966Y-74456111D01*
X141728502Y-74460862D01*
X141763708Y-74464731D01*
X141808240Y-74467844D01*
X141863754Y-74470325D01*
X141931907Y-74472300D01*
X142014355Y-74473894D01*
X142112754Y-74475234D01*
X142228761Y-74476444D01*
X142364032Y-74477649D01*
X142520222Y-74478975D01*
X142662988Y-74480228D01*
X142808058Y-74481651D01*
X142933973Y-74483176D01*
X143042564Y-74484933D01*
X143135666Y-74487051D01*
X143215109Y-74489660D01*
X143282727Y-74492890D01*
X143340351Y-74496869D01*
X143389815Y-74501728D01*
X143432950Y-74507597D01*
X143471590Y-74514604D01*
X143507566Y-74522880D01*
X143542711Y-74532554D01*
X143578858Y-74543756D01*
X143617839Y-74556616D01*
X143660909Y-74572090D01*
X143753129Y-74614994D01*
X143832901Y-74668735D01*
X143907035Y-74737576D01*
X143970595Y-74815185D01*
X144032275Y-74919761D01*
X144079798Y-75039244D01*
X144113433Y-75174508D01*
X144133448Y-75326426D01*
X144140111Y-75495872D01*
X144139713Y-75553890D01*
X144137665Y-75619398D01*
X144133296Y-75680693D01*
X144125965Y-75742097D01*
X144115031Y-75807932D01*
X144099853Y-75882520D01*
X144079791Y-75970184D01*
X144054203Y-76075245D01*
X144047180Y-76103806D01*
X144029224Y-76179054D01*
X144013180Y-76249388D01*
X143999972Y-76310567D01*
X143990526Y-76358354D01*
X143985769Y-76388511D01*
X143982090Y-76416783D01*
X143976813Y-76443060D01*
X143972058Y-76453059D01*
X143963219Y-76449952D01*
X143935928Y-76439194D01*
X143893094Y-76421864D01*
X143837575Y-76399126D01*
X143772228Y-76372147D01*
X143699911Y-76342090D01*
X143684121Y-76335493D01*
X143593516Y-76296907D01*
X143523783Y-76265768D01*
X143474595Y-76241917D01*
X143445626Y-76225198D01*
X143436548Y-76215454D01*
X143438595Y-76207766D01*
X143448240Y-76181415D01*
X143463810Y-76142982D01*
X143483185Y-76097822D01*
X143521186Y-76003293D01*
X143562220Y-75866480D01*
X143587388Y-75725289D01*
X143591389Y-75687314D01*
X143593553Y-75584059D01*
X143580378Y-75496952D01*
X143551244Y-75425129D01*
X143505534Y-75367731D01*
X143442628Y-75323896D01*
X143361908Y-75292762D01*
X143262755Y-75273470D01*
X143203776Y-75266050D01*
X143210555Y-75427936D01*
X143212187Y-75554495D01*
X143205806Y-75705951D01*
X143191223Y-75854396D01*
X143169118Y-75990578D01*
X143154179Y-76055245D01*
X143111259Y-76187490D01*
X143054660Y-76309762D01*
X142985983Y-76419685D01*
X142906830Y-76514883D01*
X142818804Y-76592980D01*
X142723507Y-76651599D01*
X142671136Y-76675595D01*
X142600410Y-76701232D01*
X142529188Y-76717478D01*
X142450288Y-76725822D01*
X142359718Y-76727690D01*
X142356533Y-76727755D01*
X142322637Y-76727261D01*
X142247798Y-76723632D01*
X142185599Y-76716022D01*
X142129016Y-76703688D01*
X142002924Y-76659313D01*
X141888321Y-76596400D01*
X141787432Y-76516238D01*
X141701076Y-76419740D01*
X141630068Y-76307822D01*
X141575224Y-76181397D01*
X141537362Y-76041378D01*
X141531649Y-76005149D01*
X141525687Y-75926155D01*
X141525354Y-75837841D01*
X141530341Y-75748075D01*
X141540334Y-75664722D01*
X141545453Y-75640648D01*
X142088617Y-75640648D01*
X142091460Y-75716011D01*
X142103380Y-75776743D01*
X142125963Y-75828452D01*
X142160789Y-75876746D01*
X142165202Y-75881803D01*
X142220840Y-75930272D01*
X142284667Y-75958459D01*
X142359718Y-75967752D01*
X142431307Y-75960520D01*
X142494355Y-75935796D01*
X142552242Y-75891249D01*
X142599192Y-75836319D01*
X142639039Y-75763894D01*
X142666737Y-75677340D01*
X142682904Y-75574670D01*
X142688158Y-75453894D01*
X142688143Y-75445007D01*
X142687345Y-75389660D01*
X142685512Y-75342736D01*
X142682889Y-75308953D01*
X142679726Y-75293028D01*
X142673259Y-75288943D01*
X142651125Y-75284572D01*
X142612012Y-75281604D01*
X142554061Y-75279914D01*
X142475414Y-75279378D01*
X142279538Y-75279378D01*
X142223027Y-75324048D01*
X142207788Y-75336785D01*
X142165156Y-75383604D01*
X142129328Y-75444255D01*
X142124150Y-75454897D01*
X142107255Y-75493676D01*
X142097091Y-75528692D01*
X142091675Y-75568722D01*
X142089022Y-75622541D01*
X142088617Y-75640648D01*
X141545453Y-75640648D01*
X141555022Y-75595651D01*
X141585251Y-75509187D01*
X141639943Y-75399286D01*
X141707457Y-75301956D01*
X141758444Y-75239867D01*
X141662378Y-75236605D01*
X141566311Y-75233343D01*
X141566311Y-74810450D01*
X141566314Y-74799543D01*
X141566620Y-74705056D01*
X141567384Y-74618331D01*
X141568549Y-74541837D01*
X141570058Y-74478043D01*
X141571853Y-74429418D01*
X141573879Y-74398433D01*
X141576078Y-74387556D01*
X141576537Y-74387578D01*
G37*
X145569351Y-79596249D02*
X145593089Y-79623355D01*
X145604889Y-79650253D01*
X145607733Y-79686560D01*
X145607733Y-79738489D01*
X145519794Y-79738489D01*
X145469898Y-79740427D01*
X145359477Y-79759199D01*
X145258013Y-79796217D01*
X145166848Y-79849369D01*
X145087327Y-79916546D01*
X145020795Y-79995638D01*
X144968594Y-80084534D01*
X144932070Y-80181125D01*
X144912566Y-80283300D01*
X144911427Y-80388950D01*
X144929995Y-80495964D01*
X144969616Y-80602232D01*
X145027484Y-80699219D01*
X145102316Y-80784293D01*
X145190385Y-80853015D01*
X145289384Y-80903918D01*
X145397007Y-80935535D01*
X145510946Y-80946400D01*
X145607733Y-80946400D01*
X145607733Y-82566753D01*
X145607720Y-82777897D01*
X145607670Y-82982020D01*
X145607570Y-83165686D01*
X145607408Y-83329991D01*
X145607171Y-83476029D01*
X145606847Y-83604894D01*
X145606425Y-83717683D01*
X145605891Y-83815488D01*
X145605233Y-83899404D01*
X145604439Y-83970527D01*
X145603496Y-84029950D01*
X145602392Y-84078768D01*
X145601116Y-84118077D01*
X145599653Y-84148969D01*
X145597993Y-84172541D01*
X145596122Y-84189886D01*
X145594028Y-84202099D01*
X145591700Y-84210275D01*
X145589124Y-84215508D01*
X145585555Y-84221504D01*
X145582022Y-84228279D01*
X145578512Y-84234478D01*
X145574082Y-84240126D01*
X145567792Y-84245247D01*
X145558699Y-84249869D01*
X145545861Y-84254015D01*
X145528338Y-84257713D01*
X145505187Y-84260987D01*
X145475466Y-84263863D01*
X145438235Y-84266367D01*
X145392551Y-84268524D01*
X145337473Y-84270360D01*
X145272059Y-84271900D01*
X145195367Y-84273170D01*
X145106456Y-84274195D01*
X145004383Y-84275001D01*
X144998133Y-84275034D01*
X144888208Y-84275614D01*
X144756989Y-84276059D01*
X144609784Y-84276362D01*
X144445651Y-84276548D01*
X144263648Y-84276642D01*
X144062835Y-84276671D01*
X143842268Y-84276661D01*
X143601008Y-84276636D01*
X143338111Y-84276622D01*
X143295960Y-84276622D01*
X143035332Y-84276646D01*
X142796204Y-84276685D01*
X142577640Y-84276708D01*
X142378705Y-84276687D01*
X142198465Y-84276593D01*
X142035985Y-84276395D01*
X141890330Y-84276063D01*
X141760566Y-84275569D01*
X141645757Y-84274883D01*
X141544970Y-84273976D01*
X141457270Y-84272817D01*
X141381721Y-84271378D01*
X141317389Y-84269629D01*
X141263339Y-84267540D01*
X141218637Y-84265083D01*
X141182348Y-84262227D01*
X141153537Y-84258943D01*
X141131269Y-84255202D01*
X141114610Y-84250974D01*
X141102625Y-84246229D01*
X141094379Y-84240939D01*
X141088938Y-84235073D01*
X141085366Y-84228602D01*
X141082730Y-84221497D01*
X141080094Y-84213728D01*
X141076523Y-84205266D01*
X141074855Y-84200908D01*
X141072889Y-84192395D01*
X141071089Y-84179694D01*
X141069445Y-84161885D01*
X141067953Y-84138049D01*
X141066603Y-84107266D01*
X141065389Y-84068617D01*
X141064303Y-84021182D01*
X141063339Y-83964043D01*
X141062489Y-83896279D01*
X141061747Y-83816971D01*
X141061103Y-83725199D01*
X141060553Y-83620044D01*
X141060087Y-83500587D01*
X141059700Y-83365908D01*
X141059384Y-83215088D01*
X141059131Y-83047206D01*
X141058934Y-82861345D01*
X141058787Y-82656583D01*
X141058682Y-82432002D01*
X141058613Y-82195090D01*
X141577600Y-82195090D01*
X141653800Y-82194456D01*
X141695840Y-82195574D01*
X141731666Y-82201304D01*
X141769228Y-82213890D01*
X141817423Y-82235568D01*
X141824103Y-82238789D01*
X141873641Y-82264188D01*
X141921631Y-82290996D01*
X141958534Y-82313917D01*
X141965166Y-82318485D01*
X141996407Y-82340516D01*
X142041346Y-82372693D01*
X142097853Y-82413457D01*
X142163796Y-82461245D01*
X142237043Y-82514498D01*
X142315464Y-82571655D01*
X142396928Y-82631155D01*
X142479302Y-82691437D01*
X142560456Y-82750940D01*
X142638258Y-82808105D01*
X142710577Y-82861370D01*
X142775282Y-82909174D01*
X142830241Y-82949957D01*
X142873324Y-82982158D01*
X142902398Y-83004216D01*
X142915333Y-83014571D01*
X142919649Y-83019044D01*
X142921688Y-83023236D01*
X142919074Y-83026643D01*
X142910014Y-83029325D01*
X142892715Y-83031341D01*
X142865386Y-83032748D01*
X142826235Y-83033605D01*
X142773467Y-83033970D01*
X142705293Y-83033903D01*
X142619918Y-83033460D01*
X142515551Y-83032702D01*
X142390400Y-83031685D01*
X142345700Y-83031308D01*
X142224605Y-83030169D01*
X142123312Y-83028972D01*
X142039738Y-83027636D01*
X141971796Y-83026077D01*
X141917401Y-83024215D01*
X141874468Y-83021966D01*
X141840911Y-83019248D01*
X141814645Y-83015979D01*
X141793584Y-83012078D01*
X141775643Y-83007461D01*
X141749230Y-82999192D01*
X141687228Y-82975583D01*
X141634427Y-82949685D01*
X141597355Y-82924535D01*
X141595925Y-82923339D01*
X141591576Y-82921168D01*
X141587974Y-82923328D01*
X141585049Y-82931644D01*
X141582731Y-82947940D01*
X141580949Y-82974041D01*
X141579633Y-83011771D01*
X141578714Y-83062956D01*
X141578122Y-83129420D01*
X141577785Y-83212987D01*
X141577635Y-83315483D01*
X141577600Y-83438732D01*
X141577600Y-83970296D01*
X141635217Y-83931523D01*
X141644107Y-83925432D01*
X141658931Y-83914976D01*
X141672578Y-83905579D01*
X141686235Y-83897183D01*
X141701089Y-83889733D01*
X141718330Y-83883173D01*
X141739145Y-83877446D01*
X141764720Y-83872495D01*
X141796245Y-83868266D01*
X141834907Y-83864701D01*
X141881893Y-83861744D01*
X141938392Y-83859340D01*
X142005591Y-83857431D01*
X142084678Y-83855962D01*
X142176840Y-83854876D01*
X142283266Y-83854118D01*
X142405143Y-83853630D01*
X142543659Y-83853358D01*
X142700001Y-83853243D01*
X142875358Y-83853231D01*
X143070918Y-83853265D01*
X143287867Y-83853289D01*
X143410487Y-83853280D01*
X143615553Y-83853243D01*
X143799884Y-83853227D01*
X143964666Y-83853288D01*
X144111084Y-83853484D01*
X144240326Y-83853870D01*
X144353578Y-83854505D01*
X144452025Y-83855444D01*
X144536856Y-83856745D01*
X144609256Y-83858464D01*
X144670411Y-83860659D01*
X144721508Y-83863385D01*
X144763733Y-83866701D01*
X144798273Y-83870662D01*
X144826314Y-83875325D01*
X144849042Y-83880747D01*
X144867644Y-83886986D01*
X144883307Y-83894097D01*
X144897216Y-83902138D01*
X144910559Y-83911166D01*
X144924521Y-83921236D01*
X144940289Y-83932407D01*
X144998133Y-83972197D01*
X144998133Y-82912314D01*
X144935034Y-82950311D01*
X144909995Y-82964993D01*
X144882414Y-82979531D01*
X144854300Y-82991627D01*
X144823449Y-83001532D01*
X144787656Y-83009494D01*
X144744717Y-83015761D01*
X144692426Y-83020582D01*
X144628581Y-83024206D01*
X144550975Y-83026881D01*
X144457406Y-83028857D01*
X144345667Y-83030382D01*
X144213555Y-83031704D01*
X144093566Y-83032613D01*
X143976937Y-83033020D01*
X143881469Y-83032767D01*
X143807444Y-83031857D01*
X143755145Y-83030293D01*
X143724851Y-83028079D01*
X143716844Y-83025220D01*
X143720142Y-83022161D01*
X143741592Y-83004006D01*
X143778111Y-82974275D01*
X143827558Y-82934639D01*
X143887793Y-82886771D01*
X143956673Y-82832343D01*
X144032057Y-82773027D01*
X144111804Y-82710495D01*
X144193772Y-82646421D01*
X144275820Y-82582475D01*
X144355806Y-82520331D01*
X144431589Y-82461661D01*
X144501027Y-82408137D01*
X144561979Y-82361430D01*
X144612304Y-82323214D01*
X144649860Y-82295161D01*
X144672505Y-82278943D01*
X144744788Y-82233635D01*
X144824537Y-82193661D01*
X144892812Y-82172130D01*
X144950156Y-82168827D01*
X144998133Y-82174116D01*
X144997883Y-81042356D01*
X144967278Y-81081867D01*
X144959911Y-81091248D01*
X144905562Y-81154183D01*
X144837741Y-81222997D01*
X144754484Y-81299596D01*
X144653822Y-81385888D01*
X144633153Y-81403052D01*
X144583591Y-81443833D01*
X144522674Y-81493588D01*
X144452102Y-81550955D01*
X144373576Y-81614569D01*
X144288796Y-81683069D01*
X144199463Y-81755090D01*
X144107278Y-81829270D01*
X144088298Y-81844517D01*
X144013940Y-81904246D01*
X143921152Y-81978653D01*
X143830612Y-82051131D01*
X143744022Y-82120314D01*
X143663082Y-82184841D01*
X143589494Y-82243347D01*
X143524956Y-82294470D01*
X143471171Y-82336847D01*
X143429838Y-82369115D01*
X143402658Y-82389910D01*
X143391332Y-82397869D01*
X143387229Y-82396111D01*
X143366666Y-82383230D01*
X143330439Y-82358885D01*
X143280176Y-82324247D01*
X143217508Y-82280486D01*
X143144064Y-82228775D01*
X143061473Y-82170284D01*
X142971364Y-82106184D01*
X142875369Y-82037646D01*
X142775115Y-81965843D01*
X142672232Y-81891944D01*
X142568350Y-81817121D01*
X142465099Y-81742545D01*
X142364108Y-81669387D01*
X142267006Y-81598819D01*
X142175423Y-81532011D01*
X142090989Y-81470135D01*
X142015333Y-81414361D01*
X141950084Y-81365862D01*
X141896872Y-81325807D01*
X141857327Y-81295369D01*
X141831974Y-81274944D01*
X141777705Y-81228899D01*
X141721225Y-81178612D01*
X141671331Y-81131815D01*
X141577600Y-81040651D01*
X141577600Y-82195090D01*
X141058613Y-82195090D01*
X141058611Y-82186682D01*
X141058568Y-81919704D01*
X141058563Y-81881321D01*
X141058520Y-81615922D01*
X141058475Y-81372050D01*
X141058452Y-81148783D01*
X141058476Y-80945196D01*
X141058570Y-80760367D01*
X141058757Y-80593373D01*
X141059061Y-80443290D01*
X141059396Y-80342445D01*
X141577600Y-80342445D01*
X141577651Y-80411356D01*
X141577909Y-80509607D01*
X141578363Y-80599030D01*
X141578990Y-80677333D01*
X141579765Y-80742223D01*
X141580665Y-80791411D01*
X141581666Y-80822604D01*
X141582743Y-80833511D01*
X141585963Y-80832322D01*
X141603548Y-80822176D01*
X141629842Y-80805040D01*
X141642309Y-80796540D01*
X141656378Y-80787329D01*
X141670649Y-80779233D01*
X141686521Y-80772185D01*
X141705391Y-80766117D01*
X141728659Y-80760961D01*
X141757722Y-80756651D01*
X141793979Y-80753119D01*
X141838830Y-80750297D01*
X141893672Y-80748118D01*
X141959903Y-80746514D01*
X142038923Y-80745419D01*
X142132129Y-80744765D01*
X142240921Y-80744484D01*
X142366697Y-80744509D01*
X142510855Y-80744772D01*
X142674793Y-80745206D01*
X142859911Y-80745745D01*
X143038768Y-80746279D01*
X143197626Y-80746805D01*
X143336684Y-80747350D01*
X143457335Y-80747945D01*
X143560972Y-80748619D01*
X143648989Y-80749403D01*
X143722777Y-80750326D01*
X143783731Y-80751419D01*
X143833243Y-80752712D01*
X143872707Y-80754235D01*
X143903516Y-80756019D01*
X143927062Y-80758092D01*
X143944740Y-80760486D01*
X143957941Y-80763230D01*
X143968060Y-80766356D01*
X143976489Y-80769892D01*
X143984625Y-80773791D01*
X144021456Y-80793438D01*
X144051609Y-80812225D01*
X144053092Y-80813272D01*
X144075341Y-80827602D01*
X144088298Y-80833511D01*
X144088751Y-80832504D01*
X144090197Y-80815305D01*
X144091520Y-80778656D01*
X144092684Y-80724962D01*
X144093653Y-80656630D01*
X144094389Y-80576064D01*
X144094858Y-80485670D01*
X144095022Y-80387853D01*
X144095022Y-79942195D01*
X142918155Y-79939120D01*
X141741289Y-79936045D01*
X141682378Y-79909407D01*
X141657817Y-79897485D01*
X141627566Y-79880246D01*
X141610440Y-79867074D01*
X141602409Y-79859076D01*
X141587507Y-79851378D01*
X141586235Y-79855260D01*
X141584209Y-79878520D01*
X141582374Y-79920874D01*
X141580773Y-79980132D01*
X141579451Y-80054107D01*
X141578452Y-80140610D01*
X141577820Y-80237452D01*
X141577600Y-80342445D01*
X141059396Y-80342445D01*
X141059506Y-80309196D01*
X141060115Y-80190166D01*
X141060911Y-80085279D01*
X141061920Y-79993610D01*
X141063163Y-79914237D01*
X141064665Y-79846237D01*
X141066449Y-79788686D01*
X141068539Y-79740662D01*
X141070958Y-79701240D01*
X141073730Y-79669499D01*
X141076879Y-79644514D01*
X141080428Y-79625364D01*
X141084402Y-79611123D01*
X141088822Y-79600871D01*
X141093714Y-79593682D01*
X141099100Y-79588635D01*
X141105004Y-79584805D01*
X141111451Y-79581271D01*
X141118463Y-79577108D01*
X141120313Y-79576025D01*
X141125820Y-79573813D01*
X141134132Y-79571786D01*
X141146191Y-79569938D01*
X141162937Y-79568261D01*
X141185313Y-79566745D01*
X141214260Y-79565383D01*
X141250720Y-79564167D01*
X141295633Y-79563089D01*
X141349943Y-79562140D01*
X141414590Y-79561312D01*
X141490516Y-79560597D01*
X141578662Y-79559987D01*
X141679971Y-79559474D01*
X141795383Y-79559050D01*
X141925840Y-79558706D01*
X142072284Y-79558434D01*
X142235656Y-79558227D01*
X142416899Y-79558076D01*
X142616952Y-79557972D01*
X142836759Y-79557908D01*
X143077261Y-79557876D01*
X143339398Y-79557867D01*
X145530969Y-79557867D01*
X145569351Y-79596249D01*
G36*
X145569351Y-79596249D02*
G01*
X145593089Y-79623355D01*
X145604889Y-79650253D01*
X145607733Y-79686560D01*
X145607733Y-79738489D01*
X145519794Y-79738489D01*
X145469898Y-79740427D01*
X145359477Y-79759199D01*
X145258013Y-79796217D01*
X145166848Y-79849369D01*
X145087327Y-79916546D01*
X145020795Y-79995638D01*
X144968594Y-80084534D01*
X144932070Y-80181125D01*
X144912566Y-80283300D01*
X144911427Y-80388950D01*
X144929995Y-80495964D01*
X144969616Y-80602232D01*
X145027484Y-80699219D01*
X145102316Y-80784293D01*
X145190385Y-80853015D01*
X145289384Y-80903918D01*
X145397007Y-80935535D01*
X145510946Y-80946400D01*
X145607733Y-80946400D01*
X145607733Y-82566753D01*
X145607720Y-82777897D01*
X145607670Y-82982020D01*
X145607570Y-83165686D01*
X145607408Y-83329991D01*
X145607171Y-83476029D01*
X145606847Y-83604894D01*
X145606425Y-83717683D01*
X145605891Y-83815488D01*
X145605233Y-83899404D01*
X145604439Y-83970527D01*
X145603496Y-84029950D01*
X145602392Y-84078768D01*
X145601116Y-84118077D01*
X145599653Y-84148969D01*
X145597993Y-84172541D01*
X145596122Y-84189886D01*
X145594028Y-84202099D01*
X145591700Y-84210275D01*
X145589124Y-84215508D01*
X145585555Y-84221504D01*
X145582022Y-84228279D01*
X145578512Y-84234478D01*
X145574082Y-84240126D01*
X145567792Y-84245247D01*
X145558699Y-84249869D01*
X145545861Y-84254015D01*
X145528338Y-84257713D01*
X145505187Y-84260987D01*
X145475466Y-84263863D01*
X145438235Y-84266367D01*
X145392551Y-84268524D01*
X145337473Y-84270360D01*
X145272059Y-84271900D01*
X145195367Y-84273170D01*
X145106456Y-84274195D01*
X145004383Y-84275001D01*
X144998133Y-84275034D01*
X144888208Y-84275614D01*
X144756989Y-84276059D01*
X144609784Y-84276362D01*
X144445651Y-84276548D01*
X144263648Y-84276642D01*
X144062835Y-84276671D01*
X143842268Y-84276661D01*
X143601008Y-84276636D01*
X143338111Y-84276622D01*
X143295960Y-84276622D01*
X143035332Y-84276646D01*
X142796204Y-84276685D01*
X142577640Y-84276708D01*
X142378705Y-84276687D01*
X142198465Y-84276593D01*
X142035985Y-84276395D01*
X141890330Y-84276063D01*
X141760566Y-84275569D01*
X141645757Y-84274883D01*
X141544970Y-84273976D01*
X141457270Y-84272817D01*
X141381721Y-84271378D01*
X141317389Y-84269629D01*
X141263339Y-84267540D01*
X141218637Y-84265083D01*
X141182348Y-84262227D01*
X141153537Y-84258943D01*
X141131269Y-84255202D01*
X141114610Y-84250974D01*
X141102625Y-84246229D01*
X141094379Y-84240939D01*
X141088938Y-84235073D01*
X141085366Y-84228602D01*
X141082730Y-84221497D01*
X141080094Y-84213728D01*
X141076523Y-84205266D01*
X141074855Y-84200908D01*
X141072889Y-84192395D01*
X141071089Y-84179694D01*
X141069445Y-84161885D01*
X141067953Y-84138049D01*
X141066603Y-84107266D01*
X141065389Y-84068617D01*
X141064303Y-84021182D01*
X141063339Y-83964043D01*
X141062489Y-83896279D01*
X141061747Y-83816971D01*
X141061103Y-83725199D01*
X141060553Y-83620044D01*
X141060087Y-83500587D01*
X141059700Y-83365908D01*
X141059384Y-83215088D01*
X141059131Y-83047206D01*
X141058934Y-82861345D01*
X141058787Y-82656583D01*
X141058682Y-82432002D01*
X141058613Y-82195090D01*
X141577600Y-82195090D01*
X141653800Y-82194456D01*
X141695840Y-82195574D01*
X141731666Y-82201304D01*
X141769228Y-82213890D01*
X141817423Y-82235568D01*
X141824103Y-82238789D01*
X141873641Y-82264188D01*
X141921631Y-82290996D01*
X141958534Y-82313917D01*
X141965166Y-82318485D01*
X141996407Y-82340516D01*
X142041346Y-82372693D01*
X142097853Y-82413457D01*
X142163796Y-82461245D01*
X142237043Y-82514498D01*
X142315464Y-82571655D01*
X142396928Y-82631155D01*
X142479302Y-82691437D01*
X142560456Y-82750940D01*
X142638258Y-82808105D01*
X142710577Y-82861370D01*
X142775282Y-82909174D01*
X142830241Y-82949957D01*
X142873324Y-82982158D01*
X142902398Y-83004216D01*
X142915333Y-83014571D01*
X142919649Y-83019044D01*
X142921688Y-83023236D01*
X142919074Y-83026643D01*
X142910014Y-83029325D01*
X142892715Y-83031341D01*
X142865386Y-83032748D01*
X142826235Y-83033605D01*
X142773467Y-83033970D01*
X142705293Y-83033903D01*
X142619918Y-83033460D01*
X142515551Y-83032702D01*
X142390400Y-83031685D01*
X142345700Y-83031308D01*
X142224605Y-83030169D01*
X142123312Y-83028972D01*
X142039738Y-83027636D01*
X141971796Y-83026077D01*
X141917401Y-83024215D01*
X141874468Y-83021966D01*
X141840911Y-83019248D01*
X141814645Y-83015979D01*
X141793584Y-83012078D01*
X141775643Y-83007461D01*
X141749230Y-82999192D01*
X141687228Y-82975583D01*
X141634427Y-82949685D01*
X141597355Y-82924535D01*
X141595925Y-82923339D01*
X141591576Y-82921168D01*
X141587974Y-82923328D01*
X141585049Y-82931644D01*
X141582731Y-82947940D01*
X141580949Y-82974041D01*
X141579633Y-83011771D01*
X141578714Y-83062956D01*
X141578122Y-83129420D01*
X141577785Y-83212987D01*
X141577635Y-83315483D01*
X141577600Y-83438732D01*
X141577600Y-83970296D01*
X141635217Y-83931523D01*
X141644107Y-83925432D01*
X141658931Y-83914976D01*
X141672578Y-83905579D01*
X141686235Y-83897183D01*
X141701089Y-83889733D01*
X141718330Y-83883173D01*
X141739145Y-83877446D01*
X141764720Y-83872495D01*
X141796245Y-83868266D01*
X141834907Y-83864701D01*
X141881893Y-83861744D01*
X141938392Y-83859340D01*
X142005591Y-83857431D01*
X142084678Y-83855962D01*
X142176840Y-83854876D01*
X142283266Y-83854118D01*
X142405143Y-83853630D01*
X142543659Y-83853358D01*
X142700001Y-83853243D01*
X142875358Y-83853231D01*
X143070918Y-83853265D01*
X143287867Y-83853289D01*
X143410487Y-83853280D01*
X143615553Y-83853243D01*
X143799884Y-83853227D01*
X143964666Y-83853288D01*
X144111084Y-83853484D01*
X144240326Y-83853870D01*
X144353578Y-83854505D01*
X144452025Y-83855444D01*
X144536856Y-83856745D01*
X144609256Y-83858464D01*
X144670411Y-83860659D01*
X144721508Y-83863385D01*
X144763733Y-83866701D01*
X144798273Y-83870662D01*
X144826314Y-83875325D01*
X144849042Y-83880747D01*
X144867644Y-83886986D01*
X144883307Y-83894097D01*
X144897216Y-83902138D01*
X144910559Y-83911166D01*
X144924521Y-83921236D01*
X144940289Y-83932407D01*
X144998133Y-83972197D01*
X144998133Y-82912314D01*
X144935034Y-82950311D01*
X144909995Y-82964993D01*
X144882414Y-82979531D01*
X144854300Y-82991627D01*
X144823449Y-83001532D01*
X144787656Y-83009494D01*
X144744717Y-83015761D01*
X144692426Y-83020582D01*
X144628581Y-83024206D01*
X144550975Y-83026881D01*
X144457406Y-83028857D01*
X144345667Y-83030382D01*
X144213555Y-83031704D01*
X144093566Y-83032613D01*
X143976937Y-83033020D01*
X143881469Y-83032767D01*
X143807444Y-83031857D01*
X143755145Y-83030293D01*
X143724851Y-83028079D01*
X143716844Y-83025220D01*
X143720142Y-83022161D01*
X143741592Y-83004006D01*
X143778111Y-82974275D01*
X143827558Y-82934639D01*
X143887793Y-82886771D01*
X143956673Y-82832343D01*
X144032057Y-82773027D01*
X144111804Y-82710495D01*
X144193772Y-82646421D01*
X144275820Y-82582475D01*
X144355806Y-82520331D01*
X144431589Y-82461661D01*
X144501027Y-82408137D01*
X144561979Y-82361430D01*
X144612304Y-82323214D01*
X144649860Y-82295161D01*
X144672505Y-82278943D01*
X144744788Y-82233635D01*
X144824537Y-82193661D01*
X144892812Y-82172130D01*
X144950156Y-82168827D01*
X144998133Y-82174116D01*
X144997883Y-81042356D01*
X144967278Y-81081867D01*
X144959911Y-81091248D01*
X144905562Y-81154183D01*
X144837741Y-81222997D01*
X144754484Y-81299596D01*
X144653822Y-81385888D01*
X144633153Y-81403052D01*
X144583591Y-81443833D01*
X144522674Y-81493588D01*
X144452102Y-81550955D01*
X144373576Y-81614569D01*
X144288796Y-81683069D01*
X144199463Y-81755090D01*
X144107278Y-81829270D01*
X144088298Y-81844517D01*
X144013940Y-81904246D01*
X143921152Y-81978653D01*
X143830612Y-82051131D01*
X143744022Y-82120314D01*
X143663082Y-82184841D01*
X143589494Y-82243347D01*
X143524956Y-82294470D01*
X143471171Y-82336847D01*
X143429838Y-82369115D01*
X143402658Y-82389910D01*
X143391332Y-82397869D01*
X143387229Y-82396111D01*
X143366666Y-82383230D01*
X143330439Y-82358885D01*
X143280176Y-82324247D01*
X143217508Y-82280486D01*
X143144064Y-82228775D01*
X143061473Y-82170284D01*
X142971364Y-82106184D01*
X142875369Y-82037646D01*
X142775115Y-81965843D01*
X142672232Y-81891944D01*
X142568350Y-81817121D01*
X142465099Y-81742545D01*
X142364108Y-81669387D01*
X142267006Y-81598819D01*
X142175423Y-81532011D01*
X142090989Y-81470135D01*
X142015333Y-81414361D01*
X141950084Y-81365862D01*
X141896872Y-81325807D01*
X141857327Y-81295369D01*
X141831974Y-81274944D01*
X141777705Y-81228899D01*
X141721225Y-81178612D01*
X141671331Y-81131815D01*
X141577600Y-81040651D01*
X141577600Y-82195090D01*
X141058613Y-82195090D01*
X141058611Y-82186682D01*
X141058568Y-81919704D01*
X141058563Y-81881321D01*
X141058520Y-81615922D01*
X141058475Y-81372050D01*
X141058452Y-81148783D01*
X141058476Y-80945196D01*
X141058570Y-80760367D01*
X141058757Y-80593373D01*
X141059061Y-80443290D01*
X141059396Y-80342445D01*
X141577600Y-80342445D01*
X141577651Y-80411356D01*
X141577909Y-80509607D01*
X141578363Y-80599030D01*
X141578990Y-80677333D01*
X141579765Y-80742223D01*
X141580665Y-80791411D01*
X141581666Y-80822604D01*
X141582743Y-80833511D01*
X141585963Y-80832322D01*
X141603548Y-80822176D01*
X141629842Y-80805040D01*
X141642309Y-80796540D01*
X141656378Y-80787329D01*
X141670649Y-80779233D01*
X141686521Y-80772185D01*
X141705391Y-80766117D01*
X141728659Y-80760961D01*
X141757722Y-80756651D01*
X141793979Y-80753119D01*
X141838830Y-80750297D01*
X141893672Y-80748118D01*
X141959903Y-80746514D01*
X142038923Y-80745419D01*
X142132129Y-80744765D01*
X142240921Y-80744484D01*
X142366697Y-80744509D01*
X142510855Y-80744772D01*
X142674793Y-80745206D01*
X142859911Y-80745745D01*
X143038768Y-80746279D01*
X143197626Y-80746805D01*
X143336684Y-80747350D01*
X143457335Y-80747945D01*
X143560972Y-80748619D01*
X143648989Y-80749403D01*
X143722777Y-80750326D01*
X143783731Y-80751419D01*
X143833243Y-80752712D01*
X143872707Y-80754235D01*
X143903516Y-80756019D01*
X143927062Y-80758092D01*
X143944740Y-80760486D01*
X143957941Y-80763230D01*
X143968060Y-80766356D01*
X143976489Y-80769892D01*
X143984625Y-80773791D01*
X144021456Y-80793438D01*
X144051609Y-80812225D01*
X144053092Y-80813272D01*
X144075341Y-80827602D01*
X144088298Y-80833511D01*
X144088751Y-80832504D01*
X144090197Y-80815305D01*
X144091520Y-80778656D01*
X144092684Y-80724962D01*
X144093653Y-80656630D01*
X144094389Y-80576064D01*
X144094858Y-80485670D01*
X144095022Y-80387853D01*
X144095022Y-79942195D01*
X142918155Y-79939120D01*
X141741289Y-79936045D01*
X141682378Y-79909407D01*
X141657817Y-79897485D01*
X141627566Y-79880246D01*
X141610440Y-79867074D01*
X141602409Y-79859076D01*
X141587507Y-79851378D01*
X141586235Y-79855260D01*
X141584209Y-79878520D01*
X141582374Y-79920874D01*
X141580773Y-79980132D01*
X141579451Y-80054107D01*
X141578452Y-80140610D01*
X141577820Y-80237452D01*
X141577600Y-80342445D01*
X141059396Y-80342445D01*
X141059506Y-80309196D01*
X141060115Y-80190166D01*
X141060911Y-80085279D01*
X141061920Y-79993610D01*
X141063163Y-79914237D01*
X141064665Y-79846237D01*
X141066449Y-79788686D01*
X141068539Y-79740662D01*
X141070958Y-79701240D01*
X141073730Y-79669499D01*
X141076879Y-79644514D01*
X141080428Y-79625364D01*
X141084402Y-79611123D01*
X141088822Y-79600871D01*
X141093714Y-79593682D01*
X141099100Y-79588635D01*
X141105004Y-79584805D01*
X141111451Y-79581271D01*
X141118463Y-79577108D01*
X141120313Y-79576025D01*
X141125820Y-79573813D01*
X141134132Y-79571786D01*
X141146191Y-79569938D01*
X141162937Y-79568261D01*
X141185313Y-79566745D01*
X141214260Y-79565383D01*
X141250720Y-79564167D01*
X141295633Y-79563089D01*
X141349943Y-79562140D01*
X141414590Y-79561312D01*
X141490516Y-79560597D01*
X141578662Y-79559987D01*
X141679971Y-79559474D01*
X141795383Y-79559050D01*
X141925840Y-79558706D01*
X142072284Y-79558434D01*
X142235656Y-79558227D01*
X142416899Y-79558076D01*
X142616952Y-79557972D01*
X142836759Y-79557908D01*
X143077261Y-79557876D01*
X143339398Y-79557867D01*
X145530969Y-79557867D01*
X145569351Y-79596249D01*
G37*
X141512059Y-47129442D02*
X141528755Y-47157289D01*
X141541970Y-47200540D01*
X141548522Y-47247464D01*
X141546055Y-47287128D01*
X141536432Y-47317954D01*
X141520437Y-47355916D01*
X141511841Y-47374296D01*
X141510287Y-47387561D01*
X141522202Y-47390495D01*
X141522539Y-47390498D01*
X141533913Y-47396709D01*
X141539744Y-47418131D01*
X141541386Y-47459653D01*
X141541386Y-47528812D01*
X140937821Y-47528812D01*
X140937821Y-47390495D01*
X141353973Y-47390495D01*
X141385839Y-47356110D01*
X141394896Y-47345368D01*
X141410370Y-47313370D01*
X141410990Y-47273965D01*
X141397336Y-47220312D01*
X141396471Y-47202225D01*
X141409717Y-47181008D01*
X141441200Y-47152768D01*
X141458615Y-47139069D01*
X141483203Y-47122868D01*
X141498855Y-47120371D01*
X141512059Y-47129442D01*
G36*
X141512059Y-47129442D02*
G01*
X141528755Y-47157289D01*
X141541970Y-47200540D01*
X141548522Y-47247464D01*
X141546055Y-47287128D01*
X141536432Y-47317954D01*
X141520437Y-47355916D01*
X141511841Y-47374296D01*
X141510287Y-47387561D01*
X141522202Y-47390495D01*
X141522539Y-47390498D01*
X141533913Y-47396709D01*
X141539744Y-47418131D01*
X141541386Y-47459653D01*
X141541386Y-47528812D01*
X140937821Y-47528812D01*
X140937821Y-47390495D01*
X141353973Y-47390495D01*
X141385839Y-47356110D01*
X141394896Y-47345368D01*
X141410370Y-47313370D01*
X141410990Y-47273965D01*
X141397336Y-47220312D01*
X141396471Y-47202225D01*
X141409717Y-47181008D01*
X141441200Y-47152768D01*
X141458615Y-47139069D01*
X141483203Y-47122868D01*
X141498855Y-47120371D01*
X141512059Y-47129442D01*
G37*
X140574875Y-47288886D02*
X140588985Y-47316405D01*
X140598514Y-47364745D01*
X140598826Y-47419230D01*
X140590035Y-47470265D01*
X140572255Y-47508255D01*
X140546194Y-47541386D01*
X140572255Y-47541386D01*
X140582151Y-47542211D01*
X140592642Y-47549893D01*
X140597275Y-47570667D01*
X140598317Y-47610544D01*
X140598317Y-47679703D01*
X139982178Y-47679703D01*
X139982178Y-47541386D01*
X140182774Y-47541386D01*
X140194290Y-47541369D01*
X140275242Y-47540189D01*
X140341183Y-47537294D01*
X140388742Y-47532888D01*
X140414548Y-47527181D01*
X140424290Y-47521940D01*
X140454844Y-47489676D01*
X140468369Y-47445730D01*
X140462059Y-47397743D01*
X140457783Y-47385973D01*
X140450224Y-47360898D01*
X140452572Y-47343762D01*
X140467936Y-47326518D01*
X140499429Y-47301124D01*
X140551432Y-47259936D01*
X140574875Y-47288886D01*
G36*
X140574875Y-47288886D02*
G01*
X140588985Y-47316405D01*
X140598514Y-47364745D01*
X140598826Y-47419230D01*
X140590035Y-47470265D01*
X140572255Y-47508255D01*
X140546194Y-47541386D01*
X140572255Y-47541386D01*
X140582151Y-47542211D01*
X140592642Y-47549893D01*
X140597275Y-47570667D01*
X140598317Y-47610544D01*
X140598317Y-47679703D01*
X139982178Y-47679703D01*
X139982178Y-47541386D01*
X140182774Y-47541386D01*
X140194290Y-47541369D01*
X140275242Y-47540189D01*
X140341183Y-47537294D01*
X140388742Y-47532888D01*
X140414548Y-47527181D01*
X140424290Y-47521940D01*
X140454844Y-47489676D01*
X140468369Y-47445730D01*
X140462059Y-47397743D01*
X140457783Y-47385973D01*
X140450224Y-47360898D01*
X140452572Y-47343762D01*
X140467936Y-47326518D01*
X140499429Y-47301124D01*
X140551432Y-47259936D01*
X140574875Y-47288886D01*
G37*
X140563912Y-49692543D02*
X140580116Y-49715602D01*
X140591487Y-49751995D01*
X140597260Y-49796544D01*
X140596666Y-49844072D01*
X140588937Y-49889400D01*
X140573306Y-49927351D01*
X140566007Y-49939381D01*
X140555324Y-49959632D01*
X140557770Y-49967129D01*
X140573353Y-49968218D01*
X140578947Y-49968473D01*
X140591340Y-49974539D01*
X140596980Y-49993356D01*
X140598317Y-50031089D01*
X140598317Y-50093960D01*
X139982178Y-50093960D01*
X139982178Y-49968218D01*
X140176260Y-49968218D01*
X140221406Y-49968078D01*
X140296177Y-49966649D01*
X140351533Y-49963029D01*
X140391298Y-49956434D01*
X140419300Y-49946079D01*
X140439365Y-49931178D01*
X140455319Y-49910946D01*
X140467208Y-49888859D01*
X140470579Y-49862705D01*
X140463083Y-49825508D01*
X140459962Y-49813555D01*
X140455265Y-49783718D01*
X140461995Y-49762383D01*
X140482823Y-49737655D01*
X140487353Y-49732963D01*
X140515374Y-49707020D01*
X140538157Y-49690291D01*
X140543645Y-49687996D01*
X140563912Y-49692543D01*
G36*
X140563912Y-49692543D02*
G01*
X140580116Y-49715602D01*
X140591487Y-49751995D01*
X140597260Y-49796544D01*
X140596666Y-49844072D01*
X140588937Y-49889400D01*
X140573306Y-49927351D01*
X140566007Y-49939381D01*
X140555324Y-49959632D01*
X140557770Y-49967129D01*
X140573353Y-49968218D01*
X140578947Y-49968473D01*
X140591340Y-49974539D01*
X140596980Y-49993356D01*
X140598317Y-50031089D01*
X140598317Y-50093960D01*
X139982178Y-50093960D01*
X139982178Y-49968218D01*
X140176260Y-49968218D01*
X140221406Y-49968078D01*
X140296177Y-49966649D01*
X140351533Y-49963029D01*
X140391298Y-49956434D01*
X140419300Y-49946079D01*
X140439365Y-49931178D01*
X140455319Y-49910946D01*
X140467208Y-49888859D01*
X140470579Y-49862705D01*
X140463083Y-49825508D01*
X140459962Y-49813555D01*
X140455265Y-49783718D01*
X140461995Y-49762383D01*
X140482823Y-49737655D01*
X140487353Y-49732963D01*
X140515374Y-49707020D01*
X140538157Y-49690291D01*
X140543645Y-49687996D01*
X140563912Y-49692543D01*
G37*
X141541386Y-47780297D02*
X141345658Y-47780297D01*
X141257606Y-47781357D01*
X141186490Y-47785509D01*
X141134801Y-47793921D01*
X141099640Y-47807757D01*
X141078111Y-47828182D01*
X141067318Y-47856364D01*
X141064364Y-47893465D01*
X141067000Y-47928890D01*
X141077321Y-47957500D01*
X141098228Y-47978296D01*
X141132619Y-47992442D01*
X141183390Y-48001103D01*
X141253437Y-48005445D01*
X141345658Y-48006633D01*
X141541386Y-48006633D01*
X141541386Y-48132376D01*
X141305422Y-48132376D01*
X141242439Y-48132160D01*
X141160993Y-48130484D01*
X141098879Y-48126277D01*
X141052542Y-48118521D01*
X141018427Y-48106196D01*
X140992978Y-48088285D01*
X140972638Y-48063767D01*
X140953853Y-48031623D01*
X140930072Y-47964125D01*
X140928520Y-47893681D01*
X140950420Y-47827264D01*
X140964617Y-47798286D01*
X140966739Y-47783909D01*
X140956707Y-47780297D01*
X140945444Y-47774299D01*
X140939511Y-47752830D01*
X140937821Y-47711138D01*
X140937821Y-47641980D01*
X141541386Y-47641980D01*
X141541386Y-47780297D01*
G36*
X141541386Y-47780297D02*
G01*
X141345658Y-47780297D01*
X141257606Y-47781357D01*
X141186490Y-47785509D01*
X141134801Y-47793921D01*
X141099640Y-47807757D01*
X141078111Y-47828182D01*
X141067318Y-47856364D01*
X141064364Y-47893465D01*
X141067000Y-47928890D01*
X141077321Y-47957500D01*
X141098228Y-47978296D01*
X141132619Y-47992442D01*
X141183390Y-48001103D01*
X141253437Y-48005445D01*
X141345658Y-48006633D01*
X141541386Y-48006633D01*
X141541386Y-48132376D01*
X141305422Y-48132376D01*
X141242439Y-48132160D01*
X141160993Y-48130484D01*
X141098879Y-48126277D01*
X141052542Y-48118521D01*
X141018427Y-48106196D01*
X140992978Y-48088285D01*
X140972638Y-48063767D01*
X140953853Y-48031623D01*
X140930072Y-47964125D01*
X140928520Y-47893681D01*
X140950420Y-47827264D01*
X140964617Y-47798286D01*
X140966739Y-47783909D01*
X140956707Y-47780297D01*
X140945444Y-47774299D01*
X140939511Y-47752830D01*
X140937821Y-47711138D01*
X140937821Y-47641980D01*
X141541386Y-47641980D01*
X141541386Y-47780297D01*
G37*
X141161015Y-49628989D02*
X141170956Y-49629008D01*
X141265894Y-49630207D01*
X141339642Y-49633891D01*
X141395786Y-49641006D01*
X141437913Y-49652500D01*
X141469609Y-49669318D01*
X141494459Y-49692409D01*
X141516050Y-49722717D01*
X141530998Y-49754012D01*
X141544579Y-49817037D01*
X141542576Y-49882605D01*
X141524566Y-49939926D01*
X141512326Y-49965199D01*
X141511062Y-49977910D01*
X141522202Y-49980792D01*
X141522539Y-49980795D01*
X141533913Y-49987006D01*
X141539744Y-50008428D01*
X141541386Y-50049950D01*
X141541386Y-50119109D01*
X140937821Y-50119109D01*
X140937821Y-49980792D01*
X141145868Y-49980792D01*
X141216121Y-49980697D01*
X141273830Y-49980051D01*
X141314213Y-49978320D01*
X141341385Y-49974974D01*
X141359460Y-49969481D01*
X141372553Y-49961310D01*
X141384779Y-49949928D01*
X141397783Y-49934424D01*
X141415255Y-49889843D01*
X141410127Y-49843047D01*
X141382493Y-49800180D01*
X141369632Y-49787927D01*
X141356616Y-49779132D01*
X141339294Y-49773233D01*
X141313499Y-49769651D01*
X141275061Y-49767809D01*
X141219811Y-49767128D01*
X141143582Y-49767030D01*
X140937821Y-49767030D01*
X140937821Y-49628713D01*
X141161015Y-49628989D01*
G36*
X141161015Y-49628989D02*
G01*
X141170956Y-49629008D01*
X141265894Y-49630207D01*
X141339642Y-49633891D01*
X141395786Y-49641006D01*
X141437913Y-49652500D01*
X141469609Y-49669318D01*
X141494459Y-49692409D01*
X141516050Y-49722717D01*
X141530998Y-49754012D01*
X141544579Y-49817037D01*
X141542576Y-49882605D01*
X141524566Y-49939926D01*
X141512326Y-49965199D01*
X141511062Y-49977910D01*
X141522202Y-49980792D01*
X141522539Y-49980795D01*
X141533913Y-49987006D01*
X141539744Y-50008428D01*
X141541386Y-50049950D01*
X141541386Y-50119109D01*
X140937821Y-50119109D01*
X140937821Y-49980792D01*
X141145868Y-49980792D01*
X141216121Y-49980697D01*
X141273830Y-49980051D01*
X141314213Y-49978320D01*
X141341385Y-49974974D01*
X141359460Y-49969481D01*
X141372553Y-49961310D01*
X141384779Y-49949928D01*
X141397783Y-49934424D01*
X141415255Y-49889843D01*
X141410127Y-49843047D01*
X141382493Y-49800180D01*
X141369632Y-49787927D01*
X141356616Y-49779132D01*
X141339294Y-49773233D01*
X141313499Y-49769651D01*
X141275061Y-49767809D01*
X141219811Y-49767128D01*
X141143582Y-49767030D01*
X140937821Y-49767030D01*
X140937821Y-49628713D01*
X141161015Y-49628989D01*
G37*
X141071490Y-46675351D02*
X141096591Y-46701296D01*
X141110566Y-46724764D01*
X141107489Y-46746524D01*
X141088713Y-46774356D01*
X141081362Y-46785454D01*
X141066317Y-46832337D01*
X141066327Y-46886224D01*
X141081832Y-46936675D01*
X141094284Y-46955672D01*
X141131054Y-46983537D01*
X141185061Y-46997506D01*
X141258669Y-46998405D01*
X141258711Y-46998403D01*
X141324567Y-46988009D01*
X141370228Y-46965114D01*
X141398472Y-46927439D01*
X141412080Y-46872708D01*
X141413910Y-46838241D01*
X141406416Y-46808126D01*
X141384705Y-46777240D01*
X141351074Y-46737272D01*
X141391750Y-46686656D01*
X141407333Y-46668163D01*
X141429660Y-46645065D01*
X141442817Y-46636039D01*
X141448747Y-46639236D01*
X141466952Y-46657646D01*
X141490105Y-46686973D01*
X141505170Y-46709920D01*
X141536120Y-46782774D01*
X141546927Y-46858799D01*
X141538507Y-46933409D01*
X141511776Y-47002021D01*
X141467649Y-47060048D01*
X141407042Y-47102907D01*
X141400863Y-47105801D01*
X141340591Y-47124176D01*
X141268593Y-47133357D01*
X141193631Y-47133285D01*
X141124464Y-47123901D01*
X141069851Y-47105149D01*
X141031788Y-47081995D01*
X140977865Y-47031030D01*
X140943589Y-46967306D01*
X140929728Y-46912785D01*
X140928215Y-46829767D01*
X140949118Y-46750326D01*
X140991536Y-46679879D01*
X141029120Y-46634284D01*
X141071490Y-46675351D01*
G36*
X141071490Y-46675351D02*
G01*
X141096591Y-46701296D01*
X141110566Y-46724764D01*
X141107489Y-46746524D01*
X141088713Y-46774356D01*
X141081362Y-46785454D01*
X141066317Y-46832337D01*
X141066327Y-46886224D01*
X141081832Y-46936675D01*
X141094284Y-46955672D01*
X141131054Y-46983537D01*
X141185061Y-46997506D01*
X141258669Y-46998405D01*
X141258711Y-46998403D01*
X141324567Y-46988009D01*
X141370228Y-46965114D01*
X141398472Y-46927439D01*
X141412080Y-46872708D01*
X141413910Y-46838241D01*
X141406416Y-46808126D01*
X141384705Y-46777240D01*
X141351074Y-46737272D01*
X141391750Y-46686656D01*
X141407333Y-46668163D01*
X141429660Y-46645065D01*
X141442817Y-46636039D01*
X141448747Y-46639236D01*
X141466952Y-46657646D01*
X141490105Y-46686973D01*
X141505170Y-46709920D01*
X141536120Y-46782774D01*
X141546927Y-46858799D01*
X141538507Y-46933409D01*
X141511776Y-47002021D01*
X141467649Y-47060048D01*
X141407042Y-47102907D01*
X141400863Y-47105801D01*
X141340591Y-47124176D01*
X141268593Y-47133357D01*
X141193631Y-47133285D01*
X141124464Y-47123901D01*
X141069851Y-47105149D01*
X141031788Y-47081995D01*
X140977865Y-47031030D01*
X140943589Y-46967306D01*
X140929728Y-46912785D01*
X140928215Y-46829767D01*
X140949118Y-46750326D01*
X140991536Y-46679879D01*
X141029120Y-46634284D01*
X141071490Y-46675351D01*
G37*
X141304884Y-48235844D02*
X141360879Y-48242366D01*
X141400158Y-48252432D01*
X141444628Y-48275877D01*
X141499308Y-48325637D01*
X141533945Y-48389238D01*
X141547655Y-48464790D01*
X141539552Y-48550399D01*
X141536101Y-48564644D01*
X141506336Y-48630982D01*
X141457470Y-48680971D01*
X141389499Y-48714612D01*
X141302420Y-48731906D01*
X141246234Y-48732410D01*
X141196229Y-48732857D01*
X141156435Y-48729349D01*
X141080462Y-48713844D01*
X141022489Y-48686110D01*
X140978700Y-48643898D01*
X140945278Y-48584960D01*
X140937324Y-48562076D01*
X140928023Y-48506536D01*
X141064896Y-48506536D01*
X141071980Y-48544448D01*
X141082139Y-48559244D01*
X141117666Y-48580014D01*
X141173268Y-48593083D01*
X141246234Y-48597624D01*
X141267238Y-48597551D01*
X141309797Y-48595974D01*
X141337561Y-48590728D01*
X141358075Y-48579723D01*
X141378888Y-48560868D01*
X141404113Y-48524989D01*
X141414427Y-48478280D01*
X141404604Y-48433151D01*
X141376195Y-48395680D01*
X141330747Y-48371943D01*
X141291503Y-48363675D01*
X141226295Y-48359976D01*
X141165455Y-48367549D01*
X141115462Y-48385341D01*
X141082796Y-48412296D01*
X141077188Y-48422513D01*
X141066993Y-48461473D01*
X141064896Y-48506536D01*
X140928023Y-48506536D01*
X140927399Y-48502812D01*
X140927669Y-48440447D01*
X140938570Y-48387823D01*
X140938966Y-48386789D01*
X140963913Y-48344381D01*
X141002532Y-48301537D01*
X141046694Y-48265986D01*
X141088273Y-48245459D01*
X141118666Y-48239374D01*
X141175571Y-48234164D01*
X141240379Y-48233049D01*
X141304884Y-48235844D01*
G36*
X141304884Y-48235844D02*
G01*
X141360879Y-48242366D01*
X141400158Y-48252432D01*
X141444628Y-48275877D01*
X141499308Y-48325637D01*
X141533945Y-48389238D01*
X141547655Y-48464790D01*
X141539552Y-48550399D01*
X141536101Y-48564644D01*
X141506336Y-48630982D01*
X141457470Y-48680971D01*
X141389499Y-48714612D01*
X141302420Y-48731906D01*
X141246234Y-48732410D01*
X141196229Y-48732857D01*
X141156435Y-48729349D01*
X141080462Y-48713844D01*
X141022489Y-48686110D01*
X140978700Y-48643898D01*
X140945278Y-48584960D01*
X140937324Y-48562076D01*
X140928023Y-48506536D01*
X141064896Y-48506536D01*
X141071980Y-48544448D01*
X141082139Y-48559244D01*
X141117666Y-48580014D01*
X141173268Y-48593083D01*
X141246234Y-48597624D01*
X141267238Y-48597551D01*
X141309797Y-48595974D01*
X141337561Y-48590728D01*
X141358075Y-48579723D01*
X141378888Y-48560868D01*
X141404113Y-48524989D01*
X141414427Y-48478280D01*
X141404604Y-48433151D01*
X141376195Y-48395680D01*
X141330747Y-48371943D01*
X141291503Y-48363675D01*
X141226295Y-48359976D01*
X141165455Y-48367549D01*
X141115462Y-48385341D01*
X141082796Y-48412296D01*
X141077188Y-48422513D01*
X141066993Y-48461473D01*
X141064896Y-48506536D01*
X140928023Y-48506536D01*
X140927399Y-48502812D01*
X140927669Y-48440447D01*
X140938570Y-48387823D01*
X140938966Y-48386789D01*
X140963913Y-48344381D01*
X141002532Y-48301537D01*
X141046694Y-48265986D01*
X141088273Y-48245459D01*
X141118666Y-48239374D01*
X141175571Y-48234164D01*
X141240379Y-48233049D01*
X141304884Y-48235844D01*
G37*
X140598317Y-48428612D02*
X140469430Y-48463274D01*
X140435375Y-48472488D01*
X140371885Y-48489915D01*
X140314126Y-48506054D01*
X140271386Y-48518322D01*
X140202227Y-48538709D01*
X140592029Y-48668745D01*
X140595763Y-48718476D01*
X140599496Y-48768206D01*
X140400870Y-48832997D01*
X140350150Y-48849997D01*
X140294003Y-48870107D01*
X140251468Y-48886899D01*
X140226010Y-48898986D01*
X140221097Y-48904980D01*
X140225370Y-48906426D01*
X140251578Y-48914254D01*
X140295351Y-48926723D01*
X140351789Y-48942447D01*
X140415990Y-48960043D01*
X140592029Y-49007914D01*
X140595848Y-49081007D01*
X140596154Y-49087177D01*
X140596559Y-49126592D01*
X140592513Y-49145533D01*
X140583274Y-49147945D01*
X140574251Y-49144898D01*
X140543368Y-49134874D01*
X140494456Y-49119180D01*
X140431013Y-49098934D01*
X140356538Y-49075256D01*
X140274529Y-49049263D01*
X139982178Y-48956736D01*
X139982178Y-48840993D01*
X140167648Y-48786457D01*
X140201706Y-48776386D01*
X140263622Y-48757775D01*
X140315213Y-48741872D01*
X140351870Y-48730109D01*
X140368982Y-48723918D01*
X140370259Y-48722154D01*
X140359221Y-48713571D01*
X140330031Y-48701316D01*
X140287250Y-48687426D01*
X140284737Y-48686692D01*
X140221600Y-48668096D01*
X140150111Y-48646818D01*
X140085266Y-48627321D01*
X139980878Y-48595705D01*
X139984672Y-48537402D01*
X139988465Y-48479098D01*
X140158218Y-48425098D01*
X140232807Y-48401390D01*
X140316461Y-48374833D01*
X140396658Y-48349404D01*
X140463143Y-48328354D01*
X140598317Y-48285609D01*
X140598317Y-48428612D01*
G36*
X140598317Y-48428612D02*
G01*
X140469430Y-48463274D01*
X140435375Y-48472488D01*
X140371885Y-48489915D01*
X140314126Y-48506054D01*
X140271386Y-48518322D01*
X140202227Y-48538709D01*
X140592029Y-48668745D01*
X140595763Y-48718476D01*
X140599496Y-48768206D01*
X140400870Y-48832997D01*
X140350150Y-48849997D01*
X140294003Y-48870107D01*
X140251468Y-48886899D01*
X140226010Y-48898986D01*
X140221097Y-48904980D01*
X140225370Y-48906426D01*
X140251578Y-48914254D01*
X140295351Y-48926723D01*
X140351789Y-48942447D01*
X140415990Y-48960043D01*
X140592029Y-49007914D01*
X140595848Y-49081007D01*
X140596154Y-49087177D01*
X140596559Y-49126592D01*
X140592513Y-49145533D01*
X140583274Y-49147945D01*
X140574251Y-49144898D01*
X140543368Y-49134874D01*
X140494456Y-49119180D01*
X140431013Y-49098934D01*
X140356538Y-49075256D01*
X140274529Y-49049263D01*
X139982178Y-48956736D01*
X139982178Y-48840993D01*
X140167648Y-48786457D01*
X140201706Y-48776386D01*
X140263622Y-48757775D01*
X140315213Y-48741872D01*
X140351870Y-48730109D01*
X140368982Y-48723918D01*
X140370259Y-48722154D01*
X140359221Y-48713571D01*
X140330031Y-48701316D01*
X140287250Y-48687426D01*
X140284737Y-48686692D01*
X140221600Y-48668096D01*
X140150111Y-48646818D01*
X140085266Y-48627321D01*
X139980878Y-48595705D01*
X139984672Y-48537402D01*
X139988465Y-48479098D01*
X140158218Y-48425098D01*
X140232807Y-48401390D01*
X140316461Y-48374833D01*
X140396658Y-48349404D01*
X140463143Y-48328354D01*
X140598317Y-48285609D01*
X140598317Y-48428612D01*
G37*
X141287649Y-51368583D02*
X141301349Y-51369907D01*
X141389092Y-51388374D01*
X141457207Y-51422540D01*
X141505769Y-51472479D01*
X141534852Y-51538261D01*
X141544529Y-51619961D01*
X141543621Y-51650828D01*
X141532507Y-51714128D01*
X141505979Y-51765889D01*
X141460564Y-51814147D01*
X141451449Y-51821865D01*
X141420752Y-51842681D01*
X141385993Y-51856362D01*
X141341944Y-51863948D01*
X141283379Y-51866479D01*
X141240781Y-51865672D01*
X141205069Y-51864997D01*
X141165690Y-51863373D01*
X141117668Y-51859688D01*
X141083632Y-51853410D01*
X141056662Y-51843044D01*
X141029842Y-51827092D01*
X141028825Y-51826412D01*
X140985371Y-51787132D01*
X140952228Y-51739072D01*
X140932561Y-51683185D01*
X140926176Y-51609666D01*
X140927424Y-51602505D01*
X141063347Y-51602505D01*
X141066878Y-51651802D01*
X141093306Y-51698917D01*
X141105928Y-51712207D01*
X141127535Y-51726397D01*
X141157906Y-51734266D01*
X141205230Y-51738726D01*
X141240781Y-51739955D01*
X141313380Y-51733224D01*
X141365358Y-51712567D01*
X141397001Y-51677894D01*
X141412153Y-51637249D01*
X141410877Y-51588777D01*
X141385297Y-51543845D01*
X141375558Y-51533103D01*
X141358520Y-51519548D01*
X141336228Y-51511505D01*
X141302053Y-51507043D01*
X141249362Y-51504228D01*
X141212477Y-51502920D01*
X141172426Y-51503174D01*
X141145687Y-51507421D01*
X141125141Y-51517096D01*
X141103669Y-51533638D01*
X141082361Y-51556593D01*
X141063347Y-51602505D01*
X140927424Y-51602505D01*
X140938732Y-51537609D01*
X140968989Y-51473201D01*
X141015706Y-51422627D01*
X141037779Y-51408108D01*
X141106398Y-51380993D01*
X141191061Y-51367546D01*
X141287649Y-51368583D01*
G36*
X141287649Y-51368583D02*
G01*
X141301349Y-51369907D01*
X141389092Y-51388374D01*
X141457207Y-51422540D01*
X141505769Y-51472479D01*
X141534852Y-51538261D01*
X141544529Y-51619961D01*
X141543621Y-51650828D01*
X141532507Y-51714128D01*
X141505979Y-51765889D01*
X141460564Y-51814147D01*
X141451449Y-51821865D01*
X141420752Y-51842681D01*
X141385993Y-51856362D01*
X141341944Y-51863948D01*
X141283379Y-51866479D01*
X141240781Y-51865672D01*
X141205069Y-51864997D01*
X141165690Y-51863373D01*
X141117668Y-51859688D01*
X141083632Y-51853410D01*
X141056662Y-51843044D01*
X141029842Y-51827092D01*
X141028825Y-51826412D01*
X140985371Y-51787132D01*
X140952228Y-51739072D01*
X140932561Y-51683185D01*
X140926176Y-51609666D01*
X140927424Y-51602505D01*
X141063347Y-51602505D01*
X141066878Y-51651802D01*
X141093306Y-51698917D01*
X141105928Y-51712207D01*
X141127535Y-51726397D01*
X141157906Y-51734266D01*
X141205230Y-51738726D01*
X141240781Y-51739955D01*
X141313380Y-51733224D01*
X141365358Y-51712567D01*
X141397001Y-51677894D01*
X141412153Y-51637249D01*
X141410877Y-51588777D01*
X141385297Y-51543845D01*
X141375558Y-51533103D01*
X141358520Y-51519548D01*
X141336228Y-51511505D01*
X141302053Y-51507043D01*
X141249362Y-51504228D01*
X141212477Y-51502920D01*
X141172426Y-51503174D01*
X141145687Y-51507421D01*
X141125141Y-51517096D01*
X141103669Y-51533638D01*
X141082361Y-51556593D01*
X141063347Y-51602505D01*
X140927424Y-51602505D01*
X140938732Y-51537609D01*
X140968989Y-51473201D01*
X141015706Y-51422627D01*
X141037779Y-51408108D01*
X141106398Y-51380993D01*
X141191061Y-51367546D01*
X141287649Y-51368583D01*
G37*
X140837227Y-49339505D02*
X140544122Y-49339505D01*
X140567307Y-49365124D01*
X140581718Y-49389792D01*
X140593764Y-49436480D01*
X140597646Y-49491056D01*
X140592880Y-49544354D01*
X140578986Y-49587207D01*
X140559221Y-49617878D01*
X140525551Y-49649471D01*
X140480270Y-49670733D01*
X140419019Y-49683514D01*
X140337437Y-49689664D01*
X140304460Y-49690568D01*
X140283845Y-49690633D01*
X140243187Y-49690761D01*
X140189429Y-49689167D01*
X140151982Y-49685962D01*
X140148550Y-49685413D01*
X140087165Y-49663838D01*
X140035123Y-49624438D01*
X139999865Y-49572752D01*
X139985271Y-49517248D01*
X139986353Y-49451974D01*
X140113418Y-49451974D01*
X140125740Y-49495989D01*
X140160112Y-49533060D01*
X140185265Y-49542859D01*
X140229806Y-49550097D01*
X140283845Y-49553279D01*
X140339272Y-49552277D01*
X140387978Y-49546961D01*
X140421852Y-49537204D01*
X140427407Y-49534087D01*
X140455326Y-49504038D01*
X140467694Y-49463315D01*
X140464817Y-49419579D01*
X140447000Y-49380491D01*
X140414548Y-49353710D01*
X140411819Y-49352603D01*
X140381366Y-49345963D01*
X140335861Y-49341278D01*
X140284070Y-49339505D01*
X140231770Y-49340496D01*
X140196950Y-49344519D01*
X140173095Y-49353108D01*
X140153105Y-49367797D01*
X140123382Y-49406584D01*
X140113418Y-49451974D01*
X139986353Y-49451974D01*
X139986403Y-49448977D01*
X140005971Y-49386173D01*
X140014229Y-49369815D01*
X140023077Y-49348779D01*
X140020324Y-49340774D01*
X140005971Y-49339505D01*
X139998814Y-49338922D01*
X139988228Y-49331394D01*
X139983355Y-49310488D01*
X139982178Y-49270346D01*
X139982178Y-49201188D01*
X140837227Y-49201188D01*
X140837227Y-49339505D01*
G36*
X140837227Y-49339505D02*
G01*
X140544122Y-49339505D01*
X140567307Y-49365124D01*
X140581718Y-49389792D01*
X140593764Y-49436480D01*
X140597646Y-49491056D01*
X140592880Y-49544354D01*
X140578986Y-49587207D01*
X140559221Y-49617878D01*
X140525551Y-49649471D01*
X140480270Y-49670733D01*
X140419019Y-49683514D01*
X140337437Y-49689664D01*
X140304460Y-49690568D01*
X140283845Y-49690633D01*
X140243187Y-49690761D01*
X140189429Y-49689167D01*
X140151982Y-49685962D01*
X140148550Y-49685413D01*
X140087165Y-49663838D01*
X140035123Y-49624438D01*
X139999865Y-49572752D01*
X139985271Y-49517248D01*
X139986353Y-49451974D01*
X140113418Y-49451974D01*
X140125740Y-49495989D01*
X140160112Y-49533060D01*
X140185265Y-49542859D01*
X140229806Y-49550097D01*
X140283845Y-49553279D01*
X140339272Y-49552277D01*
X140387978Y-49546961D01*
X140421852Y-49537204D01*
X140427407Y-49534087D01*
X140455326Y-49504038D01*
X140467694Y-49463315D01*
X140464817Y-49419579D01*
X140447000Y-49380491D01*
X140414548Y-49353710D01*
X140411819Y-49352603D01*
X140381366Y-49345963D01*
X140335861Y-49341278D01*
X140284070Y-49339505D01*
X140231770Y-49340496D01*
X140196950Y-49344519D01*
X140173095Y-49353108D01*
X140153105Y-49367797D01*
X140123382Y-49406584D01*
X140113418Y-49451974D01*
X139986353Y-49451974D01*
X139986403Y-49448977D01*
X140005971Y-49386173D01*
X140014229Y-49369815D01*
X140023077Y-49348779D01*
X140020324Y-49340774D01*
X140005971Y-49339505D01*
X139998814Y-49338922D01*
X139988228Y-49331394D01*
X139983355Y-49310488D01*
X139982178Y-49270346D01*
X139982178Y-49201188D01*
X140837227Y-49201188D01*
X140837227Y-49339505D01*
G37*
X141068468Y-46165625D02*
X141104807Y-46211583D01*
X141077899Y-46266969D01*
X141056095Y-46331056D01*
X141055442Y-46387632D01*
X141075475Y-46433920D01*
X141115685Y-46467230D01*
X141139778Y-46479171D01*
X141160370Y-46485837D01*
X141174280Y-46481980D01*
X141182819Y-46464675D01*
X141187296Y-46430997D01*
X141189022Y-46378021D01*
X141189072Y-46364846D01*
X141302475Y-46364846D01*
X141302824Y-46394603D01*
X141305133Y-46441562D01*
X141309178Y-46473416D01*
X141314458Y-46485148D01*
X141333938Y-46482146D01*
X141371214Y-46460988D01*
X141401836Y-46425731D01*
X141420332Y-46383699D01*
X141421227Y-46342220D01*
X141406396Y-46310997D01*
X141372645Y-46275618D01*
X141330767Y-46253122D01*
X141326310Y-46251805D01*
X141314790Y-46250234D01*
X141307749Y-46256399D01*
X141304084Y-46274654D01*
X141302694Y-46309352D01*
X141302475Y-46364846D01*
X141189072Y-46364846D01*
X141189307Y-46302822D01*
X141189307Y-46120495D01*
X141276508Y-46120495D01*
X141322629Y-46122136D01*
X141368260Y-46126955D01*
X141399107Y-46133840D01*
X141410883Y-46138859D01*
X141463333Y-46175390D01*
X141507079Y-46228175D01*
X141535721Y-46289904D01*
X141543543Y-46322102D01*
X141547104Y-46398820D01*
X141528991Y-46467179D01*
X141491221Y-46525299D01*
X141435809Y-46571302D01*
X141364771Y-46603310D01*
X141314458Y-46612900D01*
X141280122Y-46619444D01*
X141183879Y-46617825D01*
X141181986Y-46617615D01*
X141093675Y-46599535D01*
X141025014Y-46566870D01*
X140974494Y-46518601D01*
X140940607Y-46453713D01*
X140936732Y-46441801D01*
X140925312Y-46367971D01*
X140931680Y-46291614D01*
X140954437Y-46220626D01*
X140992181Y-46162904D01*
X141032128Y-46119667D01*
X141068468Y-46165625D01*
G36*
X141068468Y-46165625D02*
G01*
X141104807Y-46211583D01*
X141077899Y-46266969D01*
X141056095Y-46331056D01*
X141055442Y-46387632D01*
X141075475Y-46433920D01*
X141115685Y-46467230D01*
X141139778Y-46479171D01*
X141160370Y-46485837D01*
X141174280Y-46481980D01*
X141182819Y-46464675D01*
X141187296Y-46430997D01*
X141189022Y-46378021D01*
X141189072Y-46364846D01*
X141302475Y-46364846D01*
X141302824Y-46394603D01*
X141305133Y-46441562D01*
X141309178Y-46473416D01*
X141314458Y-46485148D01*
X141333938Y-46482146D01*
X141371214Y-46460988D01*
X141401836Y-46425731D01*
X141420332Y-46383699D01*
X141421227Y-46342220D01*
X141406396Y-46310997D01*
X141372645Y-46275618D01*
X141330767Y-46253122D01*
X141326310Y-46251805D01*
X141314790Y-46250234D01*
X141307749Y-46256399D01*
X141304084Y-46274654D01*
X141302694Y-46309352D01*
X141302475Y-46364846D01*
X141189072Y-46364846D01*
X141189307Y-46302822D01*
X141189307Y-46120495D01*
X141276508Y-46120495D01*
X141322629Y-46122136D01*
X141368260Y-46126955D01*
X141399107Y-46133840D01*
X141410883Y-46138859D01*
X141463333Y-46175390D01*
X141507079Y-46228175D01*
X141535721Y-46289904D01*
X141543543Y-46322102D01*
X141547104Y-46398820D01*
X141528991Y-46467179D01*
X141491221Y-46525299D01*
X141435809Y-46571302D01*
X141364771Y-46603310D01*
X141314458Y-46612900D01*
X141280122Y-46619444D01*
X141183879Y-46617825D01*
X141181986Y-46617615D01*
X141093675Y-46599535D01*
X141025014Y-46566870D01*
X140974494Y-46518601D01*
X140940607Y-46453713D01*
X140936732Y-46441801D01*
X140925312Y-46367971D01*
X140931680Y-46291614D01*
X140954437Y-46220626D01*
X140992181Y-46162904D01*
X141032128Y-46119667D01*
X141068468Y-46165625D01*
G37*
X141181646Y-48800921D02*
X141230248Y-48821970D01*
X141265054Y-48859864D01*
X141288202Y-48917004D01*
X141301830Y-48995785D01*
X141302817Y-49004834D01*
X141309108Y-49053885D01*
X141315691Y-49093675D01*
X141321292Y-49116312D01*
X141325803Y-49123866D01*
X141349059Y-49136637D01*
X141378829Y-49134563D01*
X141404673Y-49117495D01*
X141410309Y-49108533D01*
X141419340Y-49071188D01*
X141418733Y-49022950D01*
X141409122Y-48972650D01*
X141391142Y-48929115D01*
X141364153Y-48883372D01*
X141405616Y-48847890D01*
X141416150Y-48839280D01*
X141444368Y-48819883D01*
X141463492Y-48811897D01*
X141475219Y-48820283D01*
X141493524Y-48846226D01*
X141513223Y-48883688D01*
X141515630Y-48888966D01*
X141534518Y-48938366D01*
X141543548Y-48985983D01*
X141545361Y-49045072D01*
X141541793Y-49098874D01*
X141523592Y-49171495D01*
X141489856Y-49224546D01*
X141440358Y-49258329D01*
X141374874Y-49273147D01*
X141312180Y-49270147D01*
X141259301Y-49248493D01*
X141220204Y-49206967D01*
X141194127Y-49144736D01*
X141180305Y-49060969D01*
X141173060Y-49006540D01*
X141157385Y-48956860D01*
X141134686Y-48931211D01*
X141105002Y-48929662D01*
X141086493Y-48939984D01*
X141064557Y-48971951D01*
X141054182Y-49017395D01*
X141055601Y-49070649D01*
X141069048Y-49126048D01*
X141094757Y-49177928D01*
X141128987Y-49229653D01*
X141082951Y-49275148D01*
X141036916Y-49320643D01*
X141006124Y-49282921D01*
X140995426Y-49268253D01*
X140971120Y-49226983D01*
X140950175Y-49182327D01*
X140938155Y-49146984D01*
X140929448Y-49095234D01*
X140929333Y-49031435D01*
X140938919Y-48953200D01*
X140963217Y-48882722D01*
X141001812Y-48832836D01*
X141054802Y-48803423D01*
X141122282Y-48794365D01*
X141181646Y-48800921D01*
G36*
X141181646Y-48800921D02*
G01*
X141230248Y-48821970D01*
X141265054Y-48859864D01*
X141288202Y-48917004D01*
X141301830Y-48995785D01*
X141302817Y-49004834D01*
X141309108Y-49053885D01*
X141315691Y-49093675D01*
X141321292Y-49116312D01*
X141325803Y-49123866D01*
X141349059Y-49136637D01*
X141378829Y-49134563D01*
X141404673Y-49117495D01*
X141410309Y-49108533D01*
X141419340Y-49071188D01*
X141418733Y-49022950D01*
X141409122Y-48972650D01*
X141391142Y-48929115D01*
X141364153Y-48883372D01*
X141405616Y-48847890D01*
X141416150Y-48839280D01*
X141444368Y-48819883D01*
X141463492Y-48811897D01*
X141475219Y-48820283D01*
X141493524Y-48846226D01*
X141513223Y-48883688D01*
X141515630Y-48888966D01*
X141534518Y-48938366D01*
X141543548Y-48985983D01*
X141545361Y-49045072D01*
X141541793Y-49098874D01*
X141523592Y-49171495D01*
X141489856Y-49224546D01*
X141440358Y-49258329D01*
X141374874Y-49273147D01*
X141312180Y-49270147D01*
X141259301Y-49248493D01*
X141220204Y-49206967D01*
X141194127Y-49144736D01*
X141180305Y-49060969D01*
X141173060Y-49006540D01*
X141157385Y-48956860D01*
X141134686Y-48931211D01*
X141105002Y-48929662D01*
X141086493Y-48939984D01*
X141064557Y-48971951D01*
X141054182Y-49017395D01*
X141055601Y-49070649D01*
X141069048Y-49126048D01*
X141094757Y-49177928D01*
X141128987Y-49229653D01*
X141082951Y-49275148D01*
X141036916Y-49320643D01*
X141006124Y-49282921D01*
X140995426Y-49268253D01*
X140971120Y-49226983D01*
X140950175Y-49182327D01*
X140938155Y-49146984D01*
X140929448Y-49095234D01*
X140929333Y-49031435D01*
X140938919Y-48953200D01*
X140963217Y-48882722D01*
X141001812Y-48832836D01*
X141054802Y-48803423D01*
X141122282Y-48794365D01*
X141181646Y-48800921D01*
G37*
X140312252Y-46761852D02*
X140318818Y-46761892D01*
X140400035Y-46769758D01*
X140466105Y-46792655D01*
X140523060Y-46832607D01*
X140547152Y-46856979D01*
X140579403Y-46907315D01*
X140595030Y-46967419D01*
X140596129Y-47043338D01*
X140591821Y-47080010D01*
X140569451Y-47147703D01*
X140528737Y-47199530D01*
X140469051Y-47235945D01*
X140389764Y-47257401D01*
X140358587Y-47259579D01*
X140290247Y-47264353D01*
X140243308Y-47262718D01*
X140153541Y-47247827D01*
X140082955Y-47217185D01*
X140031048Y-47170524D01*
X139997314Y-47107574D01*
X139991353Y-47087235D01*
X139983029Y-47014612D01*
X139990054Y-46937928D01*
X140011735Y-46868663D01*
X140024041Y-46844262D01*
X140045121Y-46809275D01*
X140062466Y-46788072D01*
X140066429Y-46784942D01*
X140080923Y-46779085D01*
X140096679Y-46787524D01*
X140120540Y-46813221D01*
X140130928Y-46825622D01*
X140149937Y-46850052D01*
X140157707Y-46862861D01*
X140156906Y-46866530D01*
X140148255Y-46887561D01*
X140133069Y-46918960D01*
X140128074Y-46929197D01*
X140109525Y-46989590D01*
X140114306Y-47042057D01*
X140142500Y-47088065D01*
X140147709Y-47093419D01*
X140180341Y-47119013D01*
X140211658Y-47133637D01*
X140246237Y-47141736D01*
X140246237Y-47019554D01*
X140346831Y-47019554D01*
X140347232Y-47050429D01*
X140349571Y-47096002D01*
X140353535Y-47127348D01*
X140358587Y-47139010D01*
X140400173Y-47129064D01*
X140438987Y-47099947D01*
X140465914Y-47057952D01*
X140475228Y-47009440D01*
X140464728Y-46973723D01*
X140439060Y-46938020D01*
X140405619Y-46910879D01*
X140371782Y-46900099D01*
X140360797Y-46901670D01*
X140353227Y-46909738D01*
X140349025Y-46928967D01*
X140347217Y-46964019D01*
X140346831Y-47019554D01*
X140246237Y-47019554D01*
X140246237Y-46761782D01*
X140312252Y-46761852D01*
G36*
X140312252Y-46761852D02*
G01*
X140318818Y-46761892D01*
X140400035Y-46769758D01*
X140466105Y-46792655D01*
X140523060Y-46832607D01*
X140547152Y-46856979D01*
X140579403Y-46907315D01*
X140595030Y-46967419D01*
X140596129Y-47043338D01*
X140591821Y-47080010D01*
X140569451Y-47147703D01*
X140528737Y-47199530D01*
X140469051Y-47235945D01*
X140389764Y-47257401D01*
X140358587Y-47259579D01*
X140290247Y-47264353D01*
X140243308Y-47262718D01*
X140153541Y-47247827D01*
X140082955Y-47217185D01*
X140031048Y-47170524D01*
X139997314Y-47107574D01*
X139991353Y-47087235D01*
X139983029Y-47014612D01*
X139990054Y-46937928D01*
X140011735Y-46868663D01*
X140024041Y-46844262D01*
X140045121Y-46809275D01*
X140062466Y-46788072D01*
X140066429Y-46784942D01*
X140080923Y-46779085D01*
X140096679Y-46787524D01*
X140120540Y-46813221D01*
X140130928Y-46825622D01*
X140149937Y-46850052D01*
X140157707Y-46862861D01*
X140156906Y-46866530D01*
X140148255Y-46887561D01*
X140133069Y-46918960D01*
X140128074Y-46929197D01*
X140109525Y-46989590D01*
X140114306Y-47042057D01*
X140142500Y-47088065D01*
X140147709Y-47093419D01*
X140180341Y-47119013D01*
X140211658Y-47133637D01*
X140246237Y-47141736D01*
X140246237Y-47019554D01*
X140346831Y-47019554D01*
X140347232Y-47050429D01*
X140349571Y-47096002D01*
X140353535Y-47127348D01*
X140358587Y-47139010D01*
X140400173Y-47129064D01*
X140438987Y-47099947D01*
X140465914Y-47057952D01*
X140475228Y-47009440D01*
X140464728Y-46973723D01*
X140439060Y-46938020D01*
X140405619Y-46910879D01*
X140371782Y-46900099D01*
X140360797Y-46901670D01*
X140353227Y-46909738D01*
X140349025Y-46928967D01*
X140347217Y-46964019D01*
X140346831Y-47019554D01*
X140246237Y-47019554D01*
X140246237Y-46761782D01*
X140312252Y-46761852D01*
G37*
X141255321Y-50207199D02*
X141276243Y-50207774D01*
X141326909Y-50212512D01*
X141368834Y-50220459D01*
X141392304Y-50229168D01*
X141443354Y-50259790D01*
X141489717Y-50300799D01*
X141521486Y-50344168D01*
X141527386Y-50356699D01*
X141546954Y-50429661D01*
X141544891Y-50504168D01*
X141522069Y-50574217D01*
X141479361Y-50633807D01*
X141439975Y-50666038D01*
X141384490Y-50692392D01*
X141317701Y-50706482D01*
X141315139Y-50707022D01*
X141227064Y-50711421D01*
X141188629Y-50710322D01*
X141104633Y-50697926D01*
X141038405Y-50670608D01*
X140987216Y-50626941D01*
X140948337Y-50565495D01*
X140930188Y-50505888D01*
X140926716Y-50431110D01*
X140940070Y-50355664D01*
X140969575Y-50288366D01*
X140985988Y-50263428D01*
X141007027Y-50235951D01*
X141020871Y-50223414D01*
X141026583Y-50224124D01*
X141046045Y-50238158D01*
X141069624Y-50264533D01*
X141104487Y-50310240D01*
X141077738Y-50363799D01*
X141071118Y-50378282D01*
X141056727Y-50420916D01*
X141050990Y-50456649D01*
X141055718Y-50482998D01*
X141078486Y-50524347D01*
X141113830Y-50559104D01*
X141154727Y-50578983D01*
X141189307Y-50587083D01*
X141189307Y-50465748D01*
X141302475Y-50465748D01*
X141302483Y-50484575D01*
X141302935Y-50533470D01*
X141304887Y-50562863D01*
X141309442Y-50577115D01*
X141317701Y-50580582D01*
X141330767Y-50577625D01*
X141332248Y-50577173D01*
X141377715Y-50551699D01*
X141409019Y-50511539D01*
X141420673Y-50463651D01*
X141419741Y-50445949D01*
X141408592Y-50413094D01*
X141380237Y-50381575D01*
X141370211Y-50373085D01*
X141341577Y-50353336D01*
X141321138Y-50345445D01*
X141318566Y-50345690D01*
X141310557Y-50352604D01*
X141305636Y-50372141D01*
X141303157Y-50408467D01*
X141302475Y-50465748D01*
X141189307Y-50465748D01*
X141189307Y-50207129D01*
X141255321Y-50207199D01*
G36*
X141255321Y-50207199D02*
G01*
X141276243Y-50207774D01*
X141326909Y-50212512D01*
X141368834Y-50220459D01*
X141392304Y-50229168D01*
X141443354Y-50259790D01*
X141489717Y-50300799D01*
X141521486Y-50344168D01*
X141527386Y-50356699D01*
X141546954Y-50429661D01*
X141544891Y-50504168D01*
X141522069Y-50574217D01*
X141479361Y-50633807D01*
X141439975Y-50666038D01*
X141384490Y-50692392D01*
X141317701Y-50706482D01*
X141315139Y-50707022D01*
X141227064Y-50711421D01*
X141188629Y-50710322D01*
X141104633Y-50697926D01*
X141038405Y-50670608D01*
X140987216Y-50626941D01*
X140948337Y-50565495D01*
X140930188Y-50505888D01*
X140926716Y-50431110D01*
X140940070Y-50355664D01*
X140969575Y-50288366D01*
X140985988Y-50263428D01*
X141007027Y-50235951D01*
X141020871Y-50223414D01*
X141026583Y-50224124D01*
X141046045Y-50238158D01*
X141069624Y-50264533D01*
X141104487Y-50310240D01*
X141077738Y-50363799D01*
X141071118Y-50378282D01*
X141056727Y-50420916D01*
X141050990Y-50456649D01*
X141055718Y-50482998D01*
X141078486Y-50524347D01*
X141113830Y-50559104D01*
X141154727Y-50578983D01*
X141189307Y-50587083D01*
X141189307Y-50465748D01*
X141302475Y-50465748D01*
X141302483Y-50484575D01*
X141302935Y-50533470D01*
X141304887Y-50562863D01*
X141309442Y-50577115D01*
X141317701Y-50580582D01*
X141330767Y-50577625D01*
X141332248Y-50577173D01*
X141377715Y-50551699D01*
X141409019Y-50511539D01*
X141420673Y-50463651D01*
X141419741Y-50445949D01*
X141408592Y-50413094D01*
X141380237Y-50381575D01*
X141370211Y-50373085D01*
X141341577Y-50353336D01*
X141321138Y-50345445D01*
X141318566Y-50345690D01*
X141310557Y-50352604D01*
X141305636Y-50372141D01*
X141303157Y-50408467D01*
X141302475Y-50465748D01*
X141189307Y-50465748D01*
X141189307Y-50207129D01*
X141255321Y-50207199D01*
G37*
X140224232Y-47795053D02*
X140280206Y-47796169D01*
X140364004Y-47799106D01*
X140428080Y-47804058D01*
X140475927Y-47812002D01*
X140511038Y-47823917D01*
X140536907Y-47840780D01*
X140557026Y-47863572D01*
X140574890Y-47893269D01*
X140581710Y-47908589D01*
X140594583Y-47961589D01*
X140599905Y-48025513D01*
X140597773Y-48091602D01*
X140588286Y-48151099D01*
X140571539Y-48195247D01*
X140561815Y-48210604D01*
X140532995Y-48245960D01*
X140508863Y-48257926D01*
X140504200Y-48255020D01*
X140487912Y-48236909D01*
X140466183Y-48207672D01*
X140456013Y-48192725D01*
X140441603Y-48167270D01*
X140440227Y-48150728D01*
X140450173Y-48135370D01*
X140470316Y-48097094D01*
X140478600Y-48045590D01*
X140472258Y-47992957D01*
X140471970Y-47991961D01*
X140455842Y-47954838D01*
X140430595Y-47936463D01*
X140388842Y-47931380D01*
X140349121Y-47931188D01*
X140344832Y-48062423D01*
X140344127Y-48083331D01*
X140341674Y-48136043D01*
X140337820Y-48171381D01*
X140331122Y-48195267D01*
X140320136Y-48213624D01*
X140303420Y-48232376D01*
X140264756Y-48263337D01*
X140207544Y-48286029D01*
X140168176Y-48288254D01*
X140147667Y-48289413D01*
X140090581Y-48274244D01*
X140041745Y-48241277D01*
X140006614Y-48191270D01*
X140004479Y-48186362D01*
X139989097Y-48131646D01*
X139983101Y-48069993D01*
X139984901Y-48041213D01*
X140108772Y-48041213D01*
X140110181Y-48069090D01*
X140120796Y-48121255D01*
X140140575Y-48153587D01*
X140168176Y-48164492D01*
X140202257Y-48152374D01*
X140211176Y-48145304D01*
X140231182Y-48113724D01*
X140242605Y-48063744D01*
X140246237Y-47992487D01*
X140246237Y-47931188D01*
X140202227Y-47931188D01*
X140169334Y-47935924D01*
X140133069Y-47956336D01*
X140126403Y-47963871D01*
X140112380Y-47994753D01*
X140108772Y-48041213D01*
X139984901Y-48041213D01*
X139986767Y-48011376D01*
X140000371Y-47965767D01*
X140009246Y-47947549D01*
X140011363Y-47934179D01*
X140000294Y-47931188D01*
X139990058Y-47925524D01*
X139983962Y-47903607D01*
X139982178Y-47861068D01*
X139982178Y-47790948D01*
X140224232Y-47795053D01*
G36*
X140224232Y-47795053D02*
G01*
X140280206Y-47796169D01*
X140364004Y-47799106D01*
X140428080Y-47804058D01*
X140475927Y-47812002D01*
X140511038Y-47823917D01*
X140536907Y-47840780D01*
X140557026Y-47863572D01*
X140574890Y-47893269D01*
X140581710Y-47908589D01*
X140594583Y-47961589D01*
X140599905Y-48025513D01*
X140597773Y-48091602D01*
X140588286Y-48151099D01*
X140571539Y-48195247D01*
X140561815Y-48210604D01*
X140532995Y-48245960D01*
X140508863Y-48257926D01*
X140504200Y-48255020D01*
X140487912Y-48236909D01*
X140466183Y-48207672D01*
X140456013Y-48192725D01*
X140441603Y-48167270D01*
X140440227Y-48150728D01*
X140450173Y-48135370D01*
X140470316Y-48097094D01*
X140478600Y-48045590D01*
X140472258Y-47992957D01*
X140471970Y-47991961D01*
X140455842Y-47954838D01*
X140430595Y-47936463D01*
X140388842Y-47931380D01*
X140349121Y-47931188D01*
X140344832Y-48062423D01*
X140344127Y-48083331D01*
X140341674Y-48136043D01*
X140337820Y-48171381D01*
X140331122Y-48195267D01*
X140320136Y-48213624D01*
X140303420Y-48232376D01*
X140264756Y-48263337D01*
X140207544Y-48286029D01*
X140168176Y-48288254D01*
X140147667Y-48289413D01*
X140090581Y-48274244D01*
X140041745Y-48241277D01*
X140006614Y-48191270D01*
X140004479Y-48186362D01*
X139989097Y-48131646D01*
X139983101Y-48069993D01*
X139984901Y-48041213D01*
X140108772Y-48041213D01*
X140110181Y-48069090D01*
X140120796Y-48121255D01*
X140140575Y-48153587D01*
X140168176Y-48164492D01*
X140202257Y-48152374D01*
X140211176Y-48145304D01*
X140231182Y-48113724D01*
X140242605Y-48063744D01*
X140246237Y-47992487D01*
X140246237Y-47931188D01*
X140202227Y-47931188D01*
X140169334Y-47935924D01*
X140133069Y-47956336D01*
X140126403Y-47963871D01*
X140112380Y-47994753D01*
X140108772Y-48041213D01*
X139984901Y-48041213D01*
X139986767Y-48011376D01*
X140000371Y-47965767D01*
X140009246Y-47947549D01*
X140011363Y-47934179D01*
X140000294Y-47931188D01*
X139990058Y-47925524D01*
X139983962Y-47903607D01*
X139982178Y-47861068D01*
X139982178Y-47790948D01*
X140224232Y-47795053D01*
G37*
X140246560Y-50219707D02*
X140325878Y-50219937D01*
X140384846Y-50220797D01*
X140427384Y-50222679D01*
X140457408Y-50225974D01*
X140478837Y-50231073D01*
X140495589Y-50238366D01*
X140511581Y-50248246D01*
X140549052Y-50280023D01*
X140577661Y-50325055D01*
X140593445Y-50384210D01*
X140598297Y-50462161D01*
X140598292Y-50464695D01*
X140595845Y-50518880D01*
X140589744Y-50567380D01*
X140581191Y-50600478D01*
X140576904Y-50609552D01*
X140558752Y-50638433D01*
X140537178Y-50664568D01*
X140517764Y-50681764D01*
X140506091Y-50683825D01*
X140502937Y-50679803D01*
X140469261Y-50635976D01*
X140449400Y-50606671D01*
X140441387Y-50587294D01*
X140443254Y-50573253D01*
X140453035Y-50559957D01*
X140465244Y-50535418D01*
X140473385Y-50494064D01*
X140475497Y-50447326D01*
X140471200Y-50405034D01*
X140460113Y-50377017D01*
X140458764Y-50375543D01*
X140433419Y-50362953D01*
X140395589Y-50358020D01*
X140346831Y-50358020D01*
X140346784Y-50474331D01*
X140345939Y-50527760D01*
X140342260Y-50572735D01*
X140334691Y-50604907D01*
X140322192Y-50630899D01*
X140318353Y-50636948D01*
X140276155Y-50680710D01*
X140220353Y-50703987D01*
X140178434Y-50705955D01*
X140149777Y-50707299D01*
X140148118Y-50707157D01*
X140083521Y-50691835D01*
X140034937Y-50657753D01*
X139999928Y-50603218D01*
X139991411Y-50575036D01*
X139984772Y-50526764D01*
X139983241Y-50475773D01*
X140108083Y-50475773D01*
X140113621Y-50521652D01*
X140127495Y-50556410D01*
X140145839Y-50573726D01*
X140178434Y-50584356D01*
X140204271Y-50574929D01*
X140226737Y-50543764D01*
X140241150Y-50493667D01*
X140246237Y-50427582D01*
X140246237Y-50358020D01*
X140197889Y-50358020D01*
X140161096Y-50362668D01*
X140128731Y-50381015D01*
X140121726Y-50391514D01*
X140110809Y-50428988D01*
X140108083Y-50475773D01*
X139983241Y-50475773D01*
X139983187Y-50473978D01*
X139986840Y-50426353D01*
X139995917Y-50393566D01*
X140003187Y-50373652D01*
X139995917Y-50354155D01*
X139991705Y-50347023D01*
X139984874Y-50318557D01*
X139982178Y-50280059D01*
X139982178Y-50219703D01*
X140225516Y-50219703D01*
X140246560Y-50219707D01*
G36*
X140246560Y-50219707D02*
G01*
X140325878Y-50219937D01*
X140384846Y-50220797D01*
X140427384Y-50222679D01*
X140457408Y-50225974D01*
X140478837Y-50231073D01*
X140495589Y-50238366D01*
X140511581Y-50248246D01*
X140549052Y-50280023D01*
X140577661Y-50325055D01*
X140593445Y-50384210D01*
X140598297Y-50462161D01*
X140598292Y-50464695D01*
X140595845Y-50518880D01*
X140589744Y-50567380D01*
X140581191Y-50600478D01*
X140576904Y-50609552D01*
X140558752Y-50638433D01*
X140537178Y-50664568D01*
X140517764Y-50681764D01*
X140506091Y-50683825D01*
X140502937Y-50679803D01*
X140469261Y-50635976D01*
X140449400Y-50606671D01*
X140441387Y-50587294D01*
X140443254Y-50573253D01*
X140453035Y-50559957D01*
X140465244Y-50535418D01*
X140473385Y-50494064D01*
X140475497Y-50447326D01*
X140471200Y-50405034D01*
X140460113Y-50377017D01*
X140458764Y-50375543D01*
X140433419Y-50362953D01*
X140395589Y-50358020D01*
X140346831Y-50358020D01*
X140346784Y-50474331D01*
X140345939Y-50527760D01*
X140342260Y-50572735D01*
X140334691Y-50604907D01*
X140322192Y-50630899D01*
X140318353Y-50636948D01*
X140276155Y-50680710D01*
X140220353Y-50703987D01*
X140178434Y-50705955D01*
X140149777Y-50707299D01*
X140148118Y-50707157D01*
X140083521Y-50691835D01*
X140034937Y-50657753D01*
X139999928Y-50603218D01*
X139991411Y-50575036D01*
X139984772Y-50526764D01*
X139983241Y-50475773D01*
X140108083Y-50475773D01*
X140113621Y-50521652D01*
X140127495Y-50556410D01*
X140145839Y-50573726D01*
X140178434Y-50584356D01*
X140204271Y-50574929D01*
X140226737Y-50543764D01*
X140241150Y-50493667D01*
X140246237Y-50427582D01*
X140246237Y-50358020D01*
X140197889Y-50358020D01*
X140161096Y-50362668D01*
X140128731Y-50381015D01*
X140121726Y-50391514D01*
X140110809Y-50428988D01*
X140108083Y-50475773D01*
X139983241Y-50475773D01*
X139983187Y-50473978D01*
X139986840Y-50426353D01*
X139995917Y-50393566D01*
X140003187Y-50373652D01*
X139995917Y-50354155D01*
X139991705Y-50347023D01*
X139984874Y-50318557D01*
X139982178Y-50280059D01*
X139982178Y-50219703D01*
X140225516Y-50219703D01*
X140246560Y-50219707D01*
G37*
X140285118Y-50785677D02*
X140349359Y-50786413D01*
X140396382Y-50788181D01*
X140430452Y-50791411D01*
X140455830Y-50796530D01*
X140476779Y-50803967D01*
X140497564Y-50814150D01*
X140501976Y-50816564D01*
X140544953Y-50848675D01*
X140574987Y-50886256D01*
X140590757Y-50931564D01*
X140597778Y-50991561D01*
X140593975Y-51051643D01*
X140579132Y-51100525D01*
X140559948Y-51137624D01*
X140975141Y-51137624D01*
X140948646Y-51086792D01*
X140939020Y-51065558D01*
X140931949Y-51030742D01*
X141063564Y-51030742D01*
X141066529Y-51065559D01*
X141081369Y-51100020D01*
X141111431Y-51122215D01*
X141159746Y-51134097D01*
X141229350Y-51137624D01*
X141266376Y-51136712D01*
X141336272Y-51127609D01*
X141383536Y-51108828D01*
X141407832Y-51080476D01*
X141414668Y-51051840D01*
X141411463Y-51001970D01*
X141391620Y-50959833D01*
X141382520Y-50949749D01*
X141366777Y-50939063D01*
X141343342Y-50932456D01*
X141306396Y-50928532D01*
X141250120Y-50925897D01*
X141212764Y-50924749D01*
X141168151Y-50924861D01*
X141138399Y-50928272D01*
X141117165Y-50935937D01*
X141098104Y-50948814D01*
X141080383Y-50965171D01*
X141066972Y-50991329D01*
X141063564Y-51030742D01*
X140931949Y-51030742D01*
X140925408Y-50998536D01*
X140934816Y-50931930D01*
X140966095Y-50870187D01*
X141018098Y-50817757D01*
X141030320Y-50809543D01*
X141048237Y-50801649D01*
X141072596Y-50796500D01*
X141108073Y-50793527D01*
X141159344Y-50792161D01*
X141231083Y-50791831D01*
X141263816Y-50791944D01*
X141339956Y-50793872D01*
X141396834Y-50799240D01*
X141438751Y-50809406D01*
X141470004Y-50825725D01*
X141494894Y-50849553D01*
X141517718Y-50882247D01*
X141530816Y-50908759D01*
X141545261Y-50971615D01*
X141543293Y-51037869D01*
X141524567Y-51096757D01*
X141512327Y-51122030D01*
X141511062Y-51134742D01*
X141522202Y-51137624D01*
X141522539Y-51137626D01*
X141533913Y-51143838D01*
X141539744Y-51165260D01*
X141541386Y-51206782D01*
X141541386Y-51275940D01*
X141229350Y-51275940D01*
X139980864Y-51275940D01*
X139984664Y-51209926D01*
X139988465Y-51143911D01*
X140189653Y-51140772D01*
X140238575Y-51139844D01*
X140312074Y-51137208D01*
X140366009Y-51132683D01*
X140404005Y-51125438D01*
X140429687Y-51114642D01*
X140446680Y-51099462D01*
X140458611Y-51079066D01*
X140470795Y-51040797D01*
X140466060Y-51002738D01*
X140440021Y-50962549D01*
X140407467Y-50923861D01*
X139982178Y-50923861D01*
X139982178Y-50785544D01*
X140212824Y-50785544D01*
X140285118Y-50785677D01*
G36*
X140285118Y-50785677D02*
G01*
X140349359Y-50786413D01*
X140396382Y-50788181D01*
X140430452Y-50791411D01*
X140455830Y-50796530D01*
X140476779Y-50803967D01*
X140497564Y-50814150D01*
X140501976Y-50816564D01*
X140544953Y-50848675D01*
X140574987Y-50886256D01*
X140590757Y-50931564D01*
X140597778Y-50991561D01*
X140593975Y-51051643D01*
X140579132Y-51100525D01*
X140559948Y-51137624D01*
X140975141Y-51137624D01*
X140948646Y-51086792D01*
X140939020Y-51065558D01*
X140931949Y-51030742D01*
X141063564Y-51030742D01*
X141066529Y-51065559D01*
X141081369Y-51100020D01*
X141111431Y-51122215D01*
X141159746Y-51134097D01*
X141229350Y-51137624D01*
X141266376Y-51136712D01*
X141336272Y-51127609D01*
X141383536Y-51108828D01*
X141407832Y-51080476D01*
X141414668Y-51051840D01*
X141411463Y-51001970D01*
X141391620Y-50959833D01*
X141382520Y-50949749D01*
X141366777Y-50939063D01*
X141343342Y-50932456D01*
X141306396Y-50928532D01*
X141250120Y-50925897D01*
X141212764Y-50924749D01*
X141168151Y-50924861D01*
X141138399Y-50928272D01*
X141117165Y-50935937D01*
X141098104Y-50948814D01*
X141080383Y-50965171D01*
X141066972Y-50991329D01*
X141063564Y-51030742D01*
X140931949Y-51030742D01*
X140925408Y-50998536D01*
X140934816Y-50931930D01*
X140966095Y-50870187D01*
X141018098Y-50817757D01*
X141030320Y-50809543D01*
X141048237Y-50801649D01*
X141072596Y-50796500D01*
X141108073Y-50793527D01*
X141159344Y-50792161D01*
X141231083Y-50791831D01*
X141263816Y-50791944D01*
X141339956Y-50793872D01*
X141396834Y-50799240D01*
X141438751Y-50809406D01*
X141470004Y-50825725D01*
X141494894Y-50849553D01*
X141517718Y-50882247D01*
X141530816Y-50908759D01*
X141545261Y-50971615D01*
X141543293Y-51037869D01*
X141524567Y-51096757D01*
X141512327Y-51122030D01*
X141511062Y-51134742D01*
X141522202Y-51137624D01*
X141522539Y-51137626D01*
X141533913Y-51143838D01*
X141539744Y-51165260D01*
X141541386Y-51206782D01*
X141541386Y-51275940D01*
X141229350Y-51275940D01*
X139980864Y-51275940D01*
X139984664Y-51209926D01*
X139988465Y-51143911D01*
X140189653Y-51140772D01*
X140238575Y-51139844D01*
X140312074Y-51137208D01*
X140366009Y-51132683D01*
X140404005Y-51125438D01*
X140429687Y-51114642D01*
X140446680Y-51099462D01*
X140458611Y-51079066D01*
X140470795Y-51040797D01*
X140466060Y-51002738D01*
X140440021Y-50962549D01*
X140407467Y-50923861D01*
X139982178Y-50923861D01*
X139982178Y-50785544D01*
X140212824Y-50785544D01*
X140285118Y-50785677D01*
G37*
X143843963Y-46748168D02*
X143917388Y-46749426D01*
X143983120Y-46751728D01*
X144036800Y-46755076D01*
X144074070Y-46759474D01*
X144090573Y-46764926D01*
X144093011Y-46770491D01*
X144100695Y-46798178D01*
X144111564Y-46844979D01*
X144124808Y-46907157D01*
X144139616Y-46980979D01*
X144155177Y-47062710D01*
X144163491Y-47107336D01*
X144177908Y-47183824D01*
X144190533Y-47249660D01*
X144200679Y-47301323D01*
X144207659Y-47335293D01*
X144210788Y-47348048D01*
X144211432Y-47348528D01*
X144227819Y-47356651D01*
X144262148Y-47372137D01*
X144309864Y-47393050D01*
X144366414Y-47417455D01*
X144427242Y-47443416D01*
X144487794Y-47468997D01*
X144543515Y-47492262D01*
X144589850Y-47511277D01*
X144622245Y-47524105D01*
X144636145Y-47528812D01*
X144641035Y-47526736D01*
X144664308Y-47512920D01*
X144703481Y-47487860D01*
X144755480Y-47453568D01*
X144817232Y-47412059D01*
X144885664Y-47365346D01*
X144923140Y-47339718D01*
X144988844Y-47295490D01*
X145046508Y-47257570D01*
X145092986Y-47227980D01*
X145125135Y-47208743D01*
X145139810Y-47201881D01*
X145147770Y-47206649D01*
X145171554Y-47226593D01*
X145207549Y-47259313D01*
X145252705Y-47301805D01*
X145303972Y-47351065D01*
X145358299Y-47404091D01*
X145412636Y-47457877D01*
X145463933Y-47509421D01*
X145509141Y-47555720D01*
X145545208Y-47593769D01*
X145569086Y-47620565D01*
X145577722Y-47633105D01*
X145574364Y-47640066D01*
X145558790Y-47665627D01*
X145532285Y-47706874D01*
X145496790Y-47760837D01*
X145454250Y-47824542D01*
X145406605Y-47895016D01*
X145235488Y-48146662D01*
X145408430Y-48566188D01*
X145709982Y-48623036D01*
X146011534Y-48679885D01*
X146011534Y-49307540D01*
X145709982Y-49364389D01*
X145408430Y-49421237D01*
X145321959Y-49631001D01*
X145235488Y-49840764D01*
X145406605Y-50092410D01*
X145440339Y-50142216D01*
X145484619Y-50208244D01*
X145522439Y-50265410D01*
X145551858Y-50310744D01*
X145570933Y-50341280D01*
X145577722Y-50354046D01*
X145572894Y-50361887D01*
X145552661Y-50385325D01*
X145519457Y-50420794D01*
X145476330Y-50465289D01*
X145426330Y-50515805D01*
X145372505Y-50569336D01*
X145317905Y-50622877D01*
X145265577Y-50673423D01*
X145218572Y-50717968D01*
X145179937Y-50753507D01*
X145152722Y-50777034D01*
X145139976Y-50785544D01*
X145134500Y-50783565D01*
X145110073Y-50769857D01*
X145069871Y-50744825D01*
X145017048Y-50710499D01*
X144954753Y-50668907D01*
X144886138Y-50622079D01*
X144848717Y-50596380D01*
X144783568Y-50552173D01*
X144726711Y-50514272D01*
X144681230Y-50484698D01*
X144650207Y-50465472D01*
X144636726Y-50458614D01*
X144635979Y-50458726D01*
X144618890Y-50464776D01*
X144583994Y-50478654D01*
X144535849Y-50498427D01*
X144479014Y-50522160D01*
X144418047Y-50547918D01*
X144357508Y-50573766D01*
X144301953Y-50597771D01*
X144255943Y-50617998D01*
X144224035Y-50632511D01*
X144210788Y-50639377D01*
X144209613Y-50643439D01*
X144204313Y-50668121D01*
X144195533Y-50712111D01*
X144183960Y-50771887D01*
X144170279Y-50843929D01*
X144155177Y-50924716D01*
X144147170Y-50967294D01*
X144131893Y-51045445D01*
X144117785Y-51113775D01*
X144105655Y-51168551D01*
X144096314Y-51206037D01*
X144090573Y-51222500D01*
X144084881Y-51225457D01*
X144057070Y-51230362D01*
X144010750Y-51234216D01*
X143950280Y-51237021D01*
X143880017Y-51238781D01*
X143804320Y-51239499D01*
X143727547Y-51239177D01*
X143654056Y-51237819D01*
X143588206Y-51235428D01*
X143534355Y-51232006D01*
X143496862Y-51227556D01*
X143480084Y-51222082D01*
X143478191Y-51218760D01*
X143470074Y-51193987D01*
X143459334Y-51151011D01*
X143447147Y-51094802D01*
X143434690Y-51030325D01*
X143430723Y-51008570D01*
X143412271Y-50908093D01*
X143397441Y-50829126D01*
X143385620Y-50768934D01*
X143376191Y-50724778D01*
X143368540Y-50693920D01*
X143362052Y-50673625D01*
X143356112Y-50661154D01*
X143350106Y-50653771D01*
X143349098Y-50652913D01*
X143328081Y-50640838D01*
X143289624Y-50622971D01*
X143238239Y-50601042D01*
X143178437Y-50576784D01*
X143114730Y-50551927D01*
X143051629Y-50528205D01*
X142993645Y-50507347D01*
X142945291Y-50491087D01*
X142911078Y-50481156D01*
X142895517Y-50479285D01*
X142893498Y-50480536D01*
X142873972Y-50493486D01*
X142837958Y-50517840D01*
X142788772Y-50551340D01*
X142729733Y-50591727D01*
X142664158Y-50636745D01*
X142646116Y-50649100D01*
X142581401Y-50692545D01*
X142523524Y-50730091D01*
X142475918Y-50759594D01*
X142442015Y-50778914D01*
X142425248Y-50785905D01*
X142420839Y-50784398D01*
X142399118Y-50768695D01*
X142363646Y-50737714D01*
X142316812Y-50693673D01*
X142261004Y-50638790D01*
X142198608Y-50575286D01*
X142163683Y-50538988D01*
X142109289Y-50481595D01*
X142062698Y-50431361D01*
X142026364Y-50390984D01*
X142002739Y-50363161D01*
X141994276Y-50350590D01*
X141997413Y-50341952D01*
X142012253Y-50315360D01*
X142036523Y-50276741D01*
X142067148Y-50231134D01*
X142089497Y-50198707D01*
X142133878Y-50133970D01*
X142181013Y-50064886D01*
X142223845Y-50001787D01*
X142307453Y-49878178D01*
X142251350Y-49774417D01*
X142238401Y-49749984D01*
X142216251Y-49705552D01*
X142200959Y-49671191D01*
X142195257Y-49652828D01*
X142202579Y-49646818D01*
X142230459Y-49631895D01*
X142276425Y-49609852D01*
X142337559Y-49581917D01*
X142410945Y-49549317D01*
X142493665Y-49513276D01*
X142582803Y-49475023D01*
X142675441Y-49435783D01*
X142768663Y-49396783D01*
X142859550Y-49359249D01*
X142945186Y-49324409D01*
X143022655Y-49293488D01*
X143089038Y-49267714D01*
X143141418Y-49248311D01*
X143176879Y-49236508D01*
X143192504Y-49233531D01*
X143192961Y-49233732D01*
X143207405Y-49247601D01*
X143230026Y-49276611D01*
X143256136Y-49314772D01*
X143264108Y-49326817D01*
X143339744Y-49418469D01*
X143429831Y-49494323D01*
X143530619Y-49552581D01*
X143638360Y-49591448D01*
X143749303Y-49609128D01*
X143859697Y-49603826D01*
X143957885Y-49582347D01*
X144057034Y-49543782D01*
X144145488Y-49487562D01*
X144229513Y-49410410D01*
X144256355Y-49380095D01*
X144322490Y-49282094D01*
X144367030Y-49176227D01*
X144390375Y-49065561D01*
X144392922Y-48953164D01*
X144375071Y-48842105D01*
X144337220Y-48735451D01*
X144279768Y-48636270D01*
X144203113Y-48547631D01*
X144107655Y-48472600D01*
X144084015Y-48458175D01*
X143975966Y-48409143D01*
X143863452Y-48383103D01*
X143749386Y-48379372D01*
X143636682Y-48397268D01*
X143528255Y-48436109D01*
X143427018Y-48495214D01*
X143335886Y-48573900D01*
X143257772Y-48671485D01*
X143255667Y-48674654D01*
X143229060Y-48712411D01*
X143206439Y-48740709D01*
X143192504Y-48753634D01*
X143181579Y-48752003D01*
X143149769Y-48741864D01*
X143100466Y-48723884D01*
X143036587Y-48699292D01*
X142961052Y-48669311D01*
X142876777Y-48635170D01*
X142786680Y-48598092D01*
X142693679Y-48559306D01*
X142600692Y-48520036D01*
X142510636Y-48481509D01*
X142426429Y-48444950D01*
X142350990Y-48411586D01*
X142287235Y-48382643D01*
X142238083Y-48359346D01*
X142206451Y-48342923D01*
X142195257Y-48334598D01*
X142196773Y-48327674D01*
X142207669Y-48300477D01*
X142226772Y-48260280D01*
X142251350Y-48213009D01*
X142307453Y-48109248D01*
X142223845Y-47985639D01*
X142199087Y-47949120D01*
X142152829Y-47881194D01*
X142106497Y-47813475D01*
X142067148Y-47756291D01*
X142045703Y-47724732D01*
X142019061Y-47683714D01*
X142000822Y-47653301D01*
X141994059Y-47638446D01*
X141996930Y-47632065D01*
X142014515Y-47608996D01*
X142045477Y-47573433D01*
X142086769Y-47528471D01*
X142135347Y-47477206D01*
X142188165Y-47422733D01*
X142242177Y-47368148D01*
X142294339Y-47316547D01*
X142341604Y-47271024D01*
X142380928Y-47234675D01*
X142409264Y-47210595D01*
X142423568Y-47201881D01*
X142426289Y-47202383D01*
X142448440Y-47212755D01*
X142486765Y-47234912D01*
X142537800Y-47266712D01*
X142598086Y-47306016D01*
X142664158Y-47350681D01*
X142682383Y-47363207D01*
X142746515Y-47407193D01*
X142803211Y-47445937D01*
X142849156Y-47477182D01*
X142881030Y-47498669D01*
X142895517Y-47508140D01*
X142896138Y-47508373D01*
X142913861Y-47505578D01*
X142949765Y-47494903D01*
X142999338Y-47478081D01*
X143058068Y-47456843D01*
X143121444Y-47432921D01*
X143184954Y-47408046D01*
X143244087Y-47383950D01*
X143294331Y-47362365D01*
X143331174Y-47345023D01*
X143350106Y-47333655D01*
X143351281Y-47332516D01*
X143357227Y-47324376D01*
X143363224Y-47310629D01*
X143369886Y-47288537D01*
X143377827Y-47255363D01*
X143387663Y-47208370D01*
X143400009Y-47144820D01*
X143415480Y-47061976D01*
X143434690Y-46957100D01*
X143438733Y-46935348D01*
X143451231Y-46873036D01*
X143463073Y-46820619D01*
X143473083Y-46783066D01*
X143480084Y-46765343D01*
X143485925Y-46762378D01*
X143513984Y-46757435D01*
X143560500Y-46753518D01*
X143621114Y-46750629D01*
X143691468Y-46748773D01*
X143767204Y-46747952D01*
X143843963Y-46748168D01*
G36*
X143843963Y-46748168D02*
G01*
X143917388Y-46749426D01*
X143983120Y-46751728D01*
X144036800Y-46755076D01*
X144074070Y-46759474D01*
X144090573Y-46764926D01*
X144093011Y-46770491D01*
X144100695Y-46798178D01*
X144111564Y-46844979D01*
X144124808Y-46907157D01*
X144139616Y-46980979D01*
X144155177Y-47062710D01*
X144163491Y-47107336D01*
X144177908Y-47183824D01*
X144190533Y-47249660D01*
X144200679Y-47301323D01*
X144207659Y-47335293D01*
X144210788Y-47348048D01*
X144211432Y-47348528D01*
X144227819Y-47356651D01*
X144262148Y-47372137D01*
X144309864Y-47393050D01*
X144366414Y-47417455D01*
X144427242Y-47443416D01*
X144487794Y-47468997D01*
X144543515Y-47492262D01*
X144589850Y-47511277D01*
X144622245Y-47524105D01*
X144636145Y-47528812D01*
X144641035Y-47526736D01*
X144664308Y-47512920D01*
X144703481Y-47487860D01*
X144755480Y-47453568D01*
X144817232Y-47412059D01*
X144885664Y-47365346D01*
X144923140Y-47339718D01*
X144988844Y-47295490D01*
X145046508Y-47257570D01*
X145092986Y-47227980D01*
X145125135Y-47208743D01*
X145139810Y-47201881D01*
X145147770Y-47206649D01*
X145171554Y-47226593D01*
X145207549Y-47259313D01*
X145252705Y-47301805D01*
X145303972Y-47351065D01*
X145358299Y-47404091D01*
X145412636Y-47457877D01*
X145463933Y-47509421D01*
X145509141Y-47555720D01*
X145545208Y-47593769D01*
X145569086Y-47620565D01*
X145577722Y-47633105D01*
X145574364Y-47640066D01*
X145558790Y-47665627D01*
X145532285Y-47706874D01*
X145496790Y-47760837D01*
X145454250Y-47824542D01*
X145406605Y-47895016D01*
X145235488Y-48146662D01*
X145408430Y-48566188D01*
X145709982Y-48623036D01*
X146011534Y-48679885D01*
X146011534Y-49307540D01*
X145709982Y-49364389D01*
X145408430Y-49421237D01*
X145321959Y-49631001D01*
X145235488Y-49840764D01*
X145406605Y-50092410D01*
X145440339Y-50142216D01*
X145484619Y-50208244D01*
X145522439Y-50265410D01*
X145551858Y-50310744D01*
X145570933Y-50341280D01*
X145577722Y-50354046D01*
X145572894Y-50361887D01*
X145552661Y-50385325D01*
X145519457Y-50420794D01*
X145476330Y-50465289D01*
X145426330Y-50515805D01*
X145372505Y-50569336D01*
X145317905Y-50622877D01*
X145265577Y-50673423D01*
X145218572Y-50717968D01*
X145179937Y-50753507D01*
X145152722Y-50777034D01*
X145139976Y-50785544D01*
X145134500Y-50783565D01*
X145110073Y-50769857D01*
X145069871Y-50744825D01*
X145017048Y-50710499D01*
X144954753Y-50668907D01*
X144886138Y-50622079D01*
X144848717Y-50596380D01*
X144783568Y-50552173D01*
X144726711Y-50514272D01*
X144681230Y-50484698D01*
X144650207Y-50465472D01*
X144636726Y-50458614D01*
X144635979Y-50458726D01*
X144618890Y-50464776D01*
X144583994Y-50478654D01*
X144535849Y-50498427D01*
X144479014Y-50522160D01*
X144418047Y-50547918D01*
X144357508Y-50573766D01*
X144301953Y-50597771D01*
X144255943Y-50617998D01*
X144224035Y-50632511D01*
X144210788Y-50639377D01*
X144209613Y-50643439D01*
X144204313Y-50668121D01*
X144195533Y-50712111D01*
X144183960Y-50771887D01*
X144170279Y-50843929D01*
X144155177Y-50924716D01*
X144147170Y-50967294D01*
X144131893Y-51045445D01*
X144117785Y-51113775D01*
X144105655Y-51168551D01*
X144096314Y-51206037D01*
X144090573Y-51222500D01*
X144084881Y-51225457D01*
X144057070Y-51230362D01*
X144010750Y-51234216D01*
X143950280Y-51237021D01*
X143880017Y-51238781D01*
X143804320Y-51239499D01*
X143727547Y-51239177D01*
X143654056Y-51237819D01*
X143588206Y-51235428D01*
X143534355Y-51232006D01*
X143496862Y-51227556D01*
X143480084Y-51222082D01*
X143478191Y-51218760D01*
X143470074Y-51193987D01*
X143459334Y-51151011D01*
X143447147Y-51094802D01*
X143434690Y-51030325D01*
X143430723Y-51008570D01*
X143412271Y-50908093D01*
X143397441Y-50829126D01*
X143385620Y-50768934D01*
X143376191Y-50724778D01*
X143368540Y-50693920D01*
X143362052Y-50673625D01*
X143356112Y-50661154D01*
X143350106Y-50653771D01*
X143349098Y-50652913D01*
X143328081Y-50640838D01*
X143289624Y-50622971D01*
X143238239Y-50601042D01*
X143178437Y-50576784D01*
X143114730Y-50551927D01*
X143051629Y-50528205D01*
X142993645Y-50507347D01*
X142945291Y-50491087D01*
X142911078Y-50481156D01*
X142895517Y-50479285D01*
X142893498Y-50480536D01*
X142873972Y-50493486D01*
X142837958Y-50517840D01*
X142788772Y-50551340D01*
X142729733Y-50591727D01*
X142664158Y-50636745D01*
X142646116Y-50649100D01*
X142581401Y-50692545D01*
X142523524Y-50730091D01*
X142475918Y-50759594D01*
X142442015Y-50778914D01*
X142425248Y-50785905D01*
X142420839Y-50784398D01*
X142399118Y-50768695D01*
X142363646Y-50737714D01*
X142316812Y-50693673D01*
X142261004Y-50638790D01*
X142198608Y-50575286D01*
X142163683Y-50538988D01*
X142109289Y-50481595D01*
X142062698Y-50431361D01*
X142026364Y-50390984D01*
X142002739Y-50363161D01*
X141994276Y-50350590D01*
X141997413Y-50341952D01*
X142012253Y-50315360D01*
X142036523Y-50276741D01*
X142067148Y-50231134D01*
X142089497Y-50198707D01*
X142133878Y-50133970D01*
X142181013Y-50064886D01*
X142223845Y-50001787D01*
X142307453Y-49878178D01*
X142251350Y-49774417D01*
X142238401Y-49749984D01*
X142216251Y-49705552D01*
X142200959Y-49671191D01*
X142195257Y-49652828D01*
X142202579Y-49646818D01*
X142230459Y-49631895D01*
X142276425Y-49609852D01*
X142337559Y-49581917D01*
X142410945Y-49549317D01*
X142493665Y-49513276D01*
X142582803Y-49475023D01*
X142675441Y-49435783D01*
X142768663Y-49396783D01*
X142859550Y-49359249D01*
X142945186Y-49324409D01*
X143022655Y-49293488D01*
X143089038Y-49267714D01*
X143141418Y-49248311D01*
X143176879Y-49236508D01*
X143192504Y-49233531D01*
X143192961Y-49233732D01*
X143207405Y-49247601D01*
X143230026Y-49276611D01*
X143256136Y-49314772D01*
X143264108Y-49326817D01*
X143339744Y-49418469D01*
X143429831Y-49494323D01*
X143530619Y-49552581D01*
X143638360Y-49591448D01*
X143749303Y-49609128D01*
X143859697Y-49603826D01*
X143957885Y-49582347D01*
X144057034Y-49543782D01*
X144145488Y-49487562D01*
X144229513Y-49410410D01*
X144256355Y-49380095D01*
X144322490Y-49282094D01*
X144367030Y-49176227D01*
X144390375Y-49065561D01*
X144392922Y-48953164D01*
X144375071Y-48842105D01*
X144337220Y-48735451D01*
X144279768Y-48636270D01*
X144203113Y-48547631D01*
X144107655Y-48472600D01*
X144084015Y-48458175D01*
X143975966Y-48409143D01*
X143863452Y-48383103D01*
X143749386Y-48379372D01*
X143636682Y-48397268D01*
X143528255Y-48436109D01*
X143427018Y-48495214D01*
X143335886Y-48573900D01*
X143257772Y-48671485D01*
X143255667Y-48674654D01*
X143229060Y-48712411D01*
X143206439Y-48740709D01*
X143192504Y-48753634D01*
X143181579Y-48752003D01*
X143149769Y-48741864D01*
X143100466Y-48723884D01*
X143036587Y-48699292D01*
X142961052Y-48669311D01*
X142876777Y-48635170D01*
X142786680Y-48598092D01*
X142693679Y-48559306D01*
X142600692Y-48520036D01*
X142510636Y-48481509D01*
X142426429Y-48444950D01*
X142350990Y-48411586D01*
X142287235Y-48382643D01*
X142238083Y-48359346D01*
X142206451Y-48342923D01*
X142195257Y-48334598D01*
X142196773Y-48327674D01*
X142207669Y-48300477D01*
X142226772Y-48260280D01*
X142251350Y-48213009D01*
X142307453Y-48109248D01*
X142223845Y-47985639D01*
X142199087Y-47949120D01*
X142152829Y-47881194D01*
X142106497Y-47813475D01*
X142067148Y-47756291D01*
X142045703Y-47724732D01*
X142019061Y-47683714D01*
X142000822Y-47653301D01*
X141994059Y-47638446D01*
X141996930Y-47632065D01*
X142014515Y-47608996D01*
X142045477Y-47573433D01*
X142086769Y-47528471D01*
X142135347Y-47477206D01*
X142188165Y-47422733D01*
X142242177Y-47368148D01*
X142294339Y-47316547D01*
X142341604Y-47271024D01*
X142380928Y-47234675D01*
X142409264Y-47210595D01*
X142423568Y-47201881D01*
X142426289Y-47202383D01*
X142448440Y-47212755D01*
X142486765Y-47234912D01*
X142537800Y-47266712D01*
X142598086Y-47306016D01*
X142664158Y-47350681D01*
X142682383Y-47363207D01*
X142746515Y-47407193D01*
X142803211Y-47445937D01*
X142849156Y-47477182D01*
X142881030Y-47498669D01*
X142895517Y-47508140D01*
X142896138Y-47508373D01*
X142913861Y-47505578D01*
X142949765Y-47494903D01*
X142999338Y-47478081D01*
X143058068Y-47456843D01*
X143121444Y-47432921D01*
X143184954Y-47408046D01*
X143244087Y-47383950D01*
X143294331Y-47362365D01*
X143331174Y-47345023D01*
X143350106Y-47333655D01*
X143351281Y-47332516D01*
X143357227Y-47324376D01*
X143363224Y-47310629D01*
X143369886Y-47288537D01*
X143377827Y-47255363D01*
X143387663Y-47208370D01*
X143400009Y-47144820D01*
X143415480Y-47061976D01*
X143434690Y-46957100D01*
X143438733Y-46935348D01*
X143451231Y-46873036D01*
X143463073Y-46820619D01*
X143473083Y-46783066D01*
X143480084Y-46765343D01*
X143485925Y-46762378D01*
X143513984Y-46757435D01*
X143560500Y-46753518D01*
X143621114Y-46750629D01*
X143691468Y-46748773D01*
X143767204Y-46747952D01*
X143843963Y-46748168D01*
G37*
D13*
%TO.C,R40*%
X117872742Y-75677500D02*
X118347258Y-75677500D01*
X117872742Y-76722500D02*
X118347258Y-76722500D01*
%TO.C,R39*%
X117872742Y-73137500D02*
X118347258Y-73137500D01*
X117872742Y-74182500D02*
X118347258Y-74182500D01*
%TO.C,R38*%
X117872742Y-70597500D02*
X118347258Y-70597500D01*
X117872742Y-71642500D02*
X118347258Y-71642500D01*
%TO.C,R37*%
X117872742Y-68057500D02*
X118347258Y-68057500D01*
X117872742Y-69102500D02*
X118347258Y-69102500D01*
%TO.C,R36*%
X117872742Y-65517500D02*
X118347258Y-65517500D01*
X117872742Y-66562500D02*
X118347258Y-66562500D01*
%TO.C,R35*%
X117872742Y-62977500D02*
X118347258Y-62977500D01*
X117872742Y-64022500D02*
X118347258Y-64022500D01*
%TO.C,R34*%
X117872742Y-60437500D02*
X118347258Y-60437500D01*
X117872742Y-61482500D02*
X118347258Y-61482500D01*
%TO.C,R33*%
X117872742Y-57897500D02*
X118347258Y-57897500D01*
X117872742Y-58942500D02*
X118347258Y-58942500D01*
%TD*%
M02*
