%TF.GenerationSoftware,KiCad,Pcbnew,8.0.3*%
%TF.CreationDate,2024-07-20T13:21:27-05:00*%
%TF.ProjectId,tla_probe_sma_breakout,746c615f-7072-46f6-9265-5f736d615f62,rev?*%
%TF.SameCoordinates,Original*%
%TF.FileFunction,Legend,Top*%
%TF.FilePolarity,Positive*%
%FSLAX46Y46*%
G04 Gerber Fmt 4.6, Leading zero omitted, Abs format (unit mm)*
G04 Created by KiCad (PCBNEW 8.0.3) date 2024-07-20 13:21:27*
%MOMM*%
%LPD*%
G01*
G04 APERTURE LIST*
%ADD10C,0.100000*%
%ADD11C,0.150000*%
%ADD12C,0.120000*%
G04 APERTURE END LIST*
D10*
X132219925Y-92457419D02*
X132219925Y-91457419D01*
X132219925Y-91457419D02*
X132600877Y-91457419D01*
X132600877Y-91457419D02*
X132696115Y-91505038D01*
X132696115Y-91505038D02*
X132743734Y-91552657D01*
X132743734Y-91552657D02*
X132791353Y-91647895D01*
X132791353Y-91647895D02*
X132791353Y-91790752D01*
X132791353Y-91790752D02*
X132743734Y-91885990D01*
X132743734Y-91885990D02*
X132696115Y-91933609D01*
X132696115Y-91933609D02*
X132600877Y-91981228D01*
X132600877Y-91981228D02*
X132219925Y-91981228D01*
X133124687Y-91457419D02*
X133791353Y-91457419D01*
X133791353Y-91457419D02*
X133362782Y-92457419D01*
X141219925Y-90457419D02*
X141219925Y-89457419D01*
X141219925Y-89457419D02*
X141600877Y-89457419D01*
X141600877Y-89457419D02*
X141696115Y-89505038D01*
X141696115Y-89505038D02*
X141743734Y-89552657D01*
X141743734Y-89552657D02*
X141791353Y-89647895D01*
X141791353Y-89647895D02*
X141791353Y-89790752D01*
X141791353Y-89790752D02*
X141743734Y-89885990D01*
X141743734Y-89885990D02*
X141696115Y-89933609D01*
X141696115Y-89933609D02*
X141600877Y-89981228D01*
X141600877Y-89981228D02*
X141219925Y-89981228D01*
X142648496Y-89457419D02*
X142458020Y-89457419D01*
X142458020Y-89457419D02*
X142362782Y-89505038D01*
X142362782Y-89505038D02*
X142315163Y-89552657D01*
X142315163Y-89552657D02*
X142219925Y-89695514D01*
X142219925Y-89695514D02*
X142172306Y-89885990D01*
X142172306Y-89885990D02*
X142172306Y-90266942D01*
X142172306Y-90266942D02*
X142219925Y-90362180D01*
X142219925Y-90362180D02*
X142267544Y-90409800D01*
X142267544Y-90409800D02*
X142362782Y-90457419D01*
X142362782Y-90457419D02*
X142553258Y-90457419D01*
X142553258Y-90457419D02*
X142648496Y-90409800D01*
X142648496Y-90409800D02*
X142696115Y-90362180D01*
X142696115Y-90362180D02*
X142743734Y-90266942D01*
X142743734Y-90266942D02*
X142743734Y-90028847D01*
X142743734Y-90028847D02*
X142696115Y-89933609D01*
X142696115Y-89933609D02*
X142648496Y-89885990D01*
X142648496Y-89885990D02*
X142553258Y-89838371D01*
X142553258Y-89838371D02*
X142362782Y-89838371D01*
X142362782Y-89838371D02*
X142267544Y-89885990D01*
X142267544Y-89885990D02*
X142219925Y-89933609D01*
X142219925Y-89933609D02*
X142172306Y-90028847D01*
X150219925Y-83457419D02*
X150219925Y-82457419D01*
X150219925Y-82457419D02*
X150600877Y-82457419D01*
X150600877Y-82457419D02*
X150696115Y-82505038D01*
X150696115Y-82505038D02*
X150743734Y-82552657D01*
X150743734Y-82552657D02*
X150791353Y-82647895D01*
X150791353Y-82647895D02*
X150791353Y-82790752D01*
X150791353Y-82790752D02*
X150743734Y-82885990D01*
X150743734Y-82885990D02*
X150696115Y-82933609D01*
X150696115Y-82933609D02*
X150600877Y-82981228D01*
X150600877Y-82981228D02*
X150219925Y-82981228D01*
X151696115Y-82457419D02*
X151219925Y-82457419D01*
X151219925Y-82457419D02*
X151172306Y-82933609D01*
X151172306Y-82933609D02*
X151219925Y-82885990D01*
X151219925Y-82885990D02*
X151315163Y-82838371D01*
X151315163Y-82838371D02*
X151553258Y-82838371D01*
X151553258Y-82838371D02*
X151648496Y-82885990D01*
X151648496Y-82885990D02*
X151696115Y-82933609D01*
X151696115Y-82933609D02*
X151743734Y-83028847D01*
X151743734Y-83028847D02*
X151743734Y-83266942D01*
X151743734Y-83266942D02*
X151696115Y-83362180D01*
X151696115Y-83362180D02*
X151648496Y-83409800D01*
X151648496Y-83409800D02*
X151553258Y-83457419D01*
X151553258Y-83457419D02*
X151315163Y-83457419D01*
X151315163Y-83457419D02*
X151219925Y-83409800D01*
X151219925Y-83409800D02*
X151172306Y-83362180D01*
X155219925Y-74457419D02*
X155219925Y-73457419D01*
X155219925Y-73457419D02*
X155600877Y-73457419D01*
X155600877Y-73457419D02*
X155696115Y-73505038D01*
X155696115Y-73505038D02*
X155743734Y-73552657D01*
X155743734Y-73552657D02*
X155791353Y-73647895D01*
X155791353Y-73647895D02*
X155791353Y-73790752D01*
X155791353Y-73790752D02*
X155743734Y-73885990D01*
X155743734Y-73885990D02*
X155696115Y-73933609D01*
X155696115Y-73933609D02*
X155600877Y-73981228D01*
X155600877Y-73981228D02*
X155219925Y-73981228D01*
X156648496Y-73790752D02*
X156648496Y-74457419D01*
X156410401Y-73409800D02*
X156172306Y-74124085D01*
X156172306Y-74124085D02*
X156791353Y-74124085D01*
X155219925Y-58457419D02*
X155219925Y-57457419D01*
X155219925Y-57457419D02*
X155600877Y-57457419D01*
X155600877Y-57457419D02*
X155696115Y-57505038D01*
X155696115Y-57505038D02*
X155743734Y-57552657D01*
X155743734Y-57552657D02*
X155791353Y-57647895D01*
X155791353Y-57647895D02*
X155791353Y-57790752D01*
X155791353Y-57790752D02*
X155743734Y-57885990D01*
X155743734Y-57885990D02*
X155696115Y-57933609D01*
X155696115Y-57933609D02*
X155600877Y-57981228D01*
X155600877Y-57981228D02*
X155219925Y-57981228D01*
X156124687Y-57457419D02*
X156743734Y-57457419D01*
X156743734Y-57457419D02*
X156410401Y-57838371D01*
X156410401Y-57838371D02*
X156553258Y-57838371D01*
X156553258Y-57838371D02*
X156648496Y-57885990D01*
X156648496Y-57885990D02*
X156696115Y-57933609D01*
X156696115Y-57933609D02*
X156743734Y-58028847D01*
X156743734Y-58028847D02*
X156743734Y-58266942D01*
X156743734Y-58266942D02*
X156696115Y-58362180D01*
X156696115Y-58362180D02*
X156648496Y-58409800D01*
X156648496Y-58409800D02*
X156553258Y-58457419D01*
X156553258Y-58457419D02*
X156267544Y-58457419D01*
X156267544Y-58457419D02*
X156172306Y-58409800D01*
X156172306Y-58409800D02*
X156124687Y-58362180D01*
X150219925Y-49457419D02*
X150219925Y-48457419D01*
X150219925Y-48457419D02*
X150600877Y-48457419D01*
X150600877Y-48457419D02*
X150696115Y-48505038D01*
X150696115Y-48505038D02*
X150743734Y-48552657D01*
X150743734Y-48552657D02*
X150791353Y-48647895D01*
X150791353Y-48647895D02*
X150791353Y-48790752D01*
X150791353Y-48790752D02*
X150743734Y-48885990D01*
X150743734Y-48885990D02*
X150696115Y-48933609D01*
X150696115Y-48933609D02*
X150600877Y-48981228D01*
X150600877Y-48981228D02*
X150219925Y-48981228D01*
X151172306Y-48552657D02*
X151219925Y-48505038D01*
X151219925Y-48505038D02*
X151315163Y-48457419D01*
X151315163Y-48457419D02*
X151553258Y-48457419D01*
X151553258Y-48457419D02*
X151648496Y-48505038D01*
X151648496Y-48505038D02*
X151696115Y-48552657D01*
X151696115Y-48552657D02*
X151743734Y-48647895D01*
X151743734Y-48647895D02*
X151743734Y-48743133D01*
X151743734Y-48743133D02*
X151696115Y-48885990D01*
X151696115Y-48885990D02*
X151124687Y-49457419D01*
X151124687Y-49457419D02*
X151743734Y-49457419D01*
X141219925Y-42457419D02*
X141219925Y-41457419D01*
X141219925Y-41457419D02*
X141600877Y-41457419D01*
X141600877Y-41457419D02*
X141696115Y-41505038D01*
X141696115Y-41505038D02*
X141743734Y-41552657D01*
X141743734Y-41552657D02*
X141791353Y-41647895D01*
X141791353Y-41647895D02*
X141791353Y-41790752D01*
X141791353Y-41790752D02*
X141743734Y-41885990D01*
X141743734Y-41885990D02*
X141696115Y-41933609D01*
X141696115Y-41933609D02*
X141600877Y-41981228D01*
X141600877Y-41981228D02*
X141219925Y-41981228D01*
X142743734Y-42457419D02*
X142172306Y-42457419D01*
X142458020Y-42457419D02*
X142458020Y-41457419D01*
X142458020Y-41457419D02*
X142362782Y-41600276D01*
X142362782Y-41600276D02*
X142267544Y-41695514D01*
X142267544Y-41695514D02*
X142172306Y-41743133D01*
X132219925Y-40457419D02*
X132219925Y-39457419D01*
X132219925Y-39457419D02*
X132600877Y-39457419D01*
X132600877Y-39457419D02*
X132696115Y-39505038D01*
X132696115Y-39505038D02*
X132743734Y-39552657D01*
X132743734Y-39552657D02*
X132791353Y-39647895D01*
X132791353Y-39647895D02*
X132791353Y-39790752D01*
X132791353Y-39790752D02*
X132743734Y-39885990D01*
X132743734Y-39885990D02*
X132696115Y-39933609D01*
X132696115Y-39933609D02*
X132600877Y-39981228D01*
X132600877Y-39981228D02*
X132219925Y-39981228D01*
X133410401Y-39457419D02*
X133505639Y-39457419D01*
X133505639Y-39457419D02*
X133600877Y-39505038D01*
X133600877Y-39505038D02*
X133648496Y-39552657D01*
X133648496Y-39552657D02*
X133696115Y-39647895D01*
X133696115Y-39647895D02*
X133743734Y-39838371D01*
X133743734Y-39838371D02*
X133743734Y-40076466D01*
X133743734Y-40076466D02*
X133696115Y-40266942D01*
X133696115Y-40266942D02*
X133648496Y-40362180D01*
X133648496Y-40362180D02*
X133600877Y-40409800D01*
X133600877Y-40409800D02*
X133505639Y-40457419D01*
X133505639Y-40457419D02*
X133410401Y-40457419D01*
X133410401Y-40457419D02*
X133315163Y-40409800D01*
X133315163Y-40409800D02*
X133267544Y-40362180D01*
X133267544Y-40362180D02*
X133219925Y-40266942D01*
X133219925Y-40266942D02*
X133172306Y-40076466D01*
X133172306Y-40076466D02*
X133172306Y-39838371D01*
X133172306Y-39838371D02*
X133219925Y-39647895D01*
X133219925Y-39647895D02*
X133267544Y-39552657D01*
X133267544Y-39552657D02*
X133315163Y-39505038D01*
X133315163Y-39505038D02*
X133410401Y-39457419D01*
D11*
X129813207Y-74114819D02*
X129479874Y-73638628D01*
X129241779Y-74114819D02*
X129241779Y-73114819D01*
X129241779Y-73114819D02*
X129622731Y-73114819D01*
X129622731Y-73114819D02*
X129717969Y-73162438D01*
X129717969Y-73162438D02*
X129765588Y-73210057D01*
X129765588Y-73210057D02*
X129813207Y-73305295D01*
X129813207Y-73305295D02*
X129813207Y-73448152D01*
X129813207Y-73448152D02*
X129765588Y-73543390D01*
X129765588Y-73543390D02*
X129717969Y-73591009D01*
X129717969Y-73591009D02*
X129622731Y-73638628D01*
X129622731Y-73638628D02*
X129241779Y-73638628D01*
X130146541Y-73114819D02*
X130765588Y-73114819D01*
X130765588Y-73114819D02*
X130432255Y-73495771D01*
X130432255Y-73495771D02*
X130575112Y-73495771D01*
X130575112Y-73495771D02*
X130670350Y-73543390D01*
X130670350Y-73543390D02*
X130717969Y-73591009D01*
X130717969Y-73591009D02*
X130765588Y-73686247D01*
X130765588Y-73686247D02*
X130765588Y-73924342D01*
X130765588Y-73924342D02*
X130717969Y-74019580D01*
X130717969Y-74019580D02*
X130670350Y-74067200D01*
X130670350Y-74067200D02*
X130575112Y-74114819D01*
X130575112Y-74114819D02*
X130289398Y-74114819D01*
X130289398Y-74114819D02*
X130194160Y-74067200D01*
X130194160Y-74067200D02*
X130146541Y-74019580D01*
X131146541Y-73210057D02*
X131194160Y-73162438D01*
X131194160Y-73162438D02*
X131289398Y-73114819D01*
X131289398Y-73114819D02*
X131527493Y-73114819D01*
X131527493Y-73114819D02*
X131622731Y-73162438D01*
X131622731Y-73162438D02*
X131670350Y-73210057D01*
X131670350Y-73210057D02*
X131717969Y-73305295D01*
X131717969Y-73305295D02*
X131717969Y-73400533D01*
X131717969Y-73400533D02*
X131670350Y-73543390D01*
X131670350Y-73543390D02*
X131098922Y-74114819D01*
X131098922Y-74114819D02*
X131717969Y-74114819D01*
X129813207Y-71574819D02*
X129479874Y-71098628D01*
X129241779Y-71574819D02*
X129241779Y-70574819D01*
X129241779Y-70574819D02*
X129622731Y-70574819D01*
X129622731Y-70574819D02*
X129717969Y-70622438D01*
X129717969Y-70622438D02*
X129765588Y-70670057D01*
X129765588Y-70670057D02*
X129813207Y-70765295D01*
X129813207Y-70765295D02*
X129813207Y-70908152D01*
X129813207Y-70908152D02*
X129765588Y-71003390D01*
X129765588Y-71003390D02*
X129717969Y-71051009D01*
X129717969Y-71051009D02*
X129622731Y-71098628D01*
X129622731Y-71098628D02*
X129241779Y-71098628D01*
X130146541Y-70574819D02*
X130765588Y-70574819D01*
X130765588Y-70574819D02*
X130432255Y-70955771D01*
X130432255Y-70955771D02*
X130575112Y-70955771D01*
X130575112Y-70955771D02*
X130670350Y-71003390D01*
X130670350Y-71003390D02*
X130717969Y-71051009D01*
X130717969Y-71051009D02*
X130765588Y-71146247D01*
X130765588Y-71146247D02*
X130765588Y-71384342D01*
X130765588Y-71384342D02*
X130717969Y-71479580D01*
X130717969Y-71479580D02*
X130670350Y-71527200D01*
X130670350Y-71527200D02*
X130575112Y-71574819D01*
X130575112Y-71574819D02*
X130289398Y-71574819D01*
X130289398Y-71574819D02*
X130194160Y-71527200D01*
X130194160Y-71527200D02*
X130146541Y-71479580D01*
X131717969Y-71574819D02*
X131146541Y-71574819D01*
X131432255Y-71574819D02*
X131432255Y-70574819D01*
X131432255Y-70574819D02*
X131337017Y-70717676D01*
X131337017Y-70717676D02*
X131241779Y-70812914D01*
X131241779Y-70812914D02*
X131146541Y-70860533D01*
X129813207Y-69034819D02*
X129479874Y-68558628D01*
X129241779Y-69034819D02*
X129241779Y-68034819D01*
X129241779Y-68034819D02*
X129622731Y-68034819D01*
X129622731Y-68034819D02*
X129717969Y-68082438D01*
X129717969Y-68082438D02*
X129765588Y-68130057D01*
X129765588Y-68130057D02*
X129813207Y-68225295D01*
X129813207Y-68225295D02*
X129813207Y-68368152D01*
X129813207Y-68368152D02*
X129765588Y-68463390D01*
X129765588Y-68463390D02*
X129717969Y-68511009D01*
X129717969Y-68511009D02*
X129622731Y-68558628D01*
X129622731Y-68558628D02*
X129241779Y-68558628D01*
X130146541Y-68034819D02*
X130765588Y-68034819D01*
X130765588Y-68034819D02*
X130432255Y-68415771D01*
X130432255Y-68415771D02*
X130575112Y-68415771D01*
X130575112Y-68415771D02*
X130670350Y-68463390D01*
X130670350Y-68463390D02*
X130717969Y-68511009D01*
X130717969Y-68511009D02*
X130765588Y-68606247D01*
X130765588Y-68606247D02*
X130765588Y-68844342D01*
X130765588Y-68844342D02*
X130717969Y-68939580D01*
X130717969Y-68939580D02*
X130670350Y-68987200D01*
X130670350Y-68987200D02*
X130575112Y-69034819D01*
X130575112Y-69034819D02*
X130289398Y-69034819D01*
X130289398Y-69034819D02*
X130194160Y-68987200D01*
X130194160Y-68987200D02*
X130146541Y-68939580D01*
X131384636Y-68034819D02*
X131479874Y-68034819D01*
X131479874Y-68034819D02*
X131575112Y-68082438D01*
X131575112Y-68082438D02*
X131622731Y-68130057D01*
X131622731Y-68130057D02*
X131670350Y-68225295D01*
X131670350Y-68225295D02*
X131717969Y-68415771D01*
X131717969Y-68415771D02*
X131717969Y-68653866D01*
X131717969Y-68653866D02*
X131670350Y-68844342D01*
X131670350Y-68844342D02*
X131622731Y-68939580D01*
X131622731Y-68939580D02*
X131575112Y-68987200D01*
X131575112Y-68987200D02*
X131479874Y-69034819D01*
X131479874Y-69034819D02*
X131384636Y-69034819D01*
X131384636Y-69034819D02*
X131289398Y-68987200D01*
X131289398Y-68987200D02*
X131241779Y-68939580D01*
X131241779Y-68939580D02*
X131194160Y-68844342D01*
X131194160Y-68844342D02*
X131146541Y-68653866D01*
X131146541Y-68653866D02*
X131146541Y-68415771D01*
X131146541Y-68415771D02*
X131194160Y-68225295D01*
X131194160Y-68225295D02*
X131241779Y-68130057D01*
X131241779Y-68130057D02*
X131289398Y-68082438D01*
X131289398Y-68082438D02*
X131384636Y-68034819D01*
X129813207Y-66494819D02*
X129479874Y-66018628D01*
X129241779Y-66494819D02*
X129241779Y-65494819D01*
X129241779Y-65494819D02*
X129622731Y-65494819D01*
X129622731Y-65494819D02*
X129717969Y-65542438D01*
X129717969Y-65542438D02*
X129765588Y-65590057D01*
X129765588Y-65590057D02*
X129813207Y-65685295D01*
X129813207Y-65685295D02*
X129813207Y-65828152D01*
X129813207Y-65828152D02*
X129765588Y-65923390D01*
X129765588Y-65923390D02*
X129717969Y-65971009D01*
X129717969Y-65971009D02*
X129622731Y-66018628D01*
X129622731Y-66018628D02*
X129241779Y-66018628D01*
X130194160Y-65590057D02*
X130241779Y-65542438D01*
X130241779Y-65542438D02*
X130337017Y-65494819D01*
X130337017Y-65494819D02*
X130575112Y-65494819D01*
X130575112Y-65494819D02*
X130670350Y-65542438D01*
X130670350Y-65542438D02*
X130717969Y-65590057D01*
X130717969Y-65590057D02*
X130765588Y-65685295D01*
X130765588Y-65685295D02*
X130765588Y-65780533D01*
X130765588Y-65780533D02*
X130717969Y-65923390D01*
X130717969Y-65923390D02*
X130146541Y-66494819D01*
X130146541Y-66494819D02*
X130765588Y-66494819D01*
X131241779Y-66494819D02*
X131432255Y-66494819D01*
X131432255Y-66494819D02*
X131527493Y-66447200D01*
X131527493Y-66447200D02*
X131575112Y-66399580D01*
X131575112Y-66399580D02*
X131670350Y-66256723D01*
X131670350Y-66256723D02*
X131717969Y-66066247D01*
X131717969Y-66066247D02*
X131717969Y-65685295D01*
X131717969Y-65685295D02*
X131670350Y-65590057D01*
X131670350Y-65590057D02*
X131622731Y-65542438D01*
X131622731Y-65542438D02*
X131527493Y-65494819D01*
X131527493Y-65494819D02*
X131337017Y-65494819D01*
X131337017Y-65494819D02*
X131241779Y-65542438D01*
X131241779Y-65542438D02*
X131194160Y-65590057D01*
X131194160Y-65590057D02*
X131146541Y-65685295D01*
X131146541Y-65685295D02*
X131146541Y-65923390D01*
X131146541Y-65923390D02*
X131194160Y-66018628D01*
X131194160Y-66018628D02*
X131241779Y-66066247D01*
X131241779Y-66066247D02*
X131337017Y-66113866D01*
X131337017Y-66113866D02*
X131527493Y-66113866D01*
X131527493Y-66113866D02*
X131622731Y-66066247D01*
X131622731Y-66066247D02*
X131670350Y-66018628D01*
X131670350Y-66018628D02*
X131717969Y-65923390D01*
X129813207Y-63954819D02*
X129479874Y-63478628D01*
X129241779Y-63954819D02*
X129241779Y-62954819D01*
X129241779Y-62954819D02*
X129622731Y-62954819D01*
X129622731Y-62954819D02*
X129717969Y-63002438D01*
X129717969Y-63002438D02*
X129765588Y-63050057D01*
X129765588Y-63050057D02*
X129813207Y-63145295D01*
X129813207Y-63145295D02*
X129813207Y-63288152D01*
X129813207Y-63288152D02*
X129765588Y-63383390D01*
X129765588Y-63383390D02*
X129717969Y-63431009D01*
X129717969Y-63431009D02*
X129622731Y-63478628D01*
X129622731Y-63478628D02*
X129241779Y-63478628D01*
X130194160Y-63050057D02*
X130241779Y-63002438D01*
X130241779Y-63002438D02*
X130337017Y-62954819D01*
X130337017Y-62954819D02*
X130575112Y-62954819D01*
X130575112Y-62954819D02*
X130670350Y-63002438D01*
X130670350Y-63002438D02*
X130717969Y-63050057D01*
X130717969Y-63050057D02*
X130765588Y-63145295D01*
X130765588Y-63145295D02*
X130765588Y-63240533D01*
X130765588Y-63240533D02*
X130717969Y-63383390D01*
X130717969Y-63383390D02*
X130146541Y-63954819D01*
X130146541Y-63954819D02*
X130765588Y-63954819D01*
X131337017Y-63383390D02*
X131241779Y-63335771D01*
X131241779Y-63335771D02*
X131194160Y-63288152D01*
X131194160Y-63288152D02*
X131146541Y-63192914D01*
X131146541Y-63192914D02*
X131146541Y-63145295D01*
X131146541Y-63145295D02*
X131194160Y-63050057D01*
X131194160Y-63050057D02*
X131241779Y-63002438D01*
X131241779Y-63002438D02*
X131337017Y-62954819D01*
X131337017Y-62954819D02*
X131527493Y-62954819D01*
X131527493Y-62954819D02*
X131622731Y-63002438D01*
X131622731Y-63002438D02*
X131670350Y-63050057D01*
X131670350Y-63050057D02*
X131717969Y-63145295D01*
X131717969Y-63145295D02*
X131717969Y-63192914D01*
X131717969Y-63192914D02*
X131670350Y-63288152D01*
X131670350Y-63288152D02*
X131622731Y-63335771D01*
X131622731Y-63335771D02*
X131527493Y-63383390D01*
X131527493Y-63383390D02*
X131337017Y-63383390D01*
X131337017Y-63383390D02*
X131241779Y-63431009D01*
X131241779Y-63431009D02*
X131194160Y-63478628D01*
X131194160Y-63478628D02*
X131146541Y-63573866D01*
X131146541Y-63573866D02*
X131146541Y-63764342D01*
X131146541Y-63764342D02*
X131194160Y-63859580D01*
X131194160Y-63859580D02*
X131241779Y-63907200D01*
X131241779Y-63907200D02*
X131337017Y-63954819D01*
X131337017Y-63954819D02*
X131527493Y-63954819D01*
X131527493Y-63954819D02*
X131622731Y-63907200D01*
X131622731Y-63907200D02*
X131670350Y-63859580D01*
X131670350Y-63859580D02*
X131717969Y-63764342D01*
X131717969Y-63764342D02*
X131717969Y-63573866D01*
X131717969Y-63573866D02*
X131670350Y-63478628D01*
X131670350Y-63478628D02*
X131622731Y-63431009D01*
X131622731Y-63431009D02*
X131527493Y-63383390D01*
X129813207Y-61474819D02*
X129479874Y-60998628D01*
X129241779Y-61474819D02*
X129241779Y-60474819D01*
X129241779Y-60474819D02*
X129622731Y-60474819D01*
X129622731Y-60474819D02*
X129717969Y-60522438D01*
X129717969Y-60522438D02*
X129765588Y-60570057D01*
X129765588Y-60570057D02*
X129813207Y-60665295D01*
X129813207Y-60665295D02*
X129813207Y-60808152D01*
X129813207Y-60808152D02*
X129765588Y-60903390D01*
X129765588Y-60903390D02*
X129717969Y-60951009D01*
X129717969Y-60951009D02*
X129622731Y-60998628D01*
X129622731Y-60998628D02*
X129241779Y-60998628D01*
X130194160Y-60570057D02*
X130241779Y-60522438D01*
X130241779Y-60522438D02*
X130337017Y-60474819D01*
X130337017Y-60474819D02*
X130575112Y-60474819D01*
X130575112Y-60474819D02*
X130670350Y-60522438D01*
X130670350Y-60522438D02*
X130717969Y-60570057D01*
X130717969Y-60570057D02*
X130765588Y-60665295D01*
X130765588Y-60665295D02*
X130765588Y-60760533D01*
X130765588Y-60760533D02*
X130717969Y-60903390D01*
X130717969Y-60903390D02*
X130146541Y-61474819D01*
X130146541Y-61474819D02*
X130765588Y-61474819D01*
X131098922Y-60474819D02*
X131765588Y-60474819D01*
X131765588Y-60474819D02*
X131337017Y-61474819D01*
X129813207Y-58874819D02*
X129479874Y-58398628D01*
X129241779Y-58874819D02*
X129241779Y-57874819D01*
X129241779Y-57874819D02*
X129622731Y-57874819D01*
X129622731Y-57874819D02*
X129717969Y-57922438D01*
X129717969Y-57922438D02*
X129765588Y-57970057D01*
X129765588Y-57970057D02*
X129813207Y-58065295D01*
X129813207Y-58065295D02*
X129813207Y-58208152D01*
X129813207Y-58208152D02*
X129765588Y-58303390D01*
X129765588Y-58303390D02*
X129717969Y-58351009D01*
X129717969Y-58351009D02*
X129622731Y-58398628D01*
X129622731Y-58398628D02*
X129241779Y-58398628D01*
X130194160Y-57970057D02*
X130241779Y-57922438D01*
X130241779Y-57922438D02*
X130337017Y-57874819D01*
X130337017Y-57874819D02*
X130575112Y-57874819D01*
X130575112Y-57874819D02*
X130670350Y-57922438D01*
X130670350Y-57922438D02*
X130717969Y-57970057D01*
X130717969Y-57970057D02*
X130765588Y-58065295D01*
X130765588Y-58065295D02*
X130765588Y-58160533D01*
X130765588Y-58160533D02*
X130717969Y-58303390D01*
X130717969Y-58303390D02*
X130146541Y-58874819D01*
X130146541Y-58874819D02*
X130765588Y-58874819D01*
X131622731Y-57874819D02*
X131432255Y-57874819D01*
X131432255Y-57874819D02*
X131337017Y-57922438D01*
X131337017Y-57922438D02*
X131289398Y-57970057D01*
X131289398Y-57970057D02*
X131194160Y-58112914D01*
X131194160Y-58112914D02*
X131146541Y-58303390D01*
X131146541Y-58303390D02*
X131146541Y-58684342D01*
X131146541Y-58684342D02*
X131194160Y-58779580D01*
X131194160Y-58779580D02*
X131241779Y-58827200D01*
X131241779Y-58827200D02*
X131337017Y-58874819D01*
X131337017Y-58874819D02*
X131527493Y-58874819D01*
X131527493Y-58874819D02*
X131622731Y-58827200D01*
X131622731Y-58827200D02*
X131670350Y-58779580D01*
X131670350Y-58779580D02*
X131717969Y-58684342D01*
X131717969Y-58684342D02*
X131717969Y-58446247D01*
X131717969Y-58446247D02*
X131670350Y-58351009D01*
X131670350Y-58351009D02*
X131622731Y-58303390D01*
X131622731Y-58303390D02*
X131527493Y-58255771D01*
X131527493Y-58255771D02*
X131337017Y-58255771D01*
X131337017Y-58255771D02*
X131241779Y-58303390D01*
X131241779Y-58303390D02*
X131194160Y-58351009D01*
X131194160Y-58351009D02*
X131146541Y-58446247D01*
X129813207Y-56334819D02*
X129479874Y-55858628D01*
X129241779Y-56334819D02*
X129241779Y-55334819D01*
X129241779Y-55334819D02*
X129622731Y-55334819D01*
X129622731Y-55334819D02*
X129717969Y-55382438D01*
X129717969Y-55382438D02*
X129765588Y-55430057D01*
X129765588Y-55430057D02*
X129813207Y-55525295D01*
X129813207Y-55525295D02*
X129813207Y-55668152D01*
X129813207Y-55668152D02*
X129765588Y-55763390D01*
X129765588Y-55763390D02*
X129717969Y-55811009D01*
X129717969Y-55811009D02*
X129622731Y-55858628D01*
X129622731Y-55858628D02*
X129241779Y-55858628D01*
X130194160Y-55430057D02*
X130241779Y-55382438D01*
X130241779Y-55382438D02*
X130337017Y-55334819D01*
X130337017Y-55334819D02*
X130575112Y-55334819D01*
X130575112Y-55334819D02*
X130670350Y-55382438D01*
X130670350Y-55382438D02*
X130717969Y-55430057D01*
X130717969Y-55430057D02*
X130765588Y-55525295D01*
X130765588Y-55525295D02*
X130765588Y-55620533D01*
X130765588Y-55620533D02*
X130717969Y-55763390D01*
X130717969Y-55763390D02*
X130146541Y-56334819D01*
X130146541Y-56334819D02*
X130765588Y-56334819D01*
X131670350Y-55334819D02*
X131194160Y-55334819D01*
X131194160Y-55334819D02*
X131146541Y-55811009D01*
X131146541Y-55811009D02*
X131194160Y-55763390D01*
X131194160Y-55763390D02*
X131289398Y-55715771D01*
X131289398Y-55715771D02*
X131527493Y-55715771D01*
X131527493Y-55715771D02*
X131622731Y-55763390D01*
X131622731Y-55763390D02*
X131670350Y-55811009D01*
X131670350Y-55811009D02*
X131717969Y-55906247D01*
X131717969Y-55906247D02*
X131717969Y-56144342D01*
X131717969Y-56144342D02*
X131670350Y-56239580D01*
X131670350Y-56239580D02*
X131622731Y-56287200D01*
X131622731Y-56287200D02*
X131527493Y-56334819D01*
X131527493Y-56334819D02*
X131289398Y-56334819D01*
X131289398Y-56334819D02*
X131194160Y-56287200D01*
X131194160Y-56287200D02*
X131146541Y-56239580D01*
X123463207Y-74114819D02*
X123129874Y-73638628D01*
X122891779Y-74114819D02*
X122891779Y-73114819D01*
X122891779Y-73114819D02*
X123272731Y-73114819D01*
X123272731Y-73114819D02*
X123367969Y-73162438D01*
X123367969Y-73162438D02*
X123415588Y-73210057D01*
X123415588Y-73210057D02*
X123463207Y-73305295D01*
X123463207Y-73305295D02*
X123463207Y-73448152D01*
X123463207Y-73448152D02*
X123415588Y-73543390D01*
X123415588Y-73543390D02*
X123367969Y-73591009D01*
X123367969Y-73591009D02*
X123272731Y-73638628D01*
X123272731Y-73638628D02*
X122891779Y-73638628D01*
X124415588Y-74114819D02*
X123844160Y-74114819D01*
X124129874Y-74114819D02*
X124129874Y-73114819D01*
X124129874Y-73114819D02*
X124034636Y-73257676D01*
X124034636Y-73257676D02*
X123939398Y-73352914D01*
X123939398Y-73352914D02*
X123844160Y-73400533D01*
X125272731Y-73114819D02*
X125082255Y-73114819D01*
X125082255Y-73114819D02*
X124987017Y-73162438D01*
X124987017Y-73162438D02*
X124939398Y-73210057D01*
X124939398Y-73210057D02*
X124844160Y-73352914D01*
X124844160Y-73352914D02*
X124796541Y-73543390D01*
X124796541Y-73543390D02*
X124796541Y-73924342D01*
X124796541Y-73924342D02*
X124844160Y-74019580D01*
X124844160Y-74019580D02*
X124891779Y-74067200D01*
X124891779Y-74067200D02*
X124987017Y-74114819D01*
X124987017Y-74114819D02*
X125177493Y-74114819D01*
X125177493Y-74114819D02*
X125272731Y-74067200D01*
X125272731Y-74067200D02*
X125320350Y-74019580D01*
X125320350Y-74019580D02*
X125367969Y-73924342D01*
X125367969Y-73924342D02*
X125367969Y-73686247D01*
X125367969Y-73686247D02*
X125320350Y-73591009D01*
X125320350Y-73591009D02*
X125272731Y-73543390D01*
X125272731Y-73543390D02*
X125177493Y-73495771D01*
X125177493Y-73495771D02*
X124987017Y-73495771D01*
X124987017Y-73495771D02*
X124891779Y-73543390D01*
X124891779Y-73543390D02*
X124844160Y-73591009D01*
X124844160Y-73591009D02*
X124796541Y-73686247D01*
X123463207Y-71574819D02*
X123129874Y-71098628D01*
X122891779Y-71574819D02*
X122891779Y-70574819D01*
X122891779Y-70574819D02*
X123272731Y-70574819D01*
X123272731Y-70574819D02*
X123367969Y-70622438D01*
X123367969Y-70622438D02*
X123415588Y-70670057D01*
X123415588Y-70670057D02*
X123463207Y-70765295D01*
X123463207Y-70765295D02*
X123463207Y-70908152D01*
X123463207Y-70908152D02*
X123415588Y-71003390D01*
X123415588Y-71003390D02*
X123367969Y-71051009D01*
X123367969Y-71051009D02*
X123272731Y-71098628D01*
X123272731Y-71098628D02*
X122891779Y-71098628D01*
X124415588Y-71574819D02*
X123844160Y-71574819D01*
X124129874Y-71574819D02*
X124129874Y-70574819D01*
X124129874Y-70574819D02*
X124034636Y-70717676D01*
X124034636Y-70717676D02*
X123939398Y-70812914D01*
X123939398Y-70812914D02*
X123844160Y-70860533D01*
X125320350Y-70574819D02*
X124844160Y-70574819D01*
X124844160Y-70574819D02*
X124796541Y-71051009D01*
X124796541Y-71051009D02*
X124844160Y-71003390D01*
X124844160Y-71003390D02*
X124939398Y-70955771D01*
X124939398Y-70955771D02*
X125177493Y-70955771D01*
X125177493Y-70955771D02*
X125272731Y-71003390D01*
X125272731Y-71003390D02*
X125320350Y-71051009D01*
X125320350Y-71051009D02*
X125367969Y-71146247D01*
X125367969Y-71146247D02*
X125367969Y-71384342D01*
X125367969Y-71384342D02*
X125320350Y-71479580D01*
X125320350Y-71479580D02*
X125272731Y-71527200D01*
X125272731Y-71527200D02*
X125177493Y-71574819D01*
X125177493Y-71574819D02*
X124939398Y-71574819D01*
X124939398Y-71574819D02*
X124844160Y-71527200D01*
X124844160Y-71527200D02*
X124796541Y-71479580D01*
X123463207Y-69034819D02*
X123129874Y-68558628D01*
X122891779Y-69034819D02*
X122891779Y-68034819D01*
X122891779Y-68034819D02*
X123272731Y-68034819D01*
X123272731Y-68034819D02*
X123367969Y-68082438D01*
X123367969Y-68082438D02*
X123415588Y-68130057D01*
X123415588Y-68130057D02*
X123463207Y-68225295D01*
X123463207Y-68225295D02*
X123463207Y-68368152D01*
X123463207Y-68368152D02*
X123415588Y-68463390D01*
X123415588Y-68463390D02*
X123367969Y-68511009D01*
X123367969Y-68511009D02*
X123272731Y-68558628D01*
X123272731Y-68558628D02*
X122891779Y-68558628D01*
X124415588Y-69034819D02*
X123844160Y-69034819D01*
X124129874Y-69034819D02*
X124129874Y-68034819D01*
X124129874Y-68034819D02*
X124034636Y-68177676D01*
X124034636Y-68177676D02*
X123939398Y-68272914D01*
X123939398Y-68272914D02*
X123844160Y-68320533D01*
X125272731Y-68368152D02*
X125272731Y-69034819D01*
X125034636Y-67987200D02*
X124796541Y-68701485D01*
X124796541Y-68701485D02*
X125415588Y-68701485D01*
X123463207Y-66494819D02*
X123129874Y-66018628D01*
X122891779Y-66494819D02*
X122891779Y-65494819D01*
X122891779Y-65494819D02*
X123272731Y-65494819D01*
X123272731Y-65494819D02*
X123367969Y-65542438D01*
X123367969Y-65542438D02*
X123415588Y-65590057D01*
X123415588Y-65590057D02*
X123463207Y-65685295D01*
X123463207Y-65685295D02*
X123463207Y-65828152D01*
X123463207Y-65828152D02*
X123415588Y-65923390D01*
X123415588Y-65923390D02*
X123367969Y-65971009D01*
X123367969Y-65971009D02*
X123272731Y-66018628D01*
X123272731Y-66018628D02*
X122891779Y-66018628D01*
X124415588Y-66494819D02*
X123844160Y-66494819D01*
X124129874Y-66494819D02*
X124129874Y-65494819D01*
X124129874Y-65494819D02*
X124034636Y-65637676D01*
X124034636Y-65637676D02*
X123939398Y-65732914D01*
X123939398Y-65732914D02*
X123844160Y-65780533D01*
X124748922Y-65494819D02*
X125367969Y-65494819D01*
X125367969Y-65494819D02*
X125034636Y-65875771D01*
X125034636Y-65875771D02*
X125177493Y-65875771D01*
X125177493Y-65875771D02*
X125272731Y-65923390D01*
X125272731Y-65923390D02*
X125320350Y-65971009D01*
X125320350Y-65971009D02*
X125367969Y-66066247D01*
X125367969Y-66066247D02*
X125367969Y-66304342D01*
X125367969Y-66304342D02*
X125320350Y-66399580D01*
X125320350Y-66399580D02*
X125272731Y-66447200D01*
X125272731Y-66447200D02*
X125177493Y-66494819D01*
X125177493Y-66494819D02*
X124891779Y-66494819D01*
X124891779Y-66494819D02*
X124796541Y-66447200D01*
X124796541Y-66447200D02*
X124748922Y-66399580D01*
X123463207Y-63954819D02*
X123129874Y-63478628D01*
X122891779Y-63954819D02*
X122891779Y-62954819D01*
X122891779Y-62954819D02*
X123272731Y-62954819D01*
X123272731Y-62954819D02*
X123367969Y-63002438D01*
X123367969Y-63002438D02*
X123415588Y-63050057D01*
X123415588Y-63050057D02*
X123463207Y-63145295D01*
X123463207Y-63145295D02*
X123463207Y-63288152D01*
X123463207Y-63288152D02*
X123415588Y-63383390D01*
X123415588Y-63383390D02*
X123367969Y-63431009D01*
X123367969Y-63431009D02*
X123272731Y-63478628D01*
X123272731Y-63478628D02*
X122891779Y-63478628D01*
X124415588Y-63954819D02*
X123844160Y-63954819D01*
X124129874Y-63954819D02*
X124129874Y-62954819D01*
X124129874Y-62954819D02*
X124034636Y-63097676D01*
X124034636Y-63097676D02*
X123939398Y-63192914D01*
X123939398Y-63192914D02*
X123844160Y-63240533D01*
X124796541Y-63050057D02*
X124844160Y-63002438D01*
X124844160Y-63002438D02*
X124939398Y-62954819D01*
X124939398Y-62954819D02*
X125177493Y-62954819D01*
X125177493Y-62954819D02*
X125272731Y-63002438D01*
X125272731Y-63002438D02*
X125320350Y-63050057D01*
X125320350Y-63050057D02*
X125367969Y-63145295D01*
X125367969Y-63145295D02*
X125367969Y-63240533D01*
X125367969Y-63240533D02*
X125320350Y-63383390D01*
X125320350Y-63383390D02*
X124748922Y-63954819D01*
X124748922Y-63954819D02*
X125367969Y-63954819D01*
X123463207Y-61414819D02*
X123129874Y-60938628D01*
X122891779Y-61414819D02*
X122891779Y-60414819D01*
X122891779Y-60414819D02*
X123272731Y-60414819D01*
X123272731Y-60414819D02*
X123367969Y-60462438D01*
X123367969Y-60462438D02*
X123415588Y-60510057D01*
X123415588Y-60510057D02*
X123463207Y-60605295D01*
X123463207Y-60605295D02*
X123463207Y-60748152D01*
X123463207Y-60748152D02*
X123415588Y-60843390D01*
X123415588Y-60843390D02*
X123367969Y-60891009D01*
X123367969Y-60891009D02*
X123272731Y-60938628D01*
X123272731Y-60938628D02*
X122891779Y-60938628D01*
X124415588Y-61414819D02*
X123844160Y-61414819D01*
X124129874Y-61414819D02*
X124129874Y-60414819D01*
X124129874Y-60414819D02*
X124034636Y-60557676D01*
X124034636Y-60557676D02*
X123939398Y-60652914D01*
X123939398Y-60652914D02*
X123844160Y-60700533D01*
X125367969Y-61414819D02*
X124796541Y-61414819D01*
X125082255Y-61414819D02*
X125082255Y-60414819D01*
X125082255Y-60414819D02*
X124987017Y-60557676D01*
X124987017Y-60557676D02*
X124891779Y-60652914D01*
X124891779Y-60652914D02*
X124796541Y-60700533D01*
X123463207Y-58874819D02*
X123129874Y-58398628D01*
X122891779Y-58874819D02*
X122891779Y-57874819D01*
X122891779Y-57874819D02*
X123272731Y-57874819D01*
X123272731Y-57874819D02*
X123367969Y-57922438D01*
X123367969Y-57922438D02*
X123415588Y-57970057D01*
X123415588Y-57970057D02*
X123463207Y-58065295D01*
X123463207Y-58065295D02*
X123463207Y-58208152D01*
X123463207Y-58208152D02*
X123415588Y-58303390D01*
X123415588Y-58303390D02*
X123367969Y-58351009D01*
X123367969Y-58351009D02*
X123272731Y-58398628D01*
X123272731Y-58398628D02*
X122891779Y-58398628D01*
X124415588Y-58874819D02*
X123844160Y-58874819D01*
X124129874Y-58874819D02*
X124129874Y-57874819D01*
X124129874Y-57874819D02*
X124034636Y-58017676D01*
X124034636Y-58017676D02*
X123939398Y-58112914D01*
X123939398Y-58112914D02*
X123844160Y-58160533D01*
X125034636Y-57874819D02*
X125129874Y-57874819D01*
X125129874Y-57874819D02*
X125225112Y-57922438D01*
X125225112Y-57922438D02*
X125272731Y-57970057D01*
X125272731Y-57970057D02*
X125320350Y-58065295D01*
X125320350Y-58065295D02*
X125367969Y-58255771D01*
X125367969Y-58255771D02*
X125367969Y-58493866D01*
X125367969Y-58493866D02*
X125320350Y-58684342D01*
X125320350Y-58684342D02*
X125272731Y-58779580D01*
X125272731Y-58779580D02*
X125225112Y-58827200D01*
X125225112Y-58827200D02*
X125129874Y-58874819D01*
X125129874Y-58874819D02*
X125034636Y-58874819D01*
X125034636Y-58874819D02*
X124939398Y-58827200D01*
X124939398Y-58827200D02*
X124891779Y-58779580D01*
X124891779Y-58779580D02*
X124844160Y-58684342D01*
X124844160Y-58684342D02*
X124796541Y-58493866D01*
X124796541Y-58493866D02*
X124796541Y-58255771D01*
X124796541Y-58255771D02*
X124844160Y-58065295D01*
X124844160Y-58065295D02*
X124891779Y-57970057D01*
X124891779Y-57970057D02*
X124939398Y-57922438D01*
X124939398Y-57922438D02*
X125034636Y-57874819D01*
X126638207Y-75384819D02*
X126304874Y-74908628D01*
X126066779Y-75384819D02*
X126066779Y-74384819D01*
X126066779Y-74384819D02*
X126447731Y-74384819D01*
X126447731Y-74384819D02*
X126542969Y-74432438D01*
X126542969Y-74432438D02*
X126590588Y-74480057D01*
X126590588Y-74480057D02*
X126638207Y-74575295D01*
X126638207Y-74575295D02*
X126638207Y-74718152D01*
X126638207Y-74718152D02*
X126590588Y-74813390D01*
X126590588Y-74813390D02*
X126542969Y-74861009D01*
X126542969Y-74861009D02*
X126447731Y-74908628D01*
X126447731Y-74908628D02*
X126066779Y-74908628D01*
X127019160Y-74480057D02*
X127066779Y-74432438D01*
X127066779Y-74432438D02*
X127162017Y-74384819D01*
X127162017Y-74384819D02*
X127400112Y-74384819D01*
X127400112Y-74384819D02*
X127495350Y-74432438D01*
X127495350Y-74432438D02*
X127542969Y-74480057D01*
X127542969Y-74480057D02*
X127590588Y-74575295D01*
X127590588Y-74575295D02*
X127590588Y-74670533D01*
X127590588Y-74670533D02*
X127542969Y-74813390D01*
X127542969Y-74813390D02*
X126971541Y-75384819D01*
X126971541Y-75384819D02*
X127590588Y-75384819D01*
X128447731Y-74718152D02*
X128447731Y-75384819D01*
X128209636Y-74337200D02*
X127971541Y-75051485D01*
X127971541Y-75051485D02*
X128590588Y-75051485D01*
X126638207Y-72844819D02*
X126304874Y-72368628D01*
X126066779Y-72844819D02*
X126066779Y-71844819D01*
X126066779Y-71844819D02*
X126447731Y-71844819D01*
X126447731Y-71844819D02*
X126542969Y-71892438D01*
X126542969Y-71892438D02*
X126590588Y-71940057D01*
X126590588Y-71940057D02*
X126638207Y-72035295D01*
X126638207Y-72035295D02*
X126638207Y-72178152D01*
X126638207Y-72178152D02*
X126590588Y-72273390D01*
X126590588Y-72273390D02*
X126542969Y-72321009D01*
X126542969Y-72321009D02*
X126447731Y-72368628D01*
X126447731Y-72368628D02*
X126066779Y-72368628D01*
X127019160Y-71940057D02*
X127066779Y-71892438D01*
X127066779Y-71892438D02*
X127162017Y-71844819D01*
X127162017Y-71844819D02*
X127400112Y-71844819D01*
X127400112Y-71844819D02*
X127495350Y-71892438D01*
X127495350Y-71892438D02*
X127542969Y-71940057D01*
X127542969Y-71940057D02*
X127590588Y-72035295D01*
X127590588Y-72035295D02*
X127590588Y-72130533D01*
X127590588Y-72130533D02*
X127542969Y-72273390D01*
X127542969Y-72273390D02*
X126971541Y-72844819D01*
X126971541Y-72844819D02*
X127590588Y-72844819D01*
X127923922Y-71844819D02*
X128542969Y-71844819D01*
X128542969Y-71844819D02*
X128209636Y-72225771D01*
X128209636Y-72225771D02*
X128352493Y-72225771D01*
X128352493Y-72225771D02*
X128447731Y-72273390D01*
X128447731Y-72273390D02*
X128495350Y-72321009D01*
X128495350Y-72321009D02*
X128542969Y-72416247D01*
X128542969Y-72416247D02*
X128542969Y-72654342D01*
X128542969Y-72654342D02*
X128495350Y-72749580D01*
X128495350Y-72749580D02*
X128447731Y-72797200D01*
X128447731Y-72797200D02*
X128352493Y-72844819D01*
X128352493Y-72844819D02*
X128066779Y-72844819D01*
X128066779Y-72844819D02*
X127971541Y-72797200D01*
X127971541Y-72797200D02*
X127923922Y-72749580D01*
X126638207Y-70304819D02*
X126304874Y-69828628D01*
X126066779Y-70304819D02*
X126066779Y-69304819D01*
X126066779Y-69304819D02*
X126447731Y-69304819D01*
X126447731Y-69304819D02*
X126542969Y-69352438D01*
X126542969Y-69352438D02*
X126590588Y-69400057D01*
X126590588Y-69400057D02*
X126638207Y-69495295D01*
X126638207Y-69495295D02*
X126638207Y-69638152D01*
X126638207Y-69638152D02*
X126590588Y-69733390D01*
X126590588Y-69733390D02*
X126542969Y-69781009D01*
X126542969Y-69781009D02*
X126447731Y-69828628D01*
X126447731Y-69828628D02*
X126066779Y-69828628D01*
X127019160Y-69400057D02*
X127066779Y-69352438D01*
X127066779Y-69352438D02*
X127162017Y-69304819D01*
X127162017Y-69304819D02*
X127400112Y-69304819D01*
X127400112Y-69304819D02*
X127495350Y-69352438D01*
X127495350Y-69352438D02*
X127542969Y-69400057D01*
X127542969Y-69400057D02*
X127590588Y-69495295D01*
X127590588Y-69495295D02*
X127590588Y-69590533D01*
X127590588Y-69590533D02*
X127542969Y-69733390D01*
X127542969Y-69733390D02*
X126971541Y-70304819D01*
X126971541Y-70304819D02*
X127590588Y-70304819D01*
X127971541Y-69400057D02*
X128019160Y-69352438D01*
X128019160Y-69352438D02*
X128114398Y-69304819D01*
X128114398Y-69304819D02*
X128352493Y-69304819D01*
X128352493Y-69304819D02*
X128447731Y-69352438D01*
X128447731Y-69352438D02*
X128495350Y-69400057D01*
X128495350Y-69400057D02*
X128542969Y-69495295D01*
X128542969Y-69495295D02*
X128542969Y-69590533D01*
X128542969Y-69590533D02*
X128495350Y-69733390D01*
X128495350Y-69733390D02*
X127923922Y-70304819D01*
X127923922Y-70304819D02*
X128542969Y-70304819D01*
X126638207Y-67764819D02*
X126304874Y-67288628D01*
X126066779Y-67764819D02*
X126066779Y-66764819D01*
X126066779Y-66764819D02*
X126447731Y-66764819D01*
X126447731Y-66764819D02*
X126542969Y-66812438D01*
X126542969Y-66812438D02*
X126590588Y-66860057D01*
X126590588Y-66860057D02*
X126638207Y-66955295D01*
X126638207Y-66955295D02*
X126638207Y-67098152D01*
X126638207Y-67098152D02*
X126590588Y-67193390D01*
X126590588Y-67193390D02*
X126542969Y-67241009D01*
X126542969Y-67241009D02*
X126447731Y-67288628D01*
X126447731Y-67288628D02*
X126066779Y-67288628D01*
X127019160Y-66860057D02*
X127066779Y-66812438D01*
X127066779Y-66812438D02*
X127162017Y-66764819D01*
X127162017Y-66764819D02*
X127400112Y-66764819D01*
X127400112Y-66764819D02*
X127495350Y-66812438D01*
X127495350Y-66812438D02*
X127542969Y-66860057D01*
X127542969Y-66860057D02*
X127590588Y-66955295D01*
X127590588Y-66955295D02*
X127590588Y-67050533D01*
X127590588Y-67050533D02*
X127542969Y-67193390D01*
X127542969Y-67193390D02*
X126971541Y-67764819D01*
X126971541Y-67764819D02*
X127590588Y-67764819D01*
X128542969Y-67764819D02*
X127971541Y-67764819D01*
X128257255Y-67764819D02*
X128257255Y-66764819D01*
X128257255Y-66764819D02*
X128162017Y-66907676D01*
X128162017Y-66907676D02*
X128066779Y-67002914D01*
X128066779Y-67002914D02*
X127971541Y-67050533D01*
X126638207Y-65224819D02*
X126304874Y-64748628D01*
X126066779Y-65224819D02*
X126066779Y-64224819D01*
X126066779Y-64224819D02*
X126447731Y-64224819D01*
X126447731Y-64224819D02*
X126542969Y-64272438D01*
X126542969Y-64272438D02*
X126590588Y-64320057D01*
X126590588Y-64320057D02*
X126638207Y-64415295D01*
X126638207Y-64415295D02*
X126638207Y-64558152D01*
X126638207Y-64558152D02*
X126590588Y-64653390D01*
X126590588Y-64653390D02*
X126542969Y-64701009D01*
X126542969Y-64701009D02*
X126447731Y-64748628D01*
X126447731Y-64748628D02*
X126066779Y-64748628D01*
X127019160Y-64320057D02*
X127066779Y-64272438D01*
X127066779Y-64272438D02*
X127162017Y-64224819D01*
X127162017Y-64224819D02*
X127400112Y-64224819D01*
X127400112Y-64224819D02*
X127495350Y-64272438D01*
X127495350Y-64272438D02*
X127542969Y-64320057D01*
X127542969Y-64320057D02*
X127590588Y-64415295D01*
X127590588Y-64415295D02*
X127590588Y-64510533D01*
X127590588Y-64510533D02*
X127542969Y-64653390D01*
X127542969Y-64653390D02*
X126971541Y-65224819D01*
X126971541Y-65224819D02*
X127590588Y-65224819D01*
X128209636Y-64224819D02*
X128304874Y-64224819D01*
X128304874Y-64224819D02*
X128400112Y-64272438D01*
X128400112Y-64272438D02*
X128447731Y-64320057D01*
X128447731Y-64320057D02*
X128495350Y-64415295D01*
X128495350Y-64415295D02*
X128542969Y-64605771D01*
X128542969Y-64605771D02*
X128542969Y-64843866D01*
X128542969Y-64843866D02*
X128495350Y-65034342D01*
X128495350Y-65034342D02*
X128447731Y-65129580D01*
X128447731Y-65129580D02*
X128400112Y-65177200D01*
X128400112Y-65177200D02*
X128304874Y-65224819D01*
X128304874Y-65224819D02*
X128209636Y-65224819D01*
X128209636Y-65224819D02*
X128114398Y-65177200D01*
X128114398Y-65177200D02*
X128066779Y-65129580D01*
X128066779Y-65129580D02*
X128019160Y-65034342D01*
X128019160Y-65034342D02*
X127971541Y-64843866D01*
X127971541Y-64843866D02*
X127971541Y-64605771D01*
X127971541Y-64605771D02*
X128019160Y-64415295D01*
X128019160Y-64415295D02*
X128066779Y-64320057D01*
X128066779Y-64320057D02*
X128114398Y-64272438D01*
X128114398Y-64272438D02*
X128209636Y-64224819D01*
X126638207Y-62684819D02*
X126304874Y-62208628D01*
X126066779Y-62684819D02*
X126066779Y-61684819D01*
X126066779Y-61684819D02*
X126447731Y-61684819D01*
X126447731Y-61684819D02*
X126542969Y-61732438D01*
X126542969Y-61732438D02*
X126590588Y-61780057D01*
X126590588Y-61780057D02*
X126638207Y-61875295D01*
X126638207Y-61875295D02*
X126638207Y-62018152D01*
X126638207Y-62018152D02*
X126590588Y-62113390D01*
X126590588Y-62113390D02*
X126542969Y-62161009D01*
X126542969Y-62161009D02*
X126447731Y-62208628D01*
X126447731Y-62208628D02*
X126066779Y-62208628D01*
X127590588Y-62684819D02*
X127019160Y-62684819D01*
X127304874Y-62684819D02*
X127304874Y-61684819D01*
X127304874Y-61684819D02*
X127209636Y-61827676D01*
X127209636Y-61827676D02*
X127114398Y-61922914D01*
X127114398Y-61922914D02*
X127019160Y-61970533D01*
X128066779Y-62684819D02*
X128257255Y-62684819D01*
X128257255Y-62684819D02*
X128352493Y-62637200D01*
X128352493Y-62637200D02*
X128400112Y-62589580D01*
X128400112Y-62589580D02*
X128495350Y-62446723D01*
X128495350Y-62446723D02*
X128542969Y-62256247D01*
X128542969Y-62256247D02*
X128542969Y-61875295D01*
X128542969Y-61875295D02*
X128495350Y-61780057D01*
X128495350Y-61780057D02*
X128447731Y-61732438D01*
X128447731Y-61732438D02*
X128352493Y-61684819D01*
X128352493Y-61684819D02*
X128162017Y-61684819D01*
X128162017Y-61684819D02*
X128066779Y-61732438D01*
X128066779Y-61732438D02*
X128019160Y-61780057D01*
X128019160Y-61780057D02*
X127971541Y-61875295D01*
X127971541Y-61875295D02*
X127971541Y-62113390D01*
X127971541Y-62113390D02*
X128019160Y-62208628D01*
X128019160Y-62208628D02*
X128066779Y-62256247D01*
X128066779Y-62256247D02*
X128162017Y-62303866D01*
X128162017Y-62303866D02*
X128352493Y-62303866D01*
X128352493Y-62303866D02*
X128447731Y-62256247D01*
X128447731Y-62256247D02*
X128495350Y-62208628D01*
X128495350Y-62208628D02*
X128542969Y-62113390D01*
X126638207Y-60144819D02*
X126304874Y-59668628D01*
X126066779Y-60144819D02*
X126066779Y-59144819D01*
X126066779Y-59144819D02*
X126447731Y-59144819D01*
X126447731Y-59144819D02*
X126542969Y-59192438D01*
X126542969Y-59192438D02*
X126590588Y-59240057D01*
X126590588Y-59240057D02*
X126638207Y-59335295D01*
X126638207Y-59335295D02*
X126638207Y-59478152D01*
X126638207Y-59478152D02*
X126590588Y-59573390D01*
X126590588Y-59573390D02*
X126542969Y-59621009D01*
X126542969Y-59621009D02*
X126447731Y-59668628D01*
X126447731Y-59668628D02*
X126066779Y-59668628D01*
X127590588Y-60144819D02*
X127019160Y-60144819D01*
X127304874Y-60144819D02*
X127304874Y-59144819D01*
X127304874Y-59144819D02*
X127209636Y-59287676D01*
X127209636Y-59287676D02*
X127114398Y-59382914D01*
X127114398Y-59382914D02*
X127019160Y-59430533D01*
X128162017Y-59573390D02*
X128066779Y-59525771D01*
X128066779Y-59525771D02*
X128019160Y-59478152D01*
X128019160Y-59478152D02*
X127971541Y-59382914D01*
X127971541Y-59382914D02*
X127971541Y-59335295D01*
X127971541Y-59335295D02*
X128019160Y-59240057D01*
X128019160Y-59240057D02*
X128066779Y-59192438D01*
X128066779Y-59192438D02*
X128162017Y-59144819D01*
X128162017Y-59144819D02*
X128352493Y-59144819D01*
X128352493Y-59144819D02*
X128447731Y-59192438D01*
X128447731Y-59192438D02*
X128495350Y-59240057D01*
X128495350Y-59240057D02*
X128542969Y-59335295D01*
X128542969Y-59335295D02*
X128542969Y-59382914D01*
X128542969Y-59382914D02*
X128495350Y-59478152D01*
X128495350Y-59478152D02*
X128447731Y-59525771D01*
X128447731Y-59525771D02*
X128352493Y-59573390D01*
X128352493Y-59573390D02*
X128162017Y-59573390D01*
X128162017Y-59573390D02*
X128066779Y-59621009D01*
X128066779Y-59621009D02*
X128019160Y-59668628D01*
X128019160Y-59668628D02*
X127971541Y-59763866D01*
X127971541Y-59763866D02*
X127971541Y-59954342D01*
X127971541Y-59954342D02*
X128019160Y-60049580D01*
X128019160Y-60049580D02*
X128066779Y-60097200D01*
X128066779Y-60097200D02*
X128162017Y-60144819D01*
X128162017Y-60144819D02*
X128352493Y-60144819D01*
X128352493Y-60144819D02*
X128447731Y-60097200D01*
X128447731Y-60097200D02*
X128495350Y-60049580D01*
X128495350Y-60049580D02*
X128542969Y-59954342D01*
X128542969Y-59954342D02*
X128542969Y-59763866D01*
X128542969Y-59763866D02*
X128495350Y-59668628D01*
X128495350Y-59668628D02*
X128447731Y-59621009D01*
X128447731Y-59621009D02*
X128352493Y-59573390D01*
X120288207Y-75384819D02*
X119954874Y-74908628D01*
X119716779Y-75384819D02*
X119716779Y-74384819D01*
X119716779Y-74384819D02*
X120097731Y-74384819D01*
X120097731Y-74384819D02*
X120192969Y-74432438D01*
X120192969Y-74432438D02*
X120240588Y-74480057D01*
X120240588Y-74480057D02*
X120288207Y-74575295D01*
X120288207Y-74575295D02*
X120288207Y-74718152D01*
X120288207Y-74718152D02*
X120240588Y-74813390D01*
X120240588Y-74813390D02*
X120192969Y-74861009D01*
X120192969Y-74861009D02*
X120097731Y-74908628D01*
X120097731Y-74908628D02*
X119716779Y-74908628D01*
X120859636Y-74813390D02*
X120764398Y-74765771D01*
X120764398Y-74765771D02*
X120716779Y-74718152D01*
X120716779Y-74718152D02*
X120669160Y-74622914D01*
X120669160Y-74622914D02*
X120669160Y-74575295D01*
X120669160Y-74575295D02*
X120716779Y-74480057D01*
X120716779Y-74480057D02*
X120764398Y-74432438D01*
X120764398Y-74432438D02*
X120859636Y-74384819D01*
X120859636Y-74384819D02*
X121050112Y-74384819D01*
X121050112Y-74384819D02*
X121145350Y-74432438D01*
X121145350Y-74432438D02*
X121192969Y-74480057D01*
X121192969Y-74480057D02*
X121240588Y-74575295D01*
X121240588Y-74575295D02*
X121240588Y-74622914D01*
X121240588Y-74622914D02*
X121192969Y-74718152D01*
X121192969Y-74718152D02*
X121145350Y-74765771D01*
X121145350Y-74765771D02*
X121050112Y-74813390D01*
X121050112Y-74813390D02*
X120859636Y-74813390D01*
X120859636Y-74813390D02*
X120764398Y-74861009D01*
X120764398Y-74861009D02*
X120716779Y-74908628D01*
X120716779Y-74908628D02*
X120669160Y-75003866D01*
X120669160Y-75003866D02*
X120669160Y-75194342D01*
X120669160Y-75194342D02*
X120716779Y-75289580D01*
X120716779Y-75289580D02*
X120764398Y-75337200D01*
X120764398Y-75337200D02*
X120859636Y-75384819D01*
X120859636Y-75384819D02*
X121050112Y-75384819D01*
X121050112Y-75384819D02*
X121145350Y-75337200D01*
X121145350Y-75337200D02*
X121192969Y-75289580D01*
X121192969Y-75289580D02*
X121240588Y-75194342D01*
X121240588Y-75194342D02*
X121240588Y-75003866D01*
X121240588Y-75003866D02*
X121192969Y-74908628D01*
X121192969Y-74908628D02*
X121145350Y-74861009D01*
X121145350Y-74861009D02*
X121050112Y-74813390D01*
X120288207Y-72844819D02*
X119954874Y-72368628D01*
X119716779Y-72844819D02*
X119716779Y-71844819D01*
X119716779Y-71844819D02*
X120097731Y-71844819D01*
X120097731Y-71844819D02*
X120192969Y-71892438D01*
X120192969Y-71892438D02*
X120240588Y-71940057D01*
X120240588Y-71940057D02*
X120288207Y-72035295D01*
X120288207Y-72035295D02*
X120288207Y-72178152D01*
X120288207Y-72178152D02*
X120240588Y-72273390D01*
X120240588Y-72273390D02*
X120192969Y-72321009D01*
X120192969Y-72321009D02*
X120097731Y-72368628D01*
X120097731Y-72368628D02*
X119716779Y-72368628D01*
X120621541Y-71844819D02*
X121288207Y-71844819D01*
X121288207Y-71844819D02*
X120859636Y-72844819D01*
X120288207Y-70304819D02*
X119954874Y-69828628D01*
X119716779Y-70304819D02*
X119716779Y-69304819D01*
X119716779Y-69304819D02*
X120097731Y-69304819D01*
X120097731Y-69304819D02*
X120192969Y-69352438D01*
X120192969Y-69352438D02*
X120240588Y-69400057D01*
X120240588Y-69400057D02*
X120288207Y-69495295D01*
X120288207Y-69495295D02*
X120288207Y-69638152D01*
X120288207Y-69638152D02*
X120240588Y-69733390D01*
X120240588Y-69733390D02*
X120192969Y-69781009D01*
X120192969Y-69781009D02*
X120097731Y-69828628D01*
X120097731Y-69828628D02*
X119716779Y-69828628D01*
X121145350Y-69304819D02*
X120954874Y-69304819D01*
X120954874Y-69304819D02*
X120859636Y-69352438D01*
X120859636Y-69352438D02*
X120812017Y-69400057D01*
X120812017Y-69400057D02*
X120716779Y-69542914D01*
X120716779Y-69542914D02*
X120669160Y-69733390D01*
X120669160Y-69733390D02*
X120669160Y-70114342D01*
X120669160Y-70114342D02*
X120716779Y-70209580D01*
X120716779Y-70209580D02*
X120764398Y-70257200D01*
X120764398Y-70257200D02*
X120859636Y-70304819D01*
X120859636Y-70304819D02*
X121050112Y-70304819D01*
X121050112Y-70304819D02*
X121145350Y-70257200D01*
X121145350Y-70257200D02*
X121192969Y-70209580D01*
X121192969Y-70209580D02*
X121240588Y-70114342D01*
X121240588Y-70114342D02*
X121240588Y-69876247D01*
X121240588Y-69876247D02*
X121192969Y-69781009D01*
X121192969Y-69781009D02*
X121145350Y-69733390D01*
X121145350Y-69733390D02*
X121050112Y-69685771D01*
X121050112Y-69685771D02*
X120859636Y-69685771D01*
X120859636Y-69685771D02*
X120764398Y-69733390D01*
X120764398Y-69733390D02*
X120716779Y-69781009D01*
X120716779Y-69781009D02*
X120669160Y-69876247D01*
X120288207Y-67764819D02*
X119954874Y-67288628D01*
X119716779Y-67764819D02*
X119716779Y-66764819D01*
X119716779Y-66764819D02*
X120097731Y-66764819D01*
X120097731Y-66764819D02*
X120192969Y-66812438D01*
X120192969Y-66812438D02*
X120240588Y-66860057D01*
X120240588Y-66860057D02*
X120288207Y-66955295D01*
X120288207Y-66955295D02*
X120288207Y-67098152D01*
X120288207Y-67098152D02*
X120240588Y-67193390D01*
X120240588Y-67193390D02*
X120192969Y-67241009D01*
X120192969Y-67241009D02*
X120097731Y-67288628D01*
X120097731Y-67288628D02*
X119716779Y-67288628D01*
X121192969Y-66764819D02*
X120716779Y-66764819D01*
X120716779Y-66764819D02*
X120669160Y-67241009D01*
X120669160Y-67241009D02*
X120716779Y-67193390D01*
X120716779Y-67193390D02*
X120812017Y-67145771D01*
X120812017Y-67145771D02*
X121050112Y-67145771D01*
X121050112Y-67145771D02*
X121145350Y-67193390D01*
X121145350Y-67193390D02*
X121192969Y-67241009D01*
X121192969Y-67241009D02*
X121240588Y-67336247D01*
X121240588Y-67336247D02*
X121240588Y-67574342D01*
X121240588Y-67574342D02*
X121192969Y-67669580D01*
X121192969Y-67669580D02*
X121145350Y-67717200D01*
X121145350Y-67717200D02*
X121050112Y-67764819D01*
X121050112Y-67764819D02*
X120812017Y-67764819D01*
X120812017Y-67764819D02*
X120716779Y-67717200D01*
X120716779Y-67717200D02*
X120669160Y-67669580D01*
X120288207Y-65224819D02*
X119954874Y-64748628D01*
X119716779Y-65224819D02*
X119716779Y-64224819D01*
X119716779Y-64224819D02*
X120097731Y-64224819D01*
X120097731Y-64224819D02*
X120192969Y-64272438D01*
X120192969Y-64272438D02*
X120240588Y-64320057D01*
X120240588Y-64320057D02*
X120288207Y-64415295D01*
X120288207Y-64415295D02*
X120288207Y-64558152D01*
X120288207Y-64558152D02*
X120240588Y-64653390D01*
X120240588Y-64653390D02*
X120192969Y-64701009D01*
X120192969Y-64701009D02*
X120097731Y-64748628D01*
X120097731Y-64748628D02*
X119716779Y-64748628D01*
X121145350Y-64558152D02*
X121145350Y-65224819D01*
X120907255Y-64177200D02*
X120669160Y-64891485D01*
X120669160Y-64891485D02*
X121288207Y-64891485D01*
X120288207Y-62684819D02*
X119954874Y-62208628D01*
X119716779Y-62684819D02*
X119716779Y-61684819D01*
X119716779Y-61684819D02*
X120097731Y-61684819D01*
X120097731Y-61684819D02*
X120192969Y-61732438D01*
X120192969Y-61732438D02*
X120240588Y-61780057D01*
X120240588Y-61780057D02*
X120288207Y-61875295D01*
X120288207Y-61875295D02*
X120288207Y-62018152D01*
X120288207Y-62018152D02*
X120240588Y-62113390D01*
X120240588Y-62113390D02*
X120192969Y-62161009D01*
X120192969Y-62161009D02*
X120097731Y-62208628D01*
X120097731Y-62208628D02*
X119716779Y-62208628D01*
X120621541Y-61684819D02*
X121240588Y-61684819D01*
X121240588Y-61684819D02*
X120907255Y-62065771D01*
X120907255Y-62065771D02*
X121050112Y-62065771D01*
X121050112Y-62065771D02*
X121145350Y-62113390D01*
X121145350Y-62113390D02*
X121192969Y-62161009D01*
X121192969Y-62161009D02*
X121240588Y-62256247D01*
X121240588Y-62256247D02*
X121240588Y-62494342D01*
X121240588Y-62494342D02*
X121192969Y-62589580D01*
X121192969Y-62589580D02*
X121145350Y-62637200D01*
X121145350Y-62637200D02*
X121050112Y-62684819D01*
X121050112Y-62684819D02*
X120764398Y-62684819D01*
X120764398Y-62684819D02*
X120669160Y-62637200D01*
X120669160Y-62637200D02*
X120621541Y-62589580D01*
X120288207Y-60144819D02*
X119954874Y-59668628D01*
X119716779Y-60144819D02*
X119716779Y-59144819D01*
X119716779Y-59144819D02*
X120097731Y-59144819D01*
X120097731Y-59144819D02*
X120192969Y-59192438D01*
X120192969Y-59192438D02*
X120240588Y-59240057D01*
X120240588Y-59240057D02*
X120288207Y-59335295D01*
X120288207Y-59335295D02*
X120288207Y-59478152D01*
X120288207Y-59478152D02*
X120240588Y-59573390D01*
X120240588Y-59573390D02*
X120192969Y-59621009D01*
X120192969Y-59621009D02*
X120097731Y-59668628D01*
X120097731Y-59668628D02*
X119716779Y-59668628D01*
X120669160Y-59240057D02*
X120716779Y-59192438D01*
X120716779Y-59192438D02*
X120812017Y-59144819D01*
X120812017Y-59144819D02*
X121050112Y-59144819D01*
X121050112Y-59144819D02*
X121145350Y-59192438D01*
X121145350Y-59192438D02*
X121192969Y-59240057D01*
X121192969Y-59240057D02*
X121240588Y-59335295D01*
X121240588Y-59335295D02*
X121240588Y-59430533D01*
X121240588Y-59430533D02*
X121192969Y-59573390D01*
X121192969Y-59573390D02*
X120621541Y-60144819D01*
X120621541Y-60144819D02*
X121240588Y-60144819D01*
X123463207Y-56334819D02*
X123129874Y-55858628D01*
X122891779Y-56334819D02*
X122891779Y-55334819D01*
X122891779Y-55334819D02*
X123272731Y-55334819D01*
X123272731Y-55334819D02*
X123367969Y-55382438D01*
X123367969Y-55382438D02*
X123415588Y-55430057D01*
X123415588Y-55430057D02*
X123463207Y-55525295D01*
X123463207Y-55525295D02*
X123463207Y-55668152D01*
X123463207Y-55668152D02*
X123415588Y-55763390D01*
X123415588Y-55763390D02*
X123367969Y-55811009D01*
X123367969Y-55811009D02*
X123272731Y-55858628D01*
X123272731Y-55858628D02*
X122891779Y-55858628D01*
X123939398Y-56334819D02*
X124129874Y-56334819D01*
X124129874Y-56334819D02*
X124225112Y-56287200D01*
X124225112Y-56287200D02*
X124272731Y-56239580D01*
X124272731Y-56239580D02*
X124367969Y-56096723D01*
X124367969Y-56096723D02*
X124415588Y-55906247D01*
X124415588Y-55906247D02*
X124415588Y-55525295D01*
X124415588Y-55525295D02*
X124367969Y-55430057D01*
X124367969Y-55430057D02*
X124320350Y-55382438D01*
X124320350Y-55382438D02*
X124225112Y-55334819D01*
X124225112Y-55334819D02*
X124034636Y-55334819D01*
X124034636Y-55334819D02*
X123939398Y-55382438D01*
X123939398Y-55382438D02*
X123891779Y-55430057D01*
X123891779Y-55430057D02*
X123844160Y-55525295D01*
X123844160Y-55525295D02*
X123844160Y-55763390D01*
X123844160Y-55763390D02*
X123891779Y-55858628D01*
X123891779Y-55858628D02*
X123939398Y-55906247D01*
X123939398Y-55906247D02*
X124034636Y-55953866D01*
X124034636Y-55953866D02*
X124225112Y-55953866D01*
X124225112Y-55953866D02*
X124320350Y-55906247D01*
X124320350Y-55906247D02*
X124367969Y-55858628D01*
X124367969Y-55858628D02*
X124415588Y-55763390D01*
X126638207Y-57604819D02*
X126304874Y-57128628D01*
X126066779Y-57604819D02*
X126066779Y-56604819D01*
X126066779Y-56604819D02*
X126447731Y-56604819D01*
X126447731Y-56604819D02*
X126542969Y-56652438D01*
X126542969Y-56652438D02*
X126590588Y-56700057D01*
X126590588Y-56700057D02*
X126638207Y-56795295D01*
X126638207Y-56795295D02*
X126638207Y-56938152D01*
X126638207Y-56938152D02*
X126590588Y-57033390D01*
X126590588Y-57033390D02*
X126542969Y-57081009D01*
X126542969Y-57081009D02*
X126447731Y-57128628D01*
X126447731Y-57128628D02*
X126066779Y-57128628D01*
X127590588Y-57604819D02*
X127019160Y-57604819D01*
X127304874Y-57604819D02*
X127304874Y-56604819D01*
X127304874Y-56604819D02*
X127209636Y-56747676D01*
X127209636Y-56747676D02*
X127114398Y-56842914D01*
X127114398Y-56842914D02*
X127019160Y-56890533D01*
X127923922Y-56604819D02*
X128590588Y-56604819D01*
X128590588Y-56604819D02*
X128162017Y-57604819D01*
X120288207Y-57604819D02*
X119954874Y-57128628D01*
X119716779Y-57604819D02*
X119716779Y-56604819D01*
X119716779Y-56604819D02*
X120097731Y-56604819D01*
X120097731Y-56604819D02*
X120192969Y-56652438D01*
X120192969Y-56652438D02*
X120240588Y-56700057D01*
X120240588Y-56700057D02*
X120288207Y-56795295D01*
X120288207Y-56795295D02*
X120288207Y-56938152D01*
X120288207Y-56938152D02*
X120240588Y-57033390D01*
X120240588Y-57033390D02*
X120192969Y-57081009D01*
X120192969Y-57081009D02*
X120097731Y-57128628D01*
X120097731Y-57128628D02*
X119716779Y-57128628D01*
X121240588Y-57604819D02*
X120669160Y-57604819D01*
X120954874Y-57604819D02*
X120954874Y-56604819D01*
X120954874Y-56604819D02*
X120859636Y-56747676D01*
X120859636Y-56747676D02*
X120764398Y-56842914D01*
X120764398Y-56842914D02*
X120669160Y-56890533D01*
X112696666Y-54274819D02*
X112696666Y-54989104D01*
X112696666Y-54989104D02*
X112649047Y-55131961D01*
X112649047Y-55131961D02*
X112553809Y-55227200D01*
X112553809Y-55227200D02*
X112410952Y-55274819D01*
X112410952Y-55274819D02*
X112315714Y-55274819D01*
X113696666Y-55274819D02*
X113125238Y-55274819D01*
X113410952Y-55274819D02*
X113410952Y-54274819D01*
X113410952Y-54274819D02*
X113315714Y-54417676D01*
X113315714Y-54417676D02*
X113220476Y-54512914D01*
X113220476Y-54512914D02*
X113125238Y-54560533D01*
D12*
%TO.C,R32*%
X127397742Y-73137500D02*
X127872258Y-73137500D01*
X127397742Y-74182500D02*
X127872258Y-74182500D01*
%TO.C,R31*%
X127397742Y-70597500D02*
X127872258Y-70597500D01*
X127397742Y-71642500D02*
X127872258Y-71642500D01*
%TO.C,R30*%
X127397742Y-68057500D02*
X127872258Y-68057500D01*
X127397742Y-69102500D02*
X127872258Y-69102500D01*
%TO.C,R29*%
X127397742Y-65517500D02*
X127872258Y-65517500D01*
X127397742Y-66562500D02*
X127872258Y-66562500D01*
%TO.C,R28*%
X127397742Y-62977500D02*
X127872258Y-62977500D01*
X127397742Y-64022500D02*
X127872258Y-64022500D01*
%TO.C,R27*%
X127397742Y-60437500D02*
X127872258Y-60437500D01*
X127397742Y-61482500D02*
X127872258Y-61482500D01*
%TO.C,R26*%
X127397742Y-57897500D02*
X127872258Y-57897500D01*
X127397742Y-58942500D02*
X127872258Y-58942500D01*
%TO.C,R25*%
X127397742Y-55357500D02*
X127872258Y-55357500D01*
X127397742Y-56402500D02*
X127872258Y-56402500D01*
%TO.C,R16*%
X121047742Y-73137500D02*
X121522258Y-73137500D01*
X121047742Y-74182500D02*
X121522258Y-74182500D01*
%TO.C,R15*%
X121047742Y-70597500D02*
X121522258Y-70597500D01*
X121047742Y-71642500D02*
X121522258Y-71642500D01*
%TO.C,R14*%
X121047742Y-68057500D02*
X121522258Y-68057500D01*
X121047742Y-69102500D02*
X121522258Y-69102500D01*
%TO.C,R13*%
X121047742Y-65517500D02*
X121522258Y-65517500D01*
X121047742Y-66562500D02*
X121522258Y-66562500D01*
%TO.C,R12*%
X121047742Y-62977500D02*
X121522258Y-62977500D01*
X121047742Y-64022500D02*
X121522258Y-64022500D01*
%TO.C,R11*%
X121047742Y-60437500D02*
X121522258Y-60437500D01*
X121047742Y-61482500D02*
X121522258Y-61482500D01*
%TO.C,R10*%
X121047742Y-57897500D02*
X121522258Y-57897500D01*
X121047742Y-58942500D02*
X121522258Y-58942500D01*
%TO.C,R24*%
X124222742Y-75452500D02*
X124697258Y-75452500D01*
X124222742Y-74407500D02*
X124697258Y-74407500D01*
%TO.C,R23*%
X124222742Y-72912500D02*
X124697258Y-72912500D01*
X124222742Y-71867500D02*
X124697258Y-71867500D01*
%TO.C,R22*%
X124222742Y-70372500D02*
X124697258Y-70372500D01*
X124222742Y-69327500D02*
X124697258Y-69327500D01*
%TO.C,R21*%
X124222742Y-67832500D02*
X124697258Y-67832500D01*
X124222742Y-66787500D02*
X124697258Y-66787500D01*
%TO.C,R20*%
X124222742Y-65292500D02*
X124697258Y-65292500D01*
X124222742Y-64247500D02*
X124697258Y-64247500D01*
%TO.C,R19*%
X124222742Y-62752500D02*
X124697258Y-62752500D01*
X124222742Y-61707500D02*
X124697258Y-61707500D01*
%TO.C,R18*%
X124222742Y-60212500D02*
X124697258Y-60212500D01*
X124222742Y-59167500D02*
X124697258Y-59167500D01*
%TO.C,R8*%
X117872742Y-75452500D02*
X118347258Y-75452500D01*
X117872742Y-74407500D02*
X118347258Y-74407500D01*
%TO.C,R7*%
X117872742Y-72912500D02*
X118347258Y-72912500D01*
X117872742Y-71867500D02*
X118347258Y-71867500D01*
%TO.C,R6*%
X117872742Y-70372500D02*
X118347258Y-70372500D01*
X117872742Y-69327500D02*
X118347258Y-69327500D01*
%TO.C,R5*%
X117872742Y-67832500D02*
X118347258Y-67832500D01*
X117872742Y-66787500D02*
X118347258Y-66787500D01*
%TO.C,R4*%
X117872742Y-65292500D02*
X118347258Y-65292500D01*
X117872742Y-64247500D02*
X118347258Y-64247500D01*
%TO.C,R3*%
X117872742Y-62752500D02*
X118347258Y-62752500D01*
X117872742Y-61707500D02*
X118347258Y-61707500D01*
%TO.C,R2*%
X117872742Y-60212500D02*
X118347258Y-60212500D01*
X117872742Y-59167500D02*
X118347258Y-59167500D01*
%TO.C,R9*%
X121047742Y-56402500D02*
X121522258Y-56402500D01*
X121047742Y-55357500D02*
X121522258Y-55357500D01*
%TO.C,R17*%
X124222742Y-57672500D02*
X124697258Y-57672500D01*
X124222742Y-56627500D02*
X124697258Y-56627500D01*
%TO.C,R1*%
X117872742Y-57672500D02*
X118347258Y-57672500D01*
X117872742Y-56627500D02*
X118347258Y-56627500D01*
%TO.C,J1*%
X110430000Y-55820000D02*
X111760000Y-55820000D01*
X110430000Y-57150000D02*
X110430000Y-55820000D01*
X110430000Y-58420000D02*
X110430000Y-76260000D01*
X110430000Y-58420000D02*
X113030000Y-58420000D01*
X110430000Y-76260000D02*
X115630000Y-76260000D01*
X113030000Y-55820000D02*
X115630000Y-55820000D01*
X113030000Y-58420000D02*
X113030000Y-55820000D01*
X115630000Y-55820000D02*
X115630000Y-76260000D01*
%TD*%
M02*
