M48
; DRILL file {KiCad 8.0.3} date 2024-07-20T13:21:37-0500
; FORMAT={-:-/ absolute / inch / decimal}
; #@! TF.CreationDate,2024-07-20T13:21:37-05:00
; #@! TF.GenerationSoftware,Kicad,Pcbnew,8.0.3
; #@! TF.FileFunction,Plated,1,2,PTH
FMAT,2
INCH
; #@! TA.AperFunction,Plated,PTH,ViaDrill
T1C0.0118
; #@! TA.AperFunction,Plated,PTH,ComponentDrill
T2C0.0394
%
G90
G05
T1
X4.6654Y-2.1654
X4.6825Y-3.0
X4.808Y-2.2
X4.808Y-2.3
X4.808Y-2.4
X4.808Y-2.5
X4.808Y-2.6
X4.808Y-2.7
X4.808Y-2.8
X4.808Y-2.9
X5.0394Y-3.0315
X5.058Y-2.2
X5.058Y-2.3
X5.058Y-2.4
X5.058Y-2.5
X5.058Y-2.6
X5.058Y-2.7
X5.058Y-2.8
X5.058Y-2.9
X5.1378Y-2.0669
X5.1378Y-3.1299
X5.1575Y-1.3976
X5.1575Y-3.7992
T2
X4.4Y-2.25
X4.4Y-2.35
X4.4Y-2.45
X4.4Y-2.55
X4.4Y-2.65
X4.4Y-2.75
X4.4Y-2.85
X4.4Y-2.95
X4.5Y-2.25
X4.5Y-2.35
X4.5Y-2.45
X4.5Y-2.55
X4.5Y-2.65
X4.5Y-2.75
X4.5Y-2.85
X4.5Y-2.95
M30
